<svg enable-background="new 0 0 504 504" viewBox="0 0 504 504" xmlns="http://www.w3.org/2000/svg"><circle cx="252" cy="252" fill="#fd8469" r="252"/><path d="m105.3 133-3.6 3.6 19.1 24.6 8.7-8.5z" fill="#324a5e"/><path d="m398.7 133 3.6 3.6-19.1 24.6-8.7-8.5z" fill="#324a5e"/><path d="m117.6 149.5s.9-1 2.4-2.9c1.6-1.9 3.9-4.7 7-8.2.8-.9 1.6-1.8 2.4-2.8.4-.5.9-1 1.3-1.5l.3-.4s-.2.2-.1.1l.1-.1.2-.2c.2-.3.4-.5.7-.8.5-.7 1.1-1.6 1.7-2.6s1.1-2 1.5-3.2c.8-2.2 1.4-4.7 1.5-7.4 0-.7 0-1.3 0-2 0-1 0-2 0-3.1-.1-.8.1-2.4.3-3.7.1-.7.1-1.4.3-2 .1-.6.3-1.2.4-1.9 1.1-5 3.4-10 6.7-14.6 3.3-4.5 7.7-8.5 13-11.4s11.5-4.7 17.8-5c.9-.1 1.4-.1 2-.1l1.8-.1c1.2 0 2.4-.1 3.6-.1 2.4-.1 4.9-.1 7.4-.2 5-.1 10-.2 15.1-.3s10.3-.1 15.5-.2c10.4-.1 21-.2 31.5-.2 10.6 0 21.1 0 31.5.2 10.4.1 20.6.3 30.5.5 2.5.1 4.9.1 7.4.2 1.2 0 2.4.1 3.6.1h1.8.9.2.7.1.4l1.9.4h.4c.1 0 .3 0 .5.1l1.3.2c.9.1 1.8.3 2.6.5.9.2 1.5.4 2.3.6s1.5.4 2.2.7 1.4.6 2.2.8c1.5.5 2.8 1.3 4.1 2 5.3 2.9 9.7 6.9 13.1 11.4 3.3 4.5 5.5 9.6 6.7 14.6.3 1.3.6 2.5.7 3.8.1 1.2.3 2.5.3 3.7v1.8.9.1c0-.4 0-.1 0-.1v.2.3 2c.1 2.6.6 5.1 1.5 7.3.4 1.1.9 2.2 1.5 3.2s1.2 1.9 1.8 2.7c.2.2.3.4.5.6l.2.3.3.4c.4.5.9 1 1.3 1.5.8 1 1.6 1.9 2.4 2.8 3.1 3.5 5.4 6.3 7 8.2s2.4 2.9 2.4 2.9c2 2.4 1.7 6-.7 8.1-2.2 1.8-5.2 1.7-7.3 0 0 0-1-.8-2.9-2.4s-4.7-3.9-8.2-7c-.9-.8-1.8-1.6-2.8-2.4-.5-.4-1-.8-1.5-1.3l-.4-.3-.5-.4c-.3-.3-.6-.6-.9-.9-2.5-2.4-4.8-5.5-6.7-9-1.9-3.6-3.4-7.7-4.1-12.3-.2-1.1-.3-2.7-.4-3.5v-.3-.2c0-.1 0 .2 0-.3v-.1l-.1-.5c0-.3-.1-.7-.1-1 0-.7-.2-1.3-.4-2-.1-.7-.4-1.3-.6-2-.9-2.6-2.3-5.2-4.3-7.4-1.9-2.2-4.4-4.1-7.1-5.3-.7-.3-1.4-.6-2.1-.8l-1.1-.4c-.4-.1-.8-.2-1.1-.2-.4-.1-.8-.2-1.1-.2s-.6 0-.9-.1l-.4-.1s-.2 0-.3 0h-.4-1.8c-4.6.1-9.3.2-14.1.3-9.9.2-20.1.4-30.5.5s-21 .1-31.5.2c-10.6 0-21.1-.1-31.5-.2-5.2-.1-10.4-.1-15.5-.2s-10.1-.2-15.1-.3c-4.9-.1-9.7-.2-14.4-.3-3.2-.1-6.2.6-9 1.8-5.6 2.5-9.7 7.5-11.4 12.7l-.3 1c-.1.3-.1.6-.2.8-.1.6-.3.9-.4 2-.1.9-.2 1.7-.3 2.5-.1 1.2-.2 2.4-.4 3.5-.7 4.6-2.2 8.7-4.1 12.3-1 1.8-2 3.4-3.1 5-1.1 1.5-2.3 2.8-3.7 4.2-.3.2-.5.5-.8.7l-.2.2-.1.1-.2.2-.4.3c-.5.4-1 .9-1.5 1.3-1 .8-1.9 1.6-2.8 2.4-3.5 3.1-6.3 5.4-8.2 7s-2.9 2.4-2.9 2.4c-2.4 2-6 1.7-8.1-.7-1.6-2.2-1.5-5.3.2-7.4z" fill="#324a5e"/><path d="m120.329 171.52h54.199v13.6h-54.199z" fill="#324a5e" transform="matrix(.7071 .7071 -.7071 .7071 169.2722 -52.0191)"/><path d="m119.4 151.2c17-17 44.4-17 61.4 0l-61.4 61.4c-17-17-17-44.5 0-61.4z" fill="#ffd05b"/><path d="m329.39 171.535h54.199v13.6h-54.199z" fill="#324a5e" transform="matrix(-.7071 .7071 -.7071 -.7071 734.668 52.3601)"/><path d="m384.6 151.2c-17-17-44.4-17-61.4 0l61.4 61.4c17-17 17-44.5 0-61.4z" fill="#ffd05b"/><path d="m243.1 139.6h17.8v23.7h-17.8z" fill="#2b3b4e"/><path d="m268 131.6h-32c-3.6 0-6.6 3-6.6 6.6 0 3.6 3 6.6 6.6 6.6h32c3.6 0 6.6-3 6.6-6.6 0-3.7-3-6.6-6.6-6.6z" fill="#e6e9ee"/><path d="m333.7 415.4-8.2 5.7-39.8-46 19.6-13.4z" fill="#324a5e"/><circle cx="330.1" cy="419" fill="#324a5e" r="10.2"/><path d="m170.3 415.4 8.2 5.7 39.8-46-19.6-13.4z" fill="#324a5e"/><circle cx="173.9" cy="419" fill="#324a5e" r="10.2"/><circle cx="252" cy="282.7" fill="#54c0eb" r="126.1"/><circle cx="252" cy="282.7" fill="#fff" r="107.9"/><g fill="#324a5e"><circle cx="252" cy="189.5" r="6.9"/><circle cx="252" cy="375.8" r="6.9"/><circle cx="345.1" cy="282.7" r="6.9"/><circle cx="158.9" cy="282.7" r="6.9"/><circle cx="205.4" cy="202" r="6.9"/><circle cx="298.6" cy="363.3" r="6.9"/><circle cx="332.7" cy="236.1" r="6.9"/><circle cx="171.3" cy="329.2" r="6.9"/><circle cx="171.3" cy="236.1" r="6.9"/><circle cx="332.7" cy="329.2" r="6.9"/><circle cx="298.6" cy="202" r="6.9"/><circle cx="205.4" cy="363.3" r="6.9"/></g><path d="m249.8 222.9h4.4v58.9h-4.4z" fill="#f9b54c"/><path d="m252 209.5c0-.1 0-.1 0 0-2.1 4-5.9 17.2-12.3 22.4l12.3-3.9 12.3 3.9c-6.4-5.2-10.2-18.5-12.3-22.4z" fill="#ffd05b"/><path d="m249.8 222.9h4.4v58.9h-4.4z" fill="#f9b54c"/><path d="m252 209.5c0-.1 0-.1 0 0-2.1 4-5.9 17.2-12.3 22.4l12.3-3.9 12.3 3.9c-6.4-5.2-10.2-18.5-12.3-22.4z" fill="#ffd05b"/><path d="m281 322.5-27.1-41.1-3.7 2.4 27.2 41.1z" fill="#f9b54c"/><path d="m286.6 334.9c-.4-4.5-4.6-17.6-2.1-25.5l-8.1 10-12.4 3.6c8.2.8 18.7 9.8 22.6 11.9z" fill="#ffd05b"/><path d="m252.8 283.5-52.5 50.9 50.9-52.5z" fill="#f9b54c"/><circle cx="252" cy="282.7" fill="#ffd05b" r="9.7"/></svg>