<?xml version="1.0" encoding="UTF-8"?>
<svg width="44px" height="26px" viewBox="0 0 44 26" version="1.1" xmlns="http://www.w3.org/2000/svg" xmlns:xlink="http://www.w3.org/1999/xlink">
    <defs></defs>
    <g id="Page-1" stroke="none" stroke-width="1" fill="none" fill-rule="evenodd">
        <g id="Artboard" transform="translate(-859.000000, -731.000000)" fill-rule="nonzero" fill="#131313">
            <g id="mail" transform="translate(859.800199, 731.461267)">
                <path d="M14.5989485,16.6063091 L6.81289837,16.6063091 C6.22892371,16.6063091 5.83966302,16.9956534 5.83966302,17.5795445 C5.83966302,18.1634355 6.22900735,18.5527798 6.81289837,18.5527798 L14.5990321,18.5527798 C15.1830068,18.5527798 15.5722675,18.1634355 15.5722675,17.5795445 C15.5722675,16.9956534 15.1829231,16.6063091 14.5989485,16.6063091 Z" id="Shape"></path>
                <path d="M11.6791588,11.7400487 L3.89302504,11.7400487 C3.30905038,11.7400487 2.91978969,12.129393 2.91978969,12.7132841 C2.91978969,13.2971751 3.30913402,13.6865194 3.89302504,13.6865194 L11.6791588,13.6865194 C12.2631334,13.6865194 12.6523941,13.2971751 12.6523941,12.7132841 C12.6523941,12.129393 12.2631334,11.7400487 11.6791588,11.7400487 Z" id="Shape"></path>
                <path d="M8.75936908,6.87370467 L0.973235351,6.87370467 C0.389344324,6.87370467 0,7.26296536 0,7.84694003 C0,8.43091469 0.389344324,8.82017538 0.973235351,8.82017538 L8.75936908,8.82017538 C9.34334374,8.82017538 9.73260443,8.43083105 9.73260443,7.84694003 C9.73260443,7.263049 9.34334374,6.87370467 8.75936908,6.87370467 Z" id="Shape"></path>
                <path d="M38.7359546,4.34317567 C38.4439673,3.95383134 37.7627193,3.85655799 37.373375,4.14854532 L27.0567959,12.032036 C25.9862035,12.810641 24.5262669,12.810641 23.4556745,12.032036 L13.1390954,4.14854532 C12.7497511,3.85655799 12.0685031,3.85655799 11.7765158,4.34317567 C11.4845284,4.73251999 11.4845284,5.41376801 11.9711461,5.70575534 L22.3850822,13.5892461 C23.2610442,14.2704941 24.3316365,14.5624814 25.3048719,14.5624814 C26.2781072,14.5624814 27.4460566,14.2704941 28.2246616,13.5892461 L38.5413243,5.70575534 C38.9306686,5.41376801 39.027942,4.73251999 38.7359546,4.34317567 Z" id="Shape"></path>
                <path d="M39.903904,0.0608062994 L8.75936908,0.0608062994 C8.17539441,0.0608062994 7.78613373,0.450150624 7.78613373,1.03404165 C7.78613373,1.61793268 8.17539441,2.00736064 8.75936908,2.00736064 L39.903904,2.00736064 C40.4878786,2.00736064 40.8771393,2.39670497 40.8771393,2.98059599 L40.8771393,22.4458885 C40.8771393,23.0298632 40.487795,23.4191238 39.903904,23.4191238 L8.75936908,23.4191238 C8.17539441,23.4191238 7.78613373,23.8084682 7.78613373,24.3923592 C7.78613373,24.9763339 8.17547805,25.3655945 8.75936908,25.3655945 L39.903904,25.3655945 C41.558471,25.3655945 42.8236937,24.1003719 42.8236937,22.4458048 L42.8236937,2.98059599 C42.8236937,1.32611262 41.558471,0.0608062994 39.903904,0.0608062994 Z" id="Shape"></path>
                <path d="M38.6386813,19.8180861 L32.7991019,13.9785067 C32.4097576,13.5891624 31.8258666,13.5891624 31.4365222,13.9785067 C31.0471779,14.3678511 31.0471779,14.9517421 31.4365222,15.3410864 L37.2761016,21.1806658 C37.470732,21.3752961 37.7627193,21.4726531 37.9573496,21.4726531 C38.15198,21.4726531 38.4439673,21.3752961 38.6386813,21.1806658 C39.027942,20.7914051 39.027942,20.2074305 38.6386813,19.8180861 Z" id="Shape"></path>
            </g>
        </g>
    </g>
</svg>