<?xml version="1.0" encoding="UTF-8"?>
<svg width="39px" height="35px" viewBox="0 0 39 35" version="1.1" xmlns="http://www.w3.org/2000/svg" xmlns:xlink="http://www.w3.org/1999/xlink">
    <!-- Generator: Sketch 47.1 (45422) - http://www.bohemiancoding.com/sketch -->
    <title>fist</title>
    <desc>Created with Sketch.</desc>
    <defs></defs>
    <g id="Page-1" stroke="none" stroke-width="1" fill="none" fill-rule="evenodd">
        <g id="Artboard" transform="translate(-942.000000, -705.000000)" fill-rule="nonzero" fill="#121212">
            <g id="Group" transform="translate(839.500000, 687.123455)">
                <g id="Group-6" transform="translate(92.000000, 6.000000)">
                    <g id="fist" transform="translate(11.045961, 12.000000)">
                        <path d="M37.5643684,22.0161719 L34.0832925,13.0895026 C33.3416042,5.78875747 27.1583857,0.07245893 19.6651505,0.07245893 L14.4928018,0.07245893 C6.50149601,0.07245893 0,6.57395494 0,14.5652607 L0,25.3210101 C0,28.1577434 2.30785078,30.4655942 5.14458403,30.4655942 C6.73546386,30.4655942 8.15975587,29.7396505 9.10409211,28.6018083 C10.0484284,29.7396505 11.4727204,30.4655942 13.0636002,30.4655942 C14.433548,30.4655942 15.6790628,29.9262153 16.6020677,29.0501056 C16.562283,29.2962628 16.5399359,29.5456366 16.5399359,29.7961955 C16.5399359,32.3566368 18.6229608,34.4394924 21.1832328,34.4394924 L29.6329936,34.4394924 C33.5869149,34.4394924 37.007552,31.7578348 37.9510418,27.9180194 C38.4353993,25.9475767 38.301655,23.9067066 37.5643684,22.0161719 Z M15.8380323,25.3210101 C15.8380323,26.8507739 14.5933639,28.0954422 13.0636002,28.0954422 C11.5336671,28.0954422 10.2891681,26.8507739 10.2891681,25.3210101 L10.2891681,15.8854353 C10.2891681,15.2309348 9.75859263,14.7003594 9.10409211,14.7003594 C8.44959159,14.7003594 7.91901615,15.2309348 7.91901615,15.8854353 L7.91901615,25.3210101 C7.91901615,26.8507739 6.6743478,28.0954422 5.14458403,28.0954422 C3.61482027,28.0954422 2.37015192,26.8507739 2.37015192,25.3210101 L2.37015192,14.5652607 C2.37015192,7.88075513 7.8082962,2.44261085 14.4928018,2.44261085 L19.6651505,2.44261085 C26.3496561,2.44261085 31.7878003,7.88075513 31.7878003,14.5652607 L31.7878003,25.3210101 C31.7878003,26.8507739 30.543132,28.0954422 29.0133682,28.0954422 C27.4836044,28.0954422 26.2389361,26.8507739 26.2389361,25.3210101 L26.2389361,15.8854353 C26.2389361,15.2309348 25.7083607,14.7003594 25.0538601,14.7003594 C24.3993596,14.7003594 23.8687842,15.2309348 23.8687842,15.8854353 L23.8687842,25.3210101 C23.8687842,26.8507739 22.6241158,28.0954422 21.0943521,28.0954422 C19.5645883,28.0954422 18.3199199,26.8507739 18.3199199,25.3210101 L18.3199199,15.8854353 C18.3199199,15.2309348 17.7893445,14.7003594 17.134844,14.7003594 C17.1160521,14.7003594 17.0975987,14.7023909 17.0789761,14.7032374 C17.0603535,14.7023909 17.0419002,14.7003594 17.0231083,14.7003594 C16.3686077,14.7003594 15.8380323,15.2309348 15.8380323,15.8854353 L15.8380323,25.3210101 L15.8380323,25.3210101 Z M35.649455,27.3525689 C34.9670205,30.1298791 32.4929205,32.0695098 29.6331629,32.0695098 L21.1834021,32.0695098 C19.99257,32.0695098 19.0145438,31.1485365 18.9195684,29.9817446 C19.5806715,30.291388 20.3174501,30.4655942 21.0943521,30.4655942 C22.6852319,30.4655942 24.1095239,29.7396505 25.0538601,28.6018083 C25.9981964,29.7396505 27.4224884,30.4655942 29.0133682,30.4655942 C31.8501015,30.4655942 34.1579522,28.1577434 34.1579522,25.3210101 L34.1579522,19.8043122 L35.3562333,22.8772142 C35.9152506,24.3108175 36.0166592,25.8583574 35.649455,27.3525689 Z" id="Shape"></path>
                    </g>
                </g>
            </g>
        </g>
    </g>
</svg>