<svg xmlns="http://www.w3.org/2000/svg" height="24dp" width="24dp" viewBox="0 0 100 125">
    <path fill="#FFFFFFFF" d="M98.011,22.625c-0.183,-0.121 -2.211,-1.183 -17.128,-1.183H19.724c-14.918,0 -16.946,1.062 -17.129,1.183c-0.138,0.092 -0.199,0.263 -0.151,0.421s0.194,0.267 0.359,0.267h9.574c-0.506,0.486 -0.824,1.166 -0.824,1.921v48.495c0,1.473 1.198,2.671 2.672,2.671h72.156c1.474,0 2.672,-1.198 2.672,-2.671V25.234c0,-0.755 -0.318,-1.435 -0.824,-1.921h9.574c0.165,0 0.312,-0.108 0.359,-0.267S98.148,22.717 98.011,22.625zM88.303,25.234v48.495c0,1.06 -0.862,1.921 -1.922,1.921h-72.156c-1.06,0 -1.922,-0.862 -1.922,-1.921V25.234c0,-1.06 0.862,-1.921 1.922,-1.921h72.156C87.44,23.313 88.303,24.175 88.303,25.234zM86.381,22.563h-72.156H7.464c2.499,-0.203 6.352,-0.371 12.26,-0.371h61.159c5.914,0 9.769,0.168 12.267,0.371H86.381z"/>
    <path fill="#FFFFFFFF" d="M20.564,35.51h3.101c0.223,0 0.404,-0.181 0.404,-0.404v-2.831c0,-0.223 -0.181,-0.404 -0.404,-0.404H20.564c-0.223,0 -0.404,0.181 -0.404,0.404v2.831C20.16,35.329 20.341,35.51 20.564,35.51zM20.91,32.62h2.41v2.14H20.91V32.62z"/>
    <path fill="#FFFFFFFF" d="M20.564,31.423h59.477c0.223,0 0.405,-0.181 0.405,-0.404v-1.575c0,-0.223 -0.181,-0.404 -0.405,-0.404H20.564c-0.223,0 -0.404,0.181 -0.404,0.404v1.575C20.16,31.242 20.341,31.423 20.564,31.423zM20.91,29.789h58.786v0.884H20.91V29.789z"/>
    <path fill="#FFFFFFFF" d="M28.263,35.106v-2.831c0,-0.223 -0.181,-0.404 -0.404,-0.404h-3.017c-0.223,0 -0.405,0.181 -0.405,0.404v2.831c0,0.223 0.181,0.404 0.405,0.404h3.017C28.082,35.51 28.263,35.329 28.263,35.106zM27.513,34.76h-2.326v-2.14h2.326V34.76z"/>
    <path fill="#FFFFFFFF" d="M32.039,31.87H29.023c-0.223,0 -0.405,0.181 -0.405,0.404v2.831c0,0.223 0.181,0.404 0.405,0.404h3.017c0.223,0 0.405,-0.181 0.405,-0.404v-2.831C32.444,32.051 32.263,31.87 32.039,31.87zM31.694,34.76H29.368v-2.14h2.326V34.76z"/>
    <path fill="#FFFFFFFF" d="M36.22,31.87h-3.017c-0.223,0 -0.404,0.181 -0.404,0.404v2.831c0,0.223 0.181,0.404 0.404,0.404h3.017c0.223,0 0.405,-0.181 0.405,-0.404v-2.831C36.625,32.051 36.444,31.87 36.22,31.87zM35.875,34.76h-2.326v-2.14H35.875V34.76z"/>
    <path fill="#FFFFFFFF" d="M40.402,31.87h-3.017c-0.223,0 -0.404,0.181 -0.404,0.404v2.831c0,0.223 0.181,0.404 0.404,0.404h3.017c0.223,0 0.404,-0.181 0.404,-0.404v-2.831C40.806,32.051 40.625,31.87 40.402,31.87zM40.056,34.76h-2.326v-2.14h2.326V34.76z"/>
    <path fill="#FFFFFFFF" d="M44.583,31.87H41.566c-0.223,0 -0.405,0.181 -0.405,0.404v2.831c0,0.223 0.181,0.404 0.405,0.404h3.017c0.223,0 0.404,-0.181 0.404,-0.404v-2.831C44.987,32.051 44.806,31.87 44.583,31.87zM44.237,34.76H41.911v-2.14h2.326V34.76z"/>
    <path fill="#FFFFFFFF" d="M48.764,31.87h-3.017c-0.223,0 -0.405,0.181 -0.405,0.404v2.831c0,0.223 0.181,0.404 0.405,0.404h3.017c0.223,0 0.405,-0.181 0.405,-0.404v-2.831C49.168,32.051 48.987,31.87 48.764,31.87zM48.418,34.76h-2.326v-2.14h2.326V34.76z"/>
    <path fill="#FFFFFFFF" d="M52.945,31.87h-3.017c-0.223,0 -0.404,0.181 -0.404,0.404v2.831c0,0.223 0.181,0.404 0.404,0.404h3.017c0.223,0 0.405,-0.181 0.405,-0.404v-2.831C53.349,32.051 53.168,31.87 52.945,31.87zM52.599,34.76h-2.326v-2.14h2.326V34.76z"/>
    <path fill="#FFFFFFFF" d="M57.126,31.87h-3.017c-0.223,0 -0.404,0.181 -0.404,0.404v2.831c0,0.223 0.181,0.404 0.404,0.404h3.017c0.223,0 0.405,-0.181 0.405,-0.404v-2.831C57.531,32.051 57.349,31.87 57.126,31.87zM56.781,34.76H54.455v-2.14h2.326V34.76z"/>
    <path fill="#FFFFFFFF" d="M61.307,31.87h-3.017c-0.223,0 -0.404,0.181 -0.404,0.404v2.831c0,0.223 0.181,0.404 0.404,0.404h3.017c0.223,0 0.404,-0.181 0.404,-0.404v-2.831C61.712,32.051 61.531,31.87 61.307,31.87zM60.962,34.76h-2.326v-2.14h2.326V34.76z"/>
    <path fill="#FFFFFFFF" d="M65.488,31.87h-3.017c-0.223,0 -0.405,0.181 -0.405,0.404v2.831c0,0.223 0.181,0.404 0.405,0.404h3.017c0.223,0 0.404,-0.181 0.404,-0.404v-2.831C65.893,32.051 65.712,31.87 65.488,31.87zM65.143,34.76h-2.326v-2.14h2.326V34.76z"/>
    <path fill="#FFFFFFFF" d="M69.669,31.87H66.653c-0.223,0 -0.405,0.181 -0.405,0.404v2.831c0,0.223 0.181,0.404 0.405,0.404h3.017c0.223,0 0.405,-0.181 0.405,-0.404v-2.831C70.074,32.051 69.893,31.87 69.669,31.87zM69.324,34.76h-2.326v-2.14h2.326V34.76z"/>
    <path fill="#FFFFFFFF" d="M73.851,31.87h-3.017c-0.223,0 -0.404,0.181 -0.404,0.404v2.831c0,0.223 0.181,0.404 0.404,0.404h3.017c0.223,0 0.405,-0.181 0.405,-0.404v-2.831C74.255,32.051 74.074,31.87 73.851,31.87zM73.505,34.76h-2.326v-2.14h2.326V34.76z"/>
    <path fill="#FFFFFFFF" d="M26.932,39.589h3.017c0.223,0 0.405,-0.181 0.405,-0.404v-2.831c0,-0.223 -0.181,-0.404 -0.405,-0.404h-3.017c-0.223,0 -0.405,0.181 -0.405,0.404v2.831C26.527,39.408 26.709,39.589 26.932,39.589zM27.277,36.699h2.326v2.14h-2.326V36.699z"/>
    <path fill="#FFFFFFFF" d="M20.564,39.589h5.166c0.223,0 0.404,-0.181 0.404,-0.404v-2.831c0,-0.223 -0.181,-0.404 -0.404,-0.404H20.564c-0.223,0 -0.404,0.181 -0.404,0.404v2.831C20.16,39.408 20.341,39.589 20.564,39.589zM20.91,36.699h4.474v2.14H20.91V36.699z"/>
    <path fill="#FFFFFFFF" d="M30.709,36.353v2.831c0,0.223 0.181,0.404 0.404,0.404h3.017c0.223,0 0.405,-0.181 0.405,-0.404v-2.831c0,-0.223 -0.181,-0.404 -0.405,-0.404h-3.017C30.89,35.949 30.709,36.13 30.709,36.353zM31.459,36.699h2.326v2.14h-2.326V36.699z"/>
    <path fill="#FFFFFFFF" d="M34.89,36.353v2.831c0,0.223 0.181,0.404 0.404,0.404h3.017c0.223,0 0.404,-0.181 0.404,-0.404v-2.831c0,-0.223 -0.181,-0.404 -0.404,-0.404h-3.017C35.071,35.949 34.89,36.13 34.89,36.353zM35.64,36.699h2.326v2.14h-2.326V36.699z"/>
    <path fill="#FFFFFFFF" d="M39.071,36.353v2.831c0,0.223 0.181,0.404 0.404,0.404h3.017c0.223,0 0.404,-0.181 0.404,-0.404v-2.831c0,-0.223 -0.181,-0.404 -0.404,-0.404h-3.017C39.252,35.949 39.071,36.13 39.071,36.353zM39.821,36.699h2.326v2.14h-2.326V36.699z"/>
    <path fill="#FFFFFFFF" d="M43.252,36.353v2.831c0,0.223 0.181,0.404 0.405,0.404h3.017c0.223,0 0.404,-0.181 0.404,-0.404v-2.831c0,-0.223 -0.181,-0.404 -0.404,-0.404h-3.017C43.433,35.949 43.252,36.13 43.252,36.353zM44.002,36.699h2.326v2.14h-2.326V36.699z"/>
    <path fill="#FFFFFFFF" d="M47.433,36.353v2.831c0,0.223 0.181,0.404 0.405,0.404h3.017c0.223,0 0.405,-0.181 0.405,-0.404v-2.831c0,-0.223 -0.181,-0.404 -0.405,-0.404h-3.017C47.614,35.949 47.433,36.13 47.433,36.353zM48.183,36.699h2.326v2.14h-2.326V36.699z"/>
    <path fill="#FFFFFFFF" d="M51.614,36.353v2.831c0,0.223 0.181,0.404 0.404,0.404h3.017c0.223,0 0.405,-0.181 0.405,-0.404v-2.831c0,-0.223 -0.181,-0.404 -0.405,-0.404h-3.017C51.795,35.949 51.614,36.13 51.614,36.353zM52.364,36.699h2.326v2.14h-2.326V36.699z"/>
    <path fill="#FFFFFFFF" d="M55.795,36.353v2.831c0,0.223 0.181,0.404 0.404,0.404h3.017c0.223,0 0.404,-0.181 0.404,-0.404v-2.831c0,-0.223 -0.181,-0.404 -0.404,-0.404h-3.017C55.976,35.949 55.795,36.13 55.795,36.353zM56.545,36.699h2.326v2.14h-2.326V36.699z"/>
    <path fill="#FFFFFFFF" d="M59.976,36.353v2.831c0,0.223 0.181,0.404 0.405,0.404h3.017c0.223,0 0.404,-0.181 0.404,-0.404v-2.831c0,-0.223 -0.181,-0.404 -0.404,-0.404h-3.017C60.158,35.949 59.976,36.13 59.976,36.353zM60.726,36.699h2.326v2.14h-2.326V36.699z"/>
    <path fill="#FFFFFFFF" d="M64.158,36.353v2.831c0,0.223 0.181,0.404 0.405,0.404h3.017c0.223,0 0.404,-0.181 0.404,-0.404v-2.831c0,-0.223 -0.181,-0.404 -0.404,-0.404h-3.017C64.339,35.949 64.158,36.13 64.158,36.353zM64.908,36.699h2.326v2.14h-2.326V36.699z"/>
    <path fill="#FFFFFFFF" d="M68.339,36.353v2.831c0,0.223 0.181,0.404 0.405,0.404h3.017c0.223,0 0.405,-0.181 0.405,-0.404v-2.831c0,-0.223 -0.181,-0.404 -0.405,-0.404h-3.017C68.52,35.949 68.339,36.13 68.339,36.353zM69.089,36.699h2.326v2.14h-2.326V36.699z"/>
    <path fill="#FFFFFFFF" d="M76.346,39.184v-2.831c0,-0.223 -0.181,-0.404 -0.405,-0.404h-3.017c-0.223,0 -0.404,0.181 -0.404,0.404v2.831c0,0.223 0.181,0.404 0.404,0.404h3.017C76.165,39.589 76.346,39.408 76.346,39.184zM75.596,38.839h-2.326v-2.14h2.326V38.839z"/>
    <path fill="#FFFFFFFF" d="M80.042,35.949h-3.017c-0.223,0 -0.404,0.181 -0.404,0.404v2.831c0,0.223 0.181,0.404 0.404,0.404h3.017c0.223,0 0.405,-0.181 0.405,-0.404v-2.831C80.446,36.13 80.265,35.949 80.042,35.949zM79.696,38.839h-2.326v-2.14h2.326V38.839z"/>
    <path fill="#FFFFFFFF" d="M27.977,43.684h3.017c0.223,0 0.405,-0.181 0.405,-0.404v-2.831c0,-0.223 -0.181,-0.404 -0.405,-0.404h-3.017c-0.223,0 -0.404,0.181 -0.404,0.404v2.831C27.572,43.503 27.753,43.684 27.977,43.684zM28.322,40.794h2.326v2.14h-2.326V40.794z"/>
    <path fill="#FFFFFFFF" d="M20.564,43.684h6.233c0.223,0 0.404,-0.181 0.404,-0.404v-2.831c0,-0.223 -0.181,-0.404 -0.404,-0.404H20.564c-0.223,0 -0.404,0.181 -0.404,0.404v2.831C20.16,43.503 20.341,43.684 20.564,43.684zM20.91,40.794h5.542v2.14H20.91V40.794z"/>
    <path fill="#FFFFFFFF" d="M35.579,43.28v-2.831c0,-0.223 -0.181,-0.404 -0.405,-0.404H32.158c-0.223,0 -0.404,0.181 -0.404,0.404v2.831c0,0.223 0.181,0.404 0.404,0.404h3.017C35.398,43.684 35.579,43.503 35.579,43.28zM34.829,42.934H32.504v-2.14h2.326V42.934z"/>
    <path fill="#FFFFFFFF" d="M39.76,43.28v-2.831c0,-0.223 -0.181,-0.404 -0.404,-0.404h-3.017c-0.223,0 -0.404,0.181 -0.404,0.404v2.831c0,0.223 0.181,0.404 0.404,0.404h3.017C39.579,43.684 39.76,43.503 39.76,43.28zM39.01,42.934h-2.326v-2.14h2.326V42.934z"/>
    <path fill="#FFFFFFFF" d="M43.537,40.044h-3.017c-0.223,0 -0.405,0.181 -0.405,0.404v2.831c0,0.223 0.181,0.404 0.405,0.404h3.017c0.223,0 0.404,-0.181 0.404,-0.404v-2.831C43.942,40.225 43.76,40.044 43.537,40.044zM43.192,42.934h-2.326v-2.14h2.326V42.934z"/>
    <path fill="#FFFFFFFF" d="M47.718,40.044H44.701c-0.223,0 -0.405,0.181 -0.405,0.404v2.831c0,0.223 0.181,0.404 0.405,0.404h3.017c0.223,0 0.405,-0.181 0.405,-0.404v-2.831C48.123,40.225 47.942,40.044 47.718,40.044zM47.373,42.934H45.047v-2.14h2.326V42.934z"/>
    <path fill="#FFFFFFFF" d="M51.899,40.044h-3.017c-0.223,0 -0.404,0.181 -0.404,0.404v2.831c0,0.223 0.181,0.404 0.404,0.404h3.017c0.223,0 0.405,-0.181 0.405,-0.404v-2.831C52.304,40.225 52.123,40.044 51.899,40.044zM51.554,42.934h-2.326v-2.14h2.326V42.934z"/>
    <path fill="#FFFFFFFF" d="M56.08,43.684c0.223,0 0.404,-0.181 0.404,-0.404v-2.831c0,-0.223 -0.181,-0.404 -0.404,-0.404h-3.017c-0.223,0 -0.404,0.181 -0.404,0.404v2.831c0,0.223 0.181,0.404 0.404,0.404H56.08zM53.409,40.794h2.326v2.14h-2.326V40.794z"/>
    <path fill="#FFFFFFFF" d="M60.666,43.28v-2.831c0,-0.223 -0.181,-0.404 -0.404,-0.404H57.245c-0.223,0 -0.405,0.181 -0.405,0.404v2.831c0,0.223 0.181,0.404 0.405,0.404h3.017C60.485,43.684 60.666,43.503 60.666,43.28zM59.916,42.934H57.59v-2.14h2.326V42.934z"/>
    <path fill="#FFFFFFFF" d="M64.443,43.684c0.223,0 0.404,-0.181 0.404,-0.404v-2.831c0,-0.223 -0.181,-0.404 -0.404,-0.404h-3.017c-0.223,0 -0.405,0.181 -0.405,0.404v2.831c0,0.223 0.181,0.404 0.405,0.404H64.443zM61.771,40.794h2.326v2.14h-2.326V40.794z"/>
    <path fill="#FFFFFFFF" d="M69.028,43.28v-2.831c0,-0.223 -0.181,-0.404 -0.405,-0.404h-3.017c-0.223,0 -0.405,0.181 -0.405,0.404v2.831c0,0.223 0.181,0.404 0.405,0.404h3.017C68.847,43.684 69.028,43.503 69.028,43.28zM68.278,42.934h-2.326v-2.14h2.326V42.934z"/>
    <path fill="#FFFFFFFF" d="M73.209,43.28v-2.831c0,-0.223 -0.181,-0.404 -0.405,-0.404h-3.017c-0.223,0 -0.404,0.181 -0.404,0.404v2.831c0,0.223 0.181,0.404 0.404,0.404h3.017C73.028,43.684 73.209,43.503 73.209,43.28zM72.459,42.934H70.134v-2.14h2.326V42.934z"/>
    <path fill="#FFFFFFFF" d="M30.063,47.716h3.017c0.223,0 0.405,-0.181 0.405,-0.404v-2.831c0,-0.223 -0.181,-0.404 -0.405,-0.404H30.063c-0.223,0 -0.405,0.181 -0.405,0.404v2.831C29.658,47.535 29.839,47.716 30.063,47.716zM30.408,44.826h2.326v2.14H30.408V44.826z"/>
    <path fill="#FFFFFFFF" d="M20.564,47.716h8.344c0.223,0 0.405,-0.181 0.405,-0.404v-2.831c0,-0.223 -0.181,-0.404 -0.405,-0.404H20.564c-0.223,0 -0.404,0.181 -0.404,0.404v2.831C20.16,47.535 20.341,47.716 20.564,47.716zM20.91,44.826h7.653v2.14H20.91V44.826z"/>
    <path fill="#FFFFFFFF" d="M37.665,44.48c0,-0.223 -0.181,-0.404 -0.405,-0.404h-3.017c-0.223,0 -0.404,0.181 -0.404,0.404v2.831c0,0.223 0.181,0.404 0.404,0.404h3.017c0.223,0 0.405,-0.181 0.405,-0.404V44.48zM36.915,46.966h-2.326v-2.14h2.326V46.966z"/>
    <path fill="#FFFFFFFF" d="M38.02,44.48v2.831c0,0.223 0.181,0.404 0.404,0.404h3.017c0.223,0 0.404,-0.181 0.404,-0.404v-2.831c0,-0.223 -0.181,-0.404 -0.404,-0.404h-3.017C38.201,44.076 38.02,44.257 38.02,44.48zM38.77,44.826h2.326v2.14h-2.326V44.826z"/>
    <path fill="#FFFFFFFF" d="M42.201,44.48v2.831c0,0.223 0.181,0.404 0.405,0.404h3.017c0.223,0 0.404,-0.181 0.404,-0.404v-2.831c0,-0.223 -0.181,-0.404 -0.404,-0.404H42.606C42.382,44.076 42.201,44.257 42.201,44.48zM42.951,44.826h2.326v2.14h-2.326V44.826z"/>
    <path fill="#FFFFFFFF" d="M46.382,44.48v2.831c0,0.223 0.181,0.404 0.405,0.404h3.017c0.223,0 0.404,-0.181 0.404,-0.404v-2.831c0,-0.223 -0.181,-0.404 -0.404,-0.404h-3.017C46.564,44.076 46.382,44.257 46.382,44.48zM47.132,44.826h2.326v2.14h-2.326V44.826z"/>
    <path fill="#FFFFFFFF" d="M50.564,44.48v2.831c0,0.223 0.181,0.404 0.404,0.404h3.017c0.223,0 0.405,-0.181 0.405,-0.404v-2.831c0,-0.223 -0.181,-0.404 -0.405,-0.404h-3.017C50.745,44.076 50.564,44.257 50.564,44.48zM51.314,44.826h2.326v2.14h-2.326V44.826z"/>
    <path fill="#FFFFFFFF" d="M58.571,44.48c0,-0.223 -0.181,-0.404 -0.405,-0.404h-3.017c-0.223,0 -0.404,0.181 -0.404,0.404v2.831c0,0.223 0.181,0.404 0.404,0.404h3.017c0.223,0 0.405,-0.181 0.405,-0.404V44.48zM57.821,46.966H55.495v-2.14h2.326V46.966z"/>
    <path fill="#FFFFFFFF" d="M58.926,44.48v2.831c0,0.223 0.181,0.404 0.404,0.404h3.017c0.223,0 0.404,-0.181 0.404,-0.404v-2.831c0,-0.223 -0.181,-0.404 -0.404,-0.404h-3.017C59.107,44.076 58.926,44.257 58.926,44.48zM59.676,44.826h2.326v2.14h-2.326V44.826z"/>
    <path fill="#FFFFFFFF" d="M66.933,47.312v-2.831c0,-0.223 -0.181,-0.404 -0.404,-0.404h-3.017c-0.223,0 -0.405,0.181 -0.405,0.404v2.831c0,0.223 0.181,0.404 0.405,0.404h3.017C66.752,47.716 66.933,47.535 66.933,47.312zM66.183,46.966h-2.326v-2.14h2.326V46.966z"/>
    <path fill="#FFFFFFFF" d="M67.693,47.716h3.017c0.223,0 0.405,-0.181 0.405,-0.404v-2.831c0,-0.223 -0.181,-0.404 -0.405,-0.404H67.693c-0.223,0 -0.405,0.181 -0.405,0.404v2.831C67.288,47.535 67.469,47.716 67.693,47.716zM68.038,44.826h2.326v2.14h-2.326V44.826z"/>
    <path fill="#FFFFFFFF" d="M71.679,48.146h-3.017c-0.223,0 -0.405,0.181 -0.405,0.404v2.831c0,0.223 0.181,0.404 0.405,0.404h3.017c0.223,0 0.404,-0.181 0.404,-0.404v-2.831C72.084,48.327 71.903,48.146 71.679,48.146zM71.334,51.036h-2.326v-2.14h2.326V51.036z"/>
    <path fill="#FFFFFFFF" d="M75.86,48.146H72.844c-0.223,0 -0.405,0.181 -0.405,0.404v2.831c0,0.223 0.181,0.404 0.405,0.404h3.017c0.223,0 0.405,-0.181 0.405,-0.404v-2.831C76.265,48.327 76.084,48.146 75.86,48.146zM75.515,51.036H73.189v-2.14h2.326V51.036z"/>
    <path fill="#FFFFFFFF" d="M59.33,51.786h4.04c0.223,0 0.405,-0.181 0.405,-0.404v-2.831c0,-0.223 -0.181,-0.404 -0.405,-0.404h-4.04c-0.223,0 -0.404,0.181 -0.404,0.404v2.831C58.926,51.605 59.107,51.786 59.33,51.786zM59.676,48.896h3.349v2.14h-3.349V48.896z"/>
    <path fill="#FFFFFFFF" d="M37.244,48.146h-4.041c-0.223,0 -0.404,0.181 -0.404,0.404v2.831c0,0.223 0.181,0.404 0.404,0.404h4.041c0.223,0 0.404,-0.181 0.404,-0.404v-2.831C37.649,48.327 37.468,48.146 37.244,48.146zM36.899,51.036h-3.349v-2.14h3.349V51.036z"/>
    <path fill="#FFFFFFFF" d="M32.017,48.146h-3.017c-0.223,0 -0.404,0.181 -0.404,0.404v2.831c0,0.223 0.181,0.404 0.404,0.404h3.017c0.223,0 0.404,-0.181 0.404,-0.404v-2.831C32.422,48.327 32.241,48.146 32.017,48.146zM31.672,51.036h-2.326v-2.14h2.326V51.036z"/>
    <path fill="#FFFFFFFF" d="M27.838,48.146h-3.017c-0.223,0 -0.405,0.181 -0.405,0.404v2.831c0,0.223 0.181,0.404 0.405,0.404h3.017c0.223,0 0.405,-0.181 0.405,-0.404v-2.831C28.242,48.327 28.061,48.146 27.838,48.146zM27.492,51.036h-2.326v-2.14h2.326V51.036z"/>
    <path fill="#FFFFFFFF" d="M20.564,51.786h3.017c0.223,0 0.404,-0.181 0.404,-0.404v-2.831c0,-0.223 -0.181,-0.404 -0.404,-0.404H20.564c-0.223,0 -0.404,0.181 -0.404,0.404v2.831C20.16,51.605 20.341,51.786 20.564,51.786zM20.91,48.896h2.326v2.14H20.91V48.896z"/>
    <path fill="#FFFFFFFF" d="M38.425,51.786h19.725c0.223,0 0.405,-0.181 0.405,-0.404v-2.831c0,-0.223 -0.181,-0.404 -0.405,-0.404H38.425c-0.223,0 -0.404,0.181 -0.404,0.404v2.831C38.02,51.605 38.201,51.786 38.425,51.786zM38.77,48.896h19.034v2.14H38.77V48.896z"/>
    <path fill="#FFFFFFFF" d="M67.552,48.146h-3.017c-0.223,0 -0.404,0.181 -0.404,0.404v2.831c0,0.223 0.181,0.404 0.404,0.404h3.017c0.223,0 0.405,-0.181 0.405,-0.404v-2.831C67.956,48.327 67.775,48.146 67.552,48.146zM67.206,51.036h-2.326v-2.14h2.326V51.036z"/>
    <path fill="#FFFFFFFF" d="M80.042,48.146h-3.017c-0.223,0 -0.404,0.181 -0.404,0.404v2.831c0,0.223 0.181,0.404 0.404,0.404h3.017c0.223,0 0.405,-0.181 0.405,-0.404v-2.831C80.446,48.327 80.265,48.146 80.042,48.146zM79.696,51.036h-2.326v-2.14h2.326V51.036z"/>
    <path fill="#FFFFFFFF" d="M80.042,44.076h-8.168c-0.223,0 -0.404,0.181 -0.404,0.404v2.831c0,0.223 0.181,0.404 0.404,0.404h8.168c0.223,0 0.405,-0.181 0.405,-0.404v-2.831C80.446,44.257 80.265,44.076 80.042,44.076zM79.696,46.966h-7.477v-2.14h7.477V46.966z"/>
    <path fill="#FFFFFFFF" d="M80.042,40.044h-6.072c-0.223,0 -0.404,0.181 -0.404,0.404v2.831c0,0.223 0.181,0.404 0.404,0.404h6.072c0.223,0 0.405,-0.181 0.405,-0.404v-2.831C80.446,40.225 80.265,40.044 80.042,40.044zM79.696,42.934h-5.381v-2.14h5.381V42.934z"/>
    <path fill="#FFFFFFFF" d="M80.042,31.87h-5.058c-0.223,0 -0.405,0.181 -0.405,0.404v2.831c0,0.223 0.181,0.404 0.405,0.404h5.058c0.223,0 0.405,-0.181 0.405,-0.404v-2.831C80.446,32.051 80.265,31.87 80.042,31.87zM79.696,34.76h-4.368v-2.14h4.368V34.76z"/>
    <path fill="#FFFFFFFF" d="M66.838,52.768H33.768c-0.576,0 -1.044,0.467 -1.044,1.044v19.906c0,0.576 0.467,1.044 1.044,1.044h33.07c0.577,0 1.044,-0.467 1.044,-1.044V53.812C67.882,53.235 67.414,52.768 66.838,52.768zM67.132,73.718c0,0.162 -0.132,0.294 -0.294,0.294H33.768c-0.162,0 -0.294,-0.132 -0.294,-0.294V53.812c0,-0.162 0.132,-0.294 0.294,-0.294h33.07c0.162,0 0.294,0.132 0.294,0.294V73.718z"/>
</svg>
