<svg xmlns="http://www.w3.org/2000/svg"
    width="100dp"
    height="125dp"
    viewBox="0 0 100 125">
  <path
      fill="#FFFFFF"
      d="M93.327,59.826c-0.174,-0.051 -3.685,-0.805 -32.052,-6.73l-1.558,-0.325c-0.326,-0.069 -0.65,-0.048 -0.97,0.061l-0.496,0.168L45.578,22.792c-0.279,-0.691 -1.007,-1.388 -1.762,-1.333l-35.42,-0.554c-0.335,-0.003 -0.629,0.134 -0.831,0.374l-1.043,1.105c-0.068,0.071 -0.101,0.159 -0.119,0.248c-0.19,0.391 -0.189,0.859 0.012,1.36l8.551,21.366c-0.578,1.789 -5.581,17.289 -6.602,20.424c-0.081,0.249 0,0.53 0.215,0.753c0.187,0.192 0.435,0.297 0.684,0.297c0.082,0 0.164,-0.012 0.245,-0.035c0.955,-0.273 10.612,-3.12 12.559,-3.694l1.549,3.871c0.27,0.676 0.769,1.144 1.291,1.305c0.071,0.039 0.149,0.067 0.235,0.067c0.009,0 0.017,0 0.026,-0.001l0.053,-0.003c0.019,0.001 0.038,0.011 0.057,0.011c0.042,0 0.083,-0.016 0.125,-0.021l0.755,-0.039c0.013,-0.001 0.023,-0.007 0.036,-0.009c0.578,0.588 1.585,0.17 1.932,0.023c0.301,-0.128 2.56,-0.951 3.404,-1.258c0.068,-0.024 0.128,-0.063 0.176,-0.109c11.937,3.218 36.486,9.833 36.825,9.916c0.213,0.051 0.651,0.157 1.151,0.157c0.459,0 0.97,-0.089 1.404,-0.393c0.5,-0.35 12.004,-8.086 18.184,-12.242c2.556,-1.719 4.348,-2.924 4.398,-2.958c0.257,-0.179 0.393,-0.524 0.34,-0.86C93.954,60.209 93.698,59.935 93.327,59.826zM33.665,64.145c0.044,0.028 0.089,0.054 0.142,0.068l1.973,0.493l-1.191,0.44c-0.779,-0.201 -1.511,-0.389 -2.179,-0.561L33.665,64.145zM33.224,62.596l1.034,-0.355c0.033,0.018 0.063,0.041 0.101,0.052l0.867,0.248l-0.952,0.333c-0.013,-0.005 -0.023,-0.014 -0.036,-0.017L33.224,62.596zM36.388,63.192c0.033,0.02 0.064,0.044 0.103,0.055l1.776,0.54l-0.839,0.31c-0.016,-0.006 -0.029,-0.018 -0.046,-0.022l-2.051,-0.513L36.388,63.192zM35.872,61.686l0.995,-0.342c0.063,0.069 0.14,0.126 0.237,0.15l0.647,0.163l-0.914,0.32c-0.023,-0.01 -0.041,-0.027 -0.065,-0.034L35.872,61.686zM39.062,62.257l1.967,0.51l-1.209,0.446l-1.87,-0.568L39.062,62.257zM38.444,60.801l1.006,-0.346c0.055,0.046 0.118,0.082 0.191,0.102l0.717,0.188l-0.895,0.313L38.444,60.801zM41.522,61.397c0.055,0.047 0.117,0.085 0.191,0.105l1.579,0.431l-0.661,0.244c-0.038,-0.022 -0.075,-0.047 -0.119,-0.058l-1.752,-0.454L41.522,61.397zM41.07,59.898l0.44,-0.151c0.046,0.029 0.095,0.056 0.151,0.069l0.813,0.189l-0.476,0.167c-0.042,-0.026 -0.084,-0.053 -0.135,-0.066L41.07,59.898zM43.815,60.595c0.048,0.033 0.101,0.061 0.16,0.076l1.639,0.404l-0.755,0.279c-0.042,-0.026 -0.083,-0.053 -0.133,-0.067l-1.624,-0.443L43.815,60.595zM43.233,59.155l0.297,-0.102l0.474,-0.161c0.012,0.005 0.021,0.014 0.034,0.018l0.847,0.251l-0.686,0.24c-0.032,-0.015 -0.061,-0.036 -0.097,-0.044L43.233,59.155zM45.977,59.838l1.781,0.445l-0.48,0.177c-0.008,-0.002 -0.014,-0.008 -0.022,-0.011l-1.775,-0.438L45.977,59.838zM45.632,58.339l0.549,-0.186c0.031,0.017 0.059,0.039 0.095,0.05l0.735,0.215L46.5,58.597L45.632,58.339zM48.253,59.042c0.032,0.016 0.06,0.036 0.095,0.045l1.58,0.395l-0.505,0.186l-1.727,-0.432L48.253,59.042zM47.794,57.605l0.4,-0.136c0.033,0.018 0.063,0.04 0.101,0.05l0.733,0.193l-0.395,0.138L47.794,57.605zM52.203,57.66l1.638,0.377l-0.45,0.166c-0.002,-0.001 -0.004,-0.003 -0.006,-0.003l-1.58,-0.401L52.203,57.66zM51.888,56.216l0.273,-0.093c0.058,0.052 0.125,0.096 0.206,0.117l0.503,0.128l-0.24,0.084c-0.043,-0.029 -0.087,-0.056 -0.14,-0.071L51.888,56.216zM55.712,57.347l-0.223,0.082c-0.051,-0.035 -0.108,-0.063 -0.172,-0.078l-1.344,-0.31l0.195,-0.068c0.05,0.033 0.105,0.06 0.166,0.073L55.712,57.347zM54.451,55.766l0.082,0.02l-0.023,0.008C54.493,55.782 54.47,55.777 54.451,55.766zM54.008,59.041c0.061,0.045 0.129,0.081 0.209,0.095l1.805,0.316l-0.265,0.104l-1.987,-0.427L54.008,59.041zM56.018,58.299c0.034,0.015 0.066,0.036 0.105,0.043l1.811,0.357l-0.15,0.059c-0.021,-0.007 -0.039,-0.02 -0.061,-0.024l-1.957,-0.342L56.018,58.299zM55.904,56.366l0.323,-0.113c0.004,0.001 0.007,0.005 0.012,0.006l1.448,0.359l-0.37,0.137c-0.064,-0.06 -0.138,-0.11 -0.23,-0.13L55.904,56.366zM71.48,60.156l-0.217,0.106l-2.083,-0.536l0.186,-0.085c0.041,0.024 0.082,0.048 0.131,0.059L71.48,60.156zM70.819,58.978l0.291,-0.133c0.036,0.019 0.069,0.041 0.11,0.051l1.928,0.449l-0.281,0.137c-0.045,-0.028 -0.093,-0.054 -0.148,-0.067L70.819,58.978zM69.669,58.404c-0.033,-0.015 -0.063,-0.035 -0.1,-0.042l-1.767,-0.358l0.268,-0.113c0.048,0.032 0.101,0.06 0.161,0.073l1.595,0.368L69.669,58.404zM68.153,59.096l-0.181,0.083c-0.044,-0.026 -0.088,-0.051 -0.14,-0.063l-1.729,-0.397l0.093,-0.039c0.03,0.013 0.057,0.032 0.091,0.039L68.153,59.096zM67.085,57.221c-0.042,-0.023 -0.083,-0.048 -0.132,-0.059l-1.524,-0.339l0.307,-0.121l0.002,0.001l1.646,0.392L67.085,57.221zM65.535,57.871l-0.141,0.059c-0.032,-0.015 -0.06,-0.034 -0.096,-0.042l-1.651,-0.364l0.194,-0.077c0.055,0.042 0.118,0.074 0.19,0.09L65.535,57.871zM42.537,63.276l0.878,-0.324c0.06,0.06 0.131,0.11 0.219,0.134l1.894,0.498l-0.841,0.331c-0.06,-0.058 -0.129,-0.107 -0.215,-0.129L42.537,63.276zM43.224,64.491l-1.168,0.46c-0.024,-0.011 -0.043,-0.029 -0.069,-0.036l-2.157,-0.639l0.04,-0.015c0.019,0.002 0.039,0.009 0.058,0.009c0.131,0 0.244,-0.064 0.336,-0.154l0.678,-0.25c0.035,0.019 0.068,0.043 0.109,0.053L43.224,64.491zM58.464,60.841l-0.497,0.209c-0.001,0 -0.002,-0.002 -0.004,-0.002l-1.935,-0.525l0.53,-0.209c0.015,0.005 0.026,0.016 0.041,0.021L58.464,60.841zM58.102,59.707l0.346,-0.136l1.923,0.469l-0.446,0.187c-0.036,-0.02 -0.069,-0.044 -0.11,-0.055L58.102,59.707zM56.47,61.679l-0.631,0.265l-2.05,-0.539l0.682,-0.269c0,0 0,0 0.001,0L56.47,61.679zM54.325,62.58l-0.484,0.203c-0.024,-0.011 -0.044,-0.028 -0.07,-0.034l-2.018,-0.542l0.461,-0.181L54.325,62.58zM52.362,63.404l-0.82,0.345c-0.04,-0.024 -0.08,-0.049 -0.127,-0.062l-2.07,-0.532l0.89,-0.35c0.04,0.024 0.078,0.05 0.125,0.062L52.362,63.404zM49.324,62.089l-2.047,-0.563l0.702,-0.259l2.079,0.533L49.324,62.089zM47.772,62.7l-0.683,0.269c-0.012,-0.004 -0.022,-0.014 -0.035,-0.017l-2.125,-0.559l0.782,-0.289c0.039,0.025 0.078,0.051 0.125,0.063L47.772,62.7zM45.362,64.723l2.398,0.615l-1.001,0.421l-2.39,-0.644L45.362,64.723zM46.95,64.098l0.838,-0.33c0.029,0.014 0.053,0.033 0.085,0.041l2.187,0.562l-0.795,0.334c-0.021,-0.009 -0.039,-0.024 -0.062,-0.03L46.95,64.098zM50.702,65.186l2.606,0.68l-0.89,0.406l-2.696,-0.674L50.702,65.186zM52.219,64.549l0.615,-0.258c0.002,0.001 0.004,0.002 0.006,0.003l2.471,0.659l-0.57,0.26c-0.008,-0.003 -0.014,-0.008 -0.022,-0.011L52.219,64.549zM54.34,63.658l0.978,-0.411l2.372,0.62l-0.947,0.432L54.34,63.658zM56.834,62.611l0.371,-0.156c0.051,0.039 0.109,0.07 0.175,0.088l2.013,0.549l-0.27,0.123c-0.01,-0.003 -0.017,-0.01 -0.027,-0.013L56.834,62.611zM58.643,61.851l0.451,-0.189l2.172,0.575l-0.452,0.206L58.643,61.851zM60.605,61.027l0.295,-0.124c0.017,0.005 0.029,0.017 0.047,0.021l2.168,0.47l-0.418,0.191c-0.006,-0.002 -0.01,-0.006 -0.015,-0.008L60.605,61.027zM62.489,60.235l0.407,-0.171l2.147,0.449l-0.414,0.189c-0.004,-0.001 -0.008,-0.004 -0.012,-0.005L62.489,60.235zM64.52,59.383l0.003,-0.002l0.001,0l0.099,0.023L64.52,59.383zM63.829,58.588l-0.149,0.063l-1.827,-0.42l0.167,-0.066c0.036,0.018 0.069,0.04 0.11,0.049L63.829,58.588zM62.101,59.314l-0.203,0.085c-0.023,-0.01 -0.042,-0.026 -0.067,-0.032l-1.769,-0.432l0.197,-0.077c0.044,0.026 0.088,0.052 0.141,0.064L62.101,59.314zM61.333,57.361c-0.027,-0.012 -0.051,-0.03 -0.081,-0.038l-1.575,-0.376l0.119,-0.044l1.75,0.373L61.333,57.361zM59.736,57.99L59.61,58.04c-0.041,-0.021 -0.08,-0.044 -0.128,-0.053l-1.707,-0.337l0.275,-0.102c0.052,0.037 0.111,0.066 0.177,0.082L59.736,57.99zM52.119,59.739c0.059,0.047 0.125,0.086 0.204,0.103l1.753,0.377l-0.361,0.142c-0.051,-0.036 -0.109,-0.064 -0.174,-0.079l-1.783,-0.41L52.119,59.739zM52.131,60.984l-0.63,0.248c-0.064,-0.071 -0.141,-0.131 -0.241,-0.156l-1.63,-0.418l0.466,-0.172c0.043,0.025 0.086,0.05 0.137,0.062L52.131,60.984zM51.548,58.884c-0.039,-0.023 -0.078,-0.048 -0.124,-0.059l-1.487,-0.372l0.181,-0.063c0.022,0.009 0.039,0.024 0.062,0.03l1.557,0.395L51.548,58.884zM50.696,57.129c-0.016,-0.006 -0.028,-0.018 -0.044,-0.022l-0.782,-0.206l0.372,-0.126c0.036,0.021 0.069,0.045 0.111,0.056l0.669,0.184L50.696,57.129zM30.679,64.13c-0.004,0.001 -0.006,0.005 -0.01,0.006c-0.41,-0.106 -0.777,-0.2 -1.102,-0.284l2.051,-0.705c0.059,0.055 0.128,0.102 0.212,0.123l0.753,0.193L30.679,64.13zM38.279,64.848c0.017,0.007 0.03,0.02 0.048,0.026l2.239,0.663l-1.762,0.694c-0.872,-0.224 -1.713,-0.441 -2.516,-0.648L38.279,64.848zM42.815,65.726c0.007,0.002 0.013,0.008 0.02,0.01l2.423,0.652l-2.218,0.932c-0.878,-0.226 -1.742,-0.448 -2.585,-0.665L42.815,65.726zM48.184,66.244l2.775,0.694l-3.392,1.547c-0.98,-0.252 -1.958,-0.504 -2.926,-0.753L48.184,66.244zM50.657,68.175c0.003,0.001 0.005,0.004 0.009,0.004l2.805,0.731l-1.471,0.715c-0.955,-0.246 -1.922,-0.494 -2.892,-0.744L50.657,68.175zM52.094,67.519l1.094,-0.499l2.701,0.715l-1.036,0.503L52.094,67.519zM54.624,66.366l0.867,-0.396l2.587,0.701l-0.81,0.394L54.624,66.366zM56.915,65.32l0.943,-0.43l2.542,0.652l-0.955,0.464L56.915,65.32zM59.307,64.229l8.425,-3.843l2.141,0.551l-8.083,3.929L59.307,64.229zM73.65,61.656c0.273,-0.135 0.588,-0.172 0.886,-0.1l10.26,2.462l-4.462,2.962c-0.778,0.506 -1.546,1.006 -2.298,1.495l-11.974,-3.068L73.65,61.656zM77.101,57.424l-2.545,1.237c-0.024,-0.01 -0.045,-0.026 -0.071,-0.033l-1.919,-0.447l2.565,-1.17C75.804,57.153 76.465,57.291 77.101,57.424zM71.811,56.318c0.567,0.119 1.122,0.235 1.667,0.348l-2.195,1.001c-0.038,-0.02 -0.074,-0.043 -0.117,-0.053l-1.573,-0.363l2.212,-0.929C71.807,56.322 71.808,56.319 71.811,56.318zM68.479,55.622c0.546,0.114 1.083,0.226 1.61,0.336l-1.209,0.508c-0.053,-0.04 -0.114,-0.07 -0.182,-0.086l-1.336,-0.319L68.479,55.622zM65.152,54.927c0.521,0.109 1.038,0.217 1.545,0.323l-1.584,0.624c-0.055,-0.04 -0.117,-0.07 -0.188,-0.085l-1.339,-0.284L65.152,54.927zM63.179,56.634c-0.045,-0.027 -0.092,-0.052 -0.147,-0.064l-1.48,-0.315l0.313,-0.116c0.034,0.016 0.064,0.036 0.102,0.044l1.531,0.325L63.179,56.634zM61.938,54.255c0.462,0.096 0.92,0.192 1.372,0.287l-1.901,0.702c-0.016,-0.005 -0.027,-0.016 -0.044,-0.019l-1.351,-0.296L61.938,54.255zM59.07,53.778c0.148,-0.051 0.298,-0.061 0.445,-0.029l0.529,0.11l-0.289,0.101c-0.021,-0.008 -0.038,-0.022 -0.061,-0.028l-0.637,-0.15L59.07,53.778zM58.256,55.543c0.035,0.017 0.066,0.038 0.106,0.046l1.324,0.29l-0.378,0.139c-0.042,-0.025 -0.084,-0.051 -0.134,-0.064l-1.228,-0.304L58.256,55.543zM57.338,54.366c0.052,0.037 0.112,0.066 0.178,0.081l0.507,0.119l-0.12,0.042c-0.049,-0.035 -0.104,-0.065 -0.166,-0.081l-0.495,-0.128L57.338,54.366zM56.179,55.211c-0.054,-0.042 -0.116,-0.076 -0.187,-0.093l-0.503,-0.125l0.153,-0.052c0.061,0.06 0.131,0.111 0.22,0.134l0.405,0.105L56.179,55.211zM43.804,24.479l12.172,29.237l-12.597,4.331L27.09,63.576L11.682,24.661L43.804,24.479zM9.409,65.804c1.056,-3.25 4.86,-15.029 6.14,-18.993l0.281,0.703c-0.036,0.045 -0.068,0.095 -0.086,0.153l-5.425,16.83c-0.005,0.016 -0.002,0.032 -0.005,0.048c-0.007,0.032 -0.01,0.064 -0.011,0.097c-0.001,0.035 0.002,0.068 0.009,0.102c0.003,0.016 -0.001,0.031 0.004,0.046c0.003,0.01 0.013,0.014 0.016,0.023c0.031,0.089 0.082,0.168 0.158,0.227c0.012,0.01 0.026,0.013 0.039,0.021c0.036,0.024 0.071,0.05 0.114,0.064c0.051,0.017 0.103,0.024 0.153,0.024c0.046,0 0.093,-0.006 0.139,-0.02l10.704,-3.104l0.057,0.144C19.627,62.78 10.778,65.391 9.409,65.804zM25.454,67.329l-0.205,0.01c-0.17,-0.014 -0.509,-0.253 -0.703,-0.737L7.345,23.621c-0.094,-0.235 -0.108,-0.436 -0.04,-0.565c0.031,-0.059 0.094,-0.097 0.153,-0.136l0,0.001l16.899,42.089c-0.091,0.428 0.205,1.049 1.112,2.319C25.464,67.327 25.459,67.329 25.454,67.329zM27.738,67.386c-0.673,0.286 -0.84,0.204 -0.84,0.203c-0.046,-0.065 -0.125,-0.174 -0.228,-0.311c-0.94,-1.27 -1.245,-1.815 -1.317,-2.043c0.01,0.001 0.021,0 0.034,0.001c0.332,0.09 2.086,0.563 4.714,1.271C29.18,66.843 27.976,67.286 27.738,67.386zM88.715,63.549C82.098,67.999 71.024,75.447 70.517,75.8c-0.538,0.375 -1.449,0.155 -1.746,0.084c-0.344,-0.085 -18.976,-5.106 -31.634,-8.517c12.241,3.262 31.549,8.274 32.852,7.781l22.964,-14.45C92.468,61.025 90.862,62.105 88.715,63.549z"/>
  <path
      fill="#FFFFFFFF"
      d="M55.679,77.349l-1.001,-0.159v-0.128c0,-0.186 -0.102,-0.355 -0.267,-0.442l-2.592,-1.365c-0.047,-0.024 -0.097,-0.041 -0.147,-0.05l-30.744,-5.352c-0.092,-0.016 -0.185,-0.007 -0.272,0.028l-0.179,0.071l-0.534,-0.023c-0.082,-0.001 -0.162,0.014 -0.236,0.049c-0.308,0.147 -0.855,0.58 -0.95,1.275c-0.111,0.814 0.344,1.366 0.396,1.426c0.043,0.05 0.096,0.091 0.154,0.12l0.427,0.213c-0.032,0.1 -0.042,0.205 -0.008,0.308c0.058,0.171 0.203,0.297 0.38,0.331l8.195,1.561c0.031,0.006 0.063,0.009 0.094,0.009c0.051,0 0.102,-0.008 0.15,-0.023c0.099,-0.031 0.225,-0.098 0.35,-0.196l21.957,4.084c0.03,0.006 0.061,0.009 0.091,0.009c0.031,0 0.063,-0.003 0.093,-0.009l3.232,-0.613c0.161,-0.031 0.286,-0.139 0.353,-0.279l0.897,0.143c0.027,0.004 0.054,0.006 0.08,0.006c0.241,0 0.454,-0.176 0.493,-0.421C56.137,77.649 55.952,77.393 55.679,77.349zM26.699,73.576c-0.004,-0.053 -0.01,-0.1 -0.013,-0.158l1.191,0.212c0.104,0.01 0.479,0.098 0.511,0.26L26.699,73.576zM50.42,76.831c-0.068,0.39 -0.055,0.826 -0.029,1.153l-21.004,-3.907c0.006,-0.068 0.013,-0.136 0.01,-0.211c-0.032,-0.761 -0.764,-1.171 -1.388,-1.225l-1.225,-0.218c0.077,-0.219 0.18,-0.391 0.254,-0.491L50.7,76.05C50.586,76.266 50.474,76.521 50.42,76.831z"/>
</svg>
