<svg xmlns="http://www.w3.org/2000/svg" xmlns:xlink="http://www.w3.org/1999/xlink" version="1.0" x="0px" y="0px" viewBox="0 0 100 125" enable-background="new 0 0 100 100" xml:space="preserve"><path d="M98.0107422,22.6254883c-0.1826172-0.1210938-2.2109375-1.1831055-17.1279297-1.1831055H19.7236328  c-14.9179688,0-16.9462891,1.0620117-17.1289062,1.1831055c-0.1376953,0.0917969-0.1992188,0.2626953-0.1513672,0.4208984  s0.1943359,0.2666016,0.359375,0.2666016h9.5736084c-0.5056152,0.4863281-0.8236084,1.1660767-0.8236084,1.9213867v48.4946289  c0,1.4731445,1.1982422,2.6713867,2.671875,2.6713867h72.15625c1.4736328,0,2.671875-1.1982422,2.671875-2.6713867V25.234375  c0-0.7553101-0.3179932-1.4350586-0.8236084-1.9213867h9.5736084c0.1650391,0,0.3115234-0.1083984,0.359375-0.2666016  S98.1484375,22.7172852,98.0107422,22.6254883z M88.3027344,25.234375v48.4946289  c0,1.0595703-0.8623047,1.9213867-1.921875,1.9213867h-72.15625c-1.0595703,0-1.921875-0.8618164-1.921875-1.9213867V25.234375  c0-1.0595703,0.8623047-1.9213867,1.921875-1.9213867h72.15625C87.4404297,23.3129883,88.3027344,24.1748047,88.3027344,25.234375z   M86.3808594,22.5629883h-72.15625H7.4638672c2.4990234-0.2026367,6.3515625-0.3706055,12.2597656-0.3706055h61.1591797  c5.9140625,0,9.7685547,0.168457,12.2666016,0.3706055H86.3808594z"/><path d="M20.564209,35.510376h3.1010742c0.2233887,0,0.4044189-0.1810913,0.4044189-0.40448v-2.8313599  c0-0.2233887-0.1810303-0.40448-0.4044189-0.40448H20.564209c-0.2233887,0-0.4044189,0.1810913-0.4044189,0.40448v2.8313599  C20.15979,35.3292847,20.3408203,35.510376,20.564209,35.510376z M20.90979,32.6200562h2.4099121v2.1403198H20.90979V32.6200562z"/><path d="M20.564209,31.4227905h59.477417c0.2233887,0,0.404541-0.1810913,0.404541-0.40448v-1.5750732  c0-0.2233887-0.1811523-0.40448-0.404541-0.40448H20.564209c-0.2233887,0-0.4044189,0.1810913-0.4044189,0.40448v1.5750732  C20.15979,31.2416992,20.3408203,31.4227905,20.564209,31.4227905z M20.90979,29.7887573h58.786377v0.8840332H20.90979V29.7887573z"/><path d="M28.2626953,35.105896v-2.8313599c0-0.2233887-0.1810303-0.40448-0.4044189-0.40448h-3.0168457  c-0.2233887,0-0.404541,0.1810913-0.404541,0.40448v2.8313599c0,0.2233887,0.1811523,0.40448,0.404541,0.40448h3.0168457  C28.081665,35.510376,28.2626953,35.3292847,28.2626953,35.105896z M27.5126953,34.760376h-2.3258057v-2.1403198h2.3258057  V34.760376z"/><path d="M32.0393066,31.8700562H29.022583c-0.2233887,0-0.404541,0.1810913-0.404541,0.40448v2.8313599  c0,0.2233887,0.1811523,0.40448,0.404541,0.40448h3.0167236c0.2233887,0,0.404541-0.1810913,0.404541-0.40448v-2.8313599  C32.4438477,32.0511475,32.2626953,31.8700562,32.0393066,31.8700562z M31.6938477,34.760376H29.368042v-2.1403198h2.3258057  V34.760376z"/><path d="M36.220459,31.8700562h-3.0168457c-0.2233887,0-0.4044189,0.1810913-0.4044189,0.40448v2.8313599  c0,0.2233887,0.1810303,0.40448,0.4044189,0.40448h3.0168457c0.2233887,0,0.404541-0.1810913,0.404541-0.40448v-2.8313599  C36.625,32.0511475,36.4438477,31.8700562,36.220459,31.8700562z M35.875,34.760376h-2.3258057v-2.1403198H35.875V34.760376z"/><path d="M40.4016113,31.8700562h-3.0168457c-0.2233887,0-0.4044189,0.1810913-0.4044189,0.40448v2.8313599  c0,0.2233887,0.1810303,0.40448,0.4044189,0.40448h3.0168457c0.2233887,0,0.4044189-0.1810913,0.4044189-0.40448v-2.8313599  C40.8060303,32.0511475,40.625,31.8700562,40.4016113,31.8700562z M40.0560303,34.760376h-2.3256836v-2.1403198h2.3256836V34.760376  z"/><path d="M44.5827637,31.8700562H41.565918c-0.2233887,0-0.404541,0.1810913-0.404541,0.40448v2.8313599  c0,0.2233887,0.1811523,0.40448,0.404541,0.40448h3.0168457c0.2233887,0,0.4044189-0.1810913,0.4044189-0.40448v-2.8313599  C44.9871826,32.0511475,44.8061523,31.8700562,44.5827637,31.8700562z M44.2371826,34.760376H41.911377v-2.1403198h2.3258057  V34.760376z"/><path d="M48.7637939,31.8700562h-3.0167236c-0.2233887,0-0.404541,0.1810913-0.404541,0.40448v2.8313599  c0,0.2233887,0.1811523,0.40448,0.404541,0.40448h3.0167236c0.2233887,0,0.404541-0.1810913,0.404541-0.40448v-2.8313599  C49.168335,32.0511475,48.9871826,31.8700562,48.7637939,31.8700562z M48.418335,34.760376h-2.3258057v-2.1403198h2.3258057  V34.760376z"/><path d="M52.9449463,31.8700562h-3.0168457c-0.2233887,0-0.4044189,0.1810913-0.4044189,0.40448v2.8313599  c0,0.2233887,0.1810303,0.40448,0.4044189,0.40448h3.0168457c0.2233887,0,0.404541-0.1810913,0.404541-0.40448v-2.8313599  C53.3494873,32.0511475,53.168335,31.8700562,52.9449463,31.8700562z M52.5994873,34.760376h-2.3258057v-2.1403198h2.3258057  V34.760376z"/><path d="M57.1260986,31.8700562h-3.0168457c-0.2233887,0-0.4044189,0.1810913-0.4044189,0.40448v2.8313599  c0,0.2233887,0.1810303,0.40448,0.4044189,0.40448h3.0168457c0.2233887,0,0.404541-0.1810913,0.404541-0.40448v-2.8313599  C57.5306396,32.0511475,57.3494873,31.8700562,57.1260986,31.8700562z M56.7806396,34.760376H54.454834v-2.1403198h2.3258057  V34.760376z"/><path d="M61.307251,31.8700562h-3.0168457c-0.2233887,0-0.4044189,0.1810913-0.4044189,0.40448v2.8313599  c0,0.2233887,0.1810303,0.40448,0.4044189,0.40448h3.0168457c0.2233887,0,0.4044189-0.1810913,0.4044189-0.40448v-2.8313599  C61.7116699,32.0511475,61.5306396,31.8700562,61.307251,31.8700562z M60.9616699,34.760376h-2.3256836v-2.1403198h2.3256836  V34.760376z"/><path d="M65.4884033,31.8700562h-3.0168457c-0.2233887,0-0.404541,0.1810913-0.404541,0.40448v2.8313599  c0,0.2233887,0.1811523,0.40448,0.404541,0.40448h3.0168457c0.2233887,0,0.4044189-0.1810913,0.4044189-0.40448v-2.8313599  C65.8928223,32.0511475,65.711792,31.8700562,65.4884033,31.8700562z M65.1428223,34.760376h-2.3258057v-2.1403198h2.3258057  V34.760376z"/><path d="M69.6694336,31.8700562H66.65271c-0.2233887,0-0.404541,0.1810913-0.404541,0.40448v2.8313599  c0,0.2233887,0.1811523,0.40448,0.404541,0.40448h3.0167236c0.2233887,0,0.404541-0.1810913,0.404541-0.40448v-2.8313599  C70.0739746,32.0511475,69.8928223,31.8700562,69.6694336,31.8700562z M69.3239746,34.760376h-2.3258057v-2.1403198h2.3258057  V34.760376z"/><path d="M73.8505859,31.8700562h-3.0168457c-0.2233887,0-0.4044189,0.1810913-0.4044189,0.40448v2.8313599  c0,0.2233887,0.1810303,0.40448,0.4044189,0.40448h3.0168457c0.2233887,0,0.404541-0.1810913,0.404541-0.40448v-2.8313599  C74.255127,32.0511475,74.0739746,31.8700562,73.8505859,31.8700562z M73.505127,34.760376h-2.3258057v-2.1403198h2.3258057  V34.760376z"/><path d="M26.9320068,39.5888672h3.0167236c0.2233887,0,0.404541-0.1810913,0.404541-0.40448v-2.8313599  c0-0.2233887-0.1811523-0.40448-0.404541-0.40448h-3.0167236c-0.2233887,0-0.404541,0.1810913-0.404541,0.40448v2.8313599  C26.5274658,39.4077759,26.7086182,39.5888672,26.9320068,39.5888672z M27.2774658,36.6985474h2.3258057v2.1403198h-2.3258057  V36.6985474z"/><path d="M20.564209,39.5888672h5.1656494c0.2233887,0,0.4044189-0.1810913,0.4044189-0.40448v-2.8313599  c0-0.2233887-0.1810303-0.40448-0.4044189-0.40448H20.564209c-0.2233887,0-0.4044189,0.1810913-0.4044189,0.40448v2.8313599  C20.15979,39.4077759,20.3408203,39.5888672,20.564209,39.5888672z M20.90979,36.6985474h4.4744873v2.1403198H20.90979V36.6985474z"/><path d="M30.7086182,36.3530273v2.8313599c0,0.2233887,0.1810303,0.40448,0.4044189,0.40448h3.0168457  c0.2233887,0,0.404541-0.1810913,0.404541-0.40448v-2.8313599c0-0.2233887-0.1811523-0.40448-0.404541-0.40448h-3.0168457  C30.8896484,35.9485474,30.7086182,36.1296387,30.7086182,36.3530273z M31.4586182,36.6985474h2.3258057v2.1403198h-2.3258057  V36.6985474z"/><path d="M34.8897705,36.3530273v2.8313599c0,0.2233887,0.1810303,0.40448,0.4044189,0.40448h3.0168457  c0.2233887,0,0.4044189-0.1810913,0.4044189-0.40448v-2.8313599c0-0.2233887-0.1810303-0.40448-0.4044189-0.40448h-3.0168457  C35.0708008,35.9485474,34.8897705,36.1296387,34.8897705,36.3530273z M35.6397705,36.6985474h2.3256836v2.1403198h-2.3256836  V36.6985474z"/><path d="M39.0709229,36.3530273v2.8313599c0,0.2233887,0.1810303,0.40448,0.4044189,0.40448h3.0168457  c0.2233887,0,0.4044189-0.1810913,0.4044189-0.40448v-2.8313599c0-0.2233887-0.1810303-0.40448-0.4044189-0.40448h-3.0168457  C39.2519531,35.9485474,39.0709229,36.1296387,39.0709229,36.3530273z M39.8209229,36.6985474h2.3256836v2.1403198h-2.3256836  V36.6985474z"/><path d="M43.2519531,36.3530273v2.8313599c0,0.2233887,0.1811523,0.40448,0.404541,0.40448h3.0168457  c0.2233887,0,0.4044189-0.1810913,0.4044189-0.40448v-2.8313599c0-0.2233887-0.1810303-0.40448-0.4044189-0.40448h-3.0168457  C43.4331055,35.9485474,43.2519531,36.1296387,43.2519531,36.3530273z M44.0019531,36.6985474h2.3258057v2.1403198h-2.3258057  V36.6985474z"/><path d="M47.4331055,36.3530273v2.8313599c0,0.2233887,0.1811523,0.40448,0.404541,0.40448h3.0167236  c0.2233887,0,0.404541-0.1810913,0.404541-0.40448v-2.8313599c0-0.2233887-0.1811523-0.40448-0.404541-0.40448h-3.0167236  C47.6142578,35.9485474,47.4331055,36.1296387,47.4331055,36.3530273z M48.1831055,36.6985474h2.3258057v2.1403198h-2.3258057  V36.6985474z"/><path d="M51.6142578,36.3530273v2.8313599c0,0.2233887,0.1810303,0.40448,0.4044189,0.40448h3.0168457  c0.2233887,0,0.404541-0.1810913,0.404541-0.40448v-2.8313599c0-0.2233887-0.1811523-0.40448-0.404541-0.40448h-3.0168457  C51.7952881,35.9485474,51.6142578,36.1296387,51.6142578,36.3530273z M52.3642578,36.6985474h2.3258057v2.1403198h-2.3258057  V36.6985474z"/><path d="M55.7954102,36.3530273v2.8313599c0,0.2233887,0.1810303,0.40448,0.4044189,0.40448h3.0168457  c0.2233887,0,0.4044189-0.1810913,0.4044189-0.40448v-2.8313599c0-0.2233887-0.1810303-0.40448-0.4044189-0.40448h-3.0168457  C55.9764404,35.9485474,55.7954102,36.1296387,55.7954102,36.3530273z M56.5454102,36.6985474h2.3256836v2.1403198h-2.3256836  V36.6985474z"/><path d="M59.9764404,36.3530273v2.8313599c0,0.2233887,0.1811523,0.40448,0.404541,0.40448h3.0168457  c0.2233887,0,0.4044189-0.1810913,0.4044189-0.40448v-2.8313599c0-0.2233887-0.1810303-0.40448-0.4044189-0.40448h-3.0168457  C60.1575928,35.9485474,59.9764404,36.1296387,59.9764404,36.3530273z M60.7264404,36.6985474h2.3258057v2.1403198h-2.3258057  V36.6985474z"/><path d="M64.1575928,36.3530273v2.8313599c0,0.2233887,0.1811523,0.40448,0.404541,0.40448h3.0168457  c0.2233887,0,0.4044189-0.1810913,0.4044189-0.40448v-2.8313599c0-0.2233887-0.1810303-0.40448-0.4044189-0.40448h-3.0168457  C64.3387451,35.9485474,64.1575928,36.1296387,64.1575928,36.3530273z M64.9075928,36.6985474h2.3258057v2.1403198h-2.3258057  V36.6985474z"/><path d="M68.3387451,36.3530273v2.8313599c0,0.2233887,0.1811523,0.40448,0.404541,0.40448h3.0167236  c0.2233887,0,0.404541-0.1810913,0.404541-0.40448v-2.8313599c0-0.2233887-0.1811523-0.40448-0.404541-0.40448h-3.0167236  C68.5198975,35.9485474,68.3387451,36.1296387,68.3387451,36.3530273z M69.0887451,36.6985474h2.3258057v2.1403198h-2.3258057  V36.6985474z"/><path d="M76.3457031,39.1843872v-2.8313599c0-0.2233887-0.1811523-0.40448-0.404541-0.40448h-3.0168457  c-0.2233887,0-0.4044189,0.1810913-0.4044189,0.40448v2.8313599c0,0.2233887,0.1810303,0.40448,0.4044189,0.40448h3.0168457  C76.1645508,39.5888672,76.3457031,39.4077759,76.3457031,39.1843872z M75.5957031,38.8388672h-2.3258057v-2.1403198h2.3258057  V38.8388672z"/><path d="M80.041626,35.9485474h-3.0168457c-0.2233887,0-0.4044189,0.1810913-0.4044189,0.40448v2.8313599  c0,0.2233887,0.1810303,0.40448,0.4044189,0.40448h3.0168457c0.2233887,0,0.404541-0.1810913,0.404541-0.40448v-2.8313599  C80.446167,36.1296387,80.2650146,35.9485474,80.041626,35.9485474z M79.696167,38.8388672h-2.3258057v-2.1403198h2.3258057  V38.8388672z"/><path d="M27.9768066,43.6842041h3.0168457c0.2233887,0,0.404541-0.1810913,0.404541-0.40448v-2.8313599  c0-0.2233887-0.1811523-0.40448-0.404541-0.40448h-3.0168457c-0.2233887,0-0.4044189,0.1810913-0.4044189,0.40448v2.8313599  C27.5723877,43.5031128,27.753418,43.6842041,27.9768066,43.6842041z M28.3223877,40.7938843h2.3258057v2.1403198h-2.3258057  V40.7938843z"/><path d="M20.564209,43.6842041h6.2330322c0.2233887,0,0.4044189-0.1810913,0.4044189-0.40448v-2.8313599  c0-0.2233887-0.1810303-0.40448-0.4044189-0.40448H20.564209c-0.2233887,0-0.4044189,0.1810913-0.4044189,0.40448v2.8313599  C20.15979,43.5031128,20.3408203,43.6842041,20.564209,43.6842041z M20.90979,40.7938843h5.5418701v2.1403198H20.90979V40.7938843z"/><path d="M35.5793457,43.2797241v-2.8313599c0-0.2233887-0.1811523-0.40448-0.404541-0.40448H32.157959  c-0.2233887,0-0.4044189,0.1810913-0.4044189,0.40448v2.8313599c0,0.2233887,0.1810303,0.40448,0.4044189,0.40448h3.0168457  C35.3981934,43.6842041,35.5793457,43.5031128,35.5793457,43.2797241z M34.8293457,42.9342041H32.50354v-2.1403198h2.3258057  V42.9342041z"/><path d="M39.760376,43.2797241v-2.8313599c0-0.2233887-0.1810303-0.40448-0.4044189-0.40448h-3.0168457  c-0.2233887,0-0.4044189,0.1810913-0.4044189,0.40448v2.8313599c0,0.2233887,0.1810303,0.40448,0.4044189,0.40448h3.0168457  C39.5793457,43.6842041,39.760376,43.5031128,39.760376,43.2797241z M39.010376,42.9342041h-2.3256836v-2.1403198h2.3256836  V42.9342041z"/><path d="M43.5371094,40.0438843h-3.0168457c-0.2233887,0-0.404541,0.1810913-0.404541,0.40448v2.8313599  c0,0.2233887,0.1811523,0.40448,0.404541,0.40448h3.0168457c0.2233887,0,0.4044189-0.1810913,0.4044189-0.40448v-2.8313599  C43.9415283,40.2249756,43.760498,40.0438843,43.5371094,40.0438843z M43.1915283,42.9342041h-2.3258057v-2.1403198h2.3258057  V42.9342041z"/><path d="M47.7181396,40.0438843H44.701416c-0.2233887,0-0.404541,0.1810913-0.404541,0.40448v2.8313599  c0,0.2233887,0.1811523,0.40448,0.404541,0.40448h3.0167236c0.2233887,0,0.404541-0.1810913,0.404541-0.40448v-2.8313599  C48.1226807,40.2249756,47.9415283,40.0438843,47.7181396,40.0438843z M47.3726807,42.9342041H45.046875v-2.1403198h2.3258057  V42.9342041z"/><path d="M51.899292,40.0438843h-3.0168457c-0.2233887,0-0.4044189,0.1810913-0.4044189,0.40448v2.8313599  c0,0.2233887,0.1810303,0.40448,0.4044189,0.40448h3.0168457c0.2233887,0,0.404541-0.1810913,0.404541-0.40448v-2.8313599  C52.303833,40.2249756,52.1226807,40.0438843,51.899292,40.0438843z M51.553833,42.9342041h-2.3258057v-2.1403198h2.3258057  V42.9342041z"/><path d="M56.0804443,43.6842041c0.2233887,0,0.4044189-0.1810913,0.4044189-0.40448v-2.8313599  c0-0.2233887-0.1810303-0.40448-0.4044189-0.40448h-3.0168457c-0.2233887,0-0.4044189,0.1810913-0.4044189,0.40448v2.8313599  c0,0.2233887,0.1810303,0.40448,0.4044189,0.40448H56.0804443z M53.4091797,40.7938843h2.3256836v2.1403198h-2.3256836V40.7938843z"/><path d="M60.6660156,43.2797241v-2.8313599c0-0.2233887-0.1810303-0.40448-0.4044189-0.40448H57.244751  c-0.2233887,0-0.404541,0.1810913-0.404541,0.40448v2.8313599c0,0.2233887,0.1811523,0.40448,0.404541,0.40448h3.0168457  C60.4849854,43.6842041,60.6660156,43.5031128,60.6660156,43.2797241z M59.9160156,42.9342041H57.59021v-2.1403198h2.3258057  V42.9342041z"/><path d="M64.442749,43.6842041c0.2233887,0,0.4044189-0.1810913,0.4044189-0.40448v-2.8313599  c0-0.2233887-0.1810303-0.40448-0.4044189-0.40448h-3.0168457c-0.2233887,0-0.404541,0.1810913-0.404541,0.40448v2.8313599  c0,0.2233887,0.1811523,0.40448,0.404541,0.40448H64.442749z M61.7713623,40.7938843h2.3258057v2.1403198h-2.3258057V40.7938843z"/><path d="M69.0283203,43.2797241v-2.8313599c0-0.2233887-0.1811523-0.40448-0.404541-0.40448h-3.0167236  c-0.2233887,0-0.404541,0.1810913-0.404541,0.40448v2.8313599c0,0.2233887,0.1811523,0.40448,0.404541,0.40448h3.0167236  C68.847168,43.6842041,69.0283203,43.5031128,69.0283203,43.2797241z M68.2783203,42.9342041h-2.3258057v-2.1403198h2.3258057  V42.9342041z"/><path d="M73.2094727,43.2797241v-2.8313599c0-0.2233887-0.1811523-0.40448-0.404541-0.40448h-3.0168457  c-0.2233887,0-0.4044189,0.1810913-0.4044189,0.40448v2.8313599c0,0.2233887,0.1810303,0.40448,0.4044189,0.40448h3.0168457  C73.0283203,43.6842041,73.2094727,43.5031128,73.2094727,43.2797241z M72.4594727,42.9342041H70.133667v-2.1403198h2.3258057  V42.9342041z"/><path d="M30.0625,47.7163086h3.0167236c0.2233887,0,0.404541-0.1810913,0.404541-0.40448v-2.8313599  c0-0.2233887-0.1811523-0.40448-0.404541-0.40448H30.0625c-0.2233887,0-0.404541,0.1810913-0.404541,0.40448v2.8313599  C29.657959,47.5352173,29.8391113,47.7163086,30.0625,47.7163086z M30.407959,44.8259888h2.3258057v2.1403198H30.407959V44.8259888z  "/><path d="M20.564209,47.7163086h8.3438721c0.2233887,0,0.404541-0.1810913,0.404541-0.40448v-2.8313599  c0-0.2233887-0.1811523-0.40448-0.404541-0.40448H20.564209c-0.2233887,0-0.4044189,0.1810913-0.4044189,0.40448v2.8313599  C20.15979,47.5352173,20.3408203,47.7163086,20.564209,47.7163086z M20.90979,44.8259888h7.652832v2.1403198H20.90979V44.8259888z"/><path d="M37.664917,44.4804688c0-0.2233887-0.1811523-0.40448-0.404541-0.40448h-3.0168457  c-0.2233887,0-0.4044189,0.1810913-0.4044189,0.40448v2.8313599c0,0.2233887,0.1810303,0.40448,0.4044189,0.40448h3.0168457  c0.2233887,0,0.404541-0.1810913,0.404541-0.40448V44.4804688z M36.914917,46.9663086h-2.3258057v-2.1403198h2.3258057V46.9663086z"/><path d="M38.0202637,44.4804688v2.8313599c0,0.2233887,0.1810303,0.40448,0.4044189,0.40448h3.0168457  c0.2233887,0,0.4044189-0.1810913,0.4044189-0.40448v-2.8313599c0-0.2233887-0.1810303-0.40448-0.4044189-0.40448h-3.0168457  C38.2012939,44.0759888,38.0202637,44.2570801,38.0202637,44.4804688z M38.7702637,44.8259888h2.3256836v2.1403198h-2.3256836  V44.8259888z"/><path d="M42.2012939,44.4804688v2.8313599c0,0.2233887,0.1811523,0.40448,0.404541,0.40448h3.0168457  c0.2233887,0,0.4044189-0.1810913,0.4044189-0.40448v-2.8313599c0-0.2233887-0.1810303-0.40448-0.4044189-0.40448H42.605835  C42.3824463,44.0759888,42.2012939,44.2570801,42.2012939,44.4804688z M42.9512939,44.8259888h2.3258057v2.1403198h-2.3258057  V44.8259888z"/><path d="M46.3824463,44.4804688v2.8313599c0,0.2233887,0.1811523,0.40448,0.404541,0.40448h3.0168457  c0.2232666,0,0.4044189-0.1810913,0.4044189-0.40448v-2.8313599c0-0.2233887-0.1811523-0.40448-0.4044189-0.40448h-3.0168457  C46.5635986,44.0759888,46.3824463,44.2570801,46.3824463,44.4804688z M47.1324463,44.8259888h2.3258057v2.1403198h-2.3258057  V44.8259888z"/><path d="M50.5635986,44.4804688v2.8313599c0,0.2233887,0.1811523,0.40448,0.4044189,0.40448h3.0168457  c0.2233887,0,0.404541-0.1810913,0.404541-0.40448v-2.8313599c0-0.2233887-0.1811523-0.40448-0.404541-0.40448h-3.0168457  C50.744751,44.0759888,50.5635986,44.2570801,50.5635986,44.4804688z M51.3135986,44.8259888h2.3258057v2.1403198h-2.3258057  V44.8259888z"/><path d="M58.5705566,44.4804688c0-0.2233887-0.1811523-0.40448-0.404541-0.40448h-3.0168457  c-0.2233887,0-0.4044189,0.1810913-0.4044189,0.40448v2.8313599c0,0.2233887,0.1810303,0.40448,0.4044189,0.40448h3.0168457  c0.2233887,0,0.404541-0.1810913,0.404541-0.40448V44.4804688z M57.8205566,46.9663086H55.494751v-2.1403198h2.3258057V46.9663086z"/><path d="M58.9259033,44.4804688v2.8313599c0,0.2233887,0.1810303,0.40448,0.4044189,0.40448h3.0168457  c0.2233887,0,0.4044189-0.1810913,0.4044189-0.40448v-2.8313599c0-0.2233887-0.1810303-0.40448-0.4044189-0.40448h-3.0168457  C59.1069336,44.0759888,58.9259033,44.2570801,58.9259033,44.4804688z M59.6759033,44.8259888h2.3256836v2.1403198h-2.3256836  V44.8259888z"/><path d="M66.9327393,47.3118286v-2.8313599c0-0.2233887-0.1810303-0.40448-0.4044189-0.40448h-3.0168457  c-0.2233887,0-0.404541,0.1810913-0.404541,0.40448v2.8313599c0,0.2233887,0.1811523,0.40448,0.404541,0.40448h3.0168457  C66.751709,47.7163086,66.9327393,47.5352173,66.9327393,47.3118286z M66.1827393,46.9663086h-2.3258057v-2.1403198h2.3258057  V46.9663086z"/><path d="M67.692627,47.7163086h3.0167236c0.2233887,0,0.404541-0.1810913,0.404541-0.40448v-2.8313599  c0-0.2233887-0.1811523-0.40448-0.404541-0.40448H67.692627c-0.2233887,0-0.404541,0.1810913-0.404541,0.40448v2.8313599  C67.2880859,47.5352173,67.4692383,47.7163086,67.692627,47.7163086z M68.0380859,44.8259888h2.3258057v2.1403198h-2.3258057  V44.8259888z"/><path d="M71.6794434,48.1461792h-3.0168457c-0.2233887,0-0.404541,0.1810913-0.404541,0.40448v2.8313599  c0,0.2233887,0.1811523,0.40448,0.404541,0.40448h3.0168457c0.2233887,0,0.4044189-0.1810913,0.4044189-0.40448v-2.8313599  C72.0838623,48.3272705,71.902832,48.1461792,71.6794434,48.1461792z M71.3338623,51.036499h-2.3258057v-2.1403198h2.3258057  V51.036499z"/><path d="M75.8604736,48.1461792H72.84375c-0.2233887,0-0.404541,0.1810913-0.404541,0.40448v2.8313599  c0,0.2233887,0.1811523,0.40448,0.404541,0.40448h3.0167236c0.2233887,0,0.404541-0.1810913,0.404541-0.40448v-2.8313599  C76.2650146,48.3272705,76.0838623,48.1461792,75.8604736,48.1461792z M75.5150146,51.036499H73.189209v-2.1403198h2.3258057  V51.036499z"/><path d="M59.3303223,51.786499h4.0404053c0.2233887,0,0.404541-0.1810913,0.404541-0.40448v-2.8313599  c0-0.2233887-0.1811523-0.40448-0.404541-0.40448h-4.0404053c-0.2233887,0-0.4044189,0.1810913-0.4044189,0.40448v2.8313599  C58.9259033,51.6054077,59.1069336,51.786499,59.3303223,51.786499z M59.6759033,48.8961792h3.3493652v2.1403198h-3.3493652  V48.8961792z"/><path d="M37.2441406,48.1461792h-4.0405273c-0.2233887,0-0.4044189,0.1810913-0.4044189,0.40448v2.8313599  c0,0.2233887,0.1810303,0.40448,0.4044189,0.40448h4.0405273c0.2233887,0,0.4044189-0.1810913,0.4044189-0.40448v-2.8313599  C37.6485596,48.3272705,37.4675293,48.1461792,37.2441406,48.1461792z M36.8985596,51.036499h-3.3493652v-2.1403198h3.3493652  V51.036499z"/><path d="M32.017334,48.1461792h-3.0172119c-0.2233887,0-0.4044189,0.1810913-0.4044189,0.40448v2.8313599  c0,0.2233887,0.1810303,0.40448,0.4044189,0.40448h3.0172119c0.2233887,0,0.4044189-0.1810913,0.4044189-0.40448v-2.8313599  C32.4217529,48.3272705,32.2407227,48.1461792,32.017334,48.1461792z M31.6717529,51.036499h-2.3260498v-2.1403198h2.3260498  V51.036499z"/><path d="M27.8376465,48.1461792h-3.0170898c-0.2233887,0-0.404541,0.1810913-0.404541,0.40448v2.8313599  c0,0.2233887,0.1811523,0.40448,0.404541,0.40448h3.0170898c0.2233887,0,0.404541-0.1810913,0.404541-0.40448v-2.8313599  C28.2421875,48.3272705,28.0610352,48.1461792,27.8376465,48.1461792z M27.4921875,51.036499h-2.3261719v-2.1403198h2.3261719  V51.036499z"/><path d="M20.564209,51.786499h3.0172119c0.2233887,0,0.4044189-0.1810913,0.4044189-0.40448v-2.8313599  c0-0.2233887-0.1810303-0.40448-0.4044189-0.40448H20.564209c-0.2233887,0-0.4044189,0.1810913-0.4044189,0.40448v2.8313599  C20.15979,51.6054077,20.3408203,51.786499,20.564209,51.786499z M20.90979,48.8961792h2.3260498v2.1403198H20.90979V48.8961792z"/><path d="M38.4246826,51.786499h19.7249756c0.2233887,0,0.404541-0.1810913,0.404541-0.40448v-2.8313599  c0-0.2233887-0.1811523-0.40448-0.404541-0.40448H38.4246826c-0.2233887,0-0.4044189,0.1810913-0.4044189,0.40448v2.8313599  C38.0202637,51.6054077,38.2012939,51.786499,38.4246826,51.786499z M38.7702637,48.8961792h19.0339355v2.1403198H38.7702637  V48.8961792z"/><path d="M67.5518799,48.1461792h-3.0168457c-0.2233887,0-0.4044189,0.1810913-0.4044189,0.40448v2.8313599  c0,0.2233887,0.1810303,0.40448,0.4044189,0.40448h3.0168457c0.2233887,0,0.404541-0.1810913,0.404541-0.40448v-2.8313599  C67.9564209,48.3272705,67.7752686,48.1461792,67.5518799,48.1461792z M67.2064209,51.036499h-2.3258057v-2.1403198h2.3258057  V51.036499z"/><path d="M80.041626,48.1461792h-3.0168457c-0.2233887,0-0.4044189,0.1810913-0.4044189,0.40448v2.8313599  c0,0.2233887,0.1810303,0.40448,0.4044189,0.40448h3.0168457c0.2233887,0,0.404541-0.1810913,0.404541-0.40448v-2.8313599  C80.446167,48.3272705,80.2650146,48.1461792,80.041626,48.1461792z M79.696167,51.036499h-2.3258057v-2.1403198h2.3258057  V51.036499z"/><path d="M80.041626,44.0759888h-8.1679688c-0.2233887,0-0.4044189,0.1810913-0.4044189,0.40448v2.8313599  c0,0.2233887,0.1810303,0.40448,0.4044189,0.40448h8.1679688c0.2233887,0,0.404541-0.1810913,0.404541-0.40448v-2.8313599  C80.446167,44.2570801,80.2650146,44.0759888,80.041626,44.0759888z M79.696167,46.9663086h-7.4769287v-2.1403198h7.4769287  V46.9663086z"/><path d="M80.041626,40.0438843h-6.0723877c-0.2233887,0-0.4044189,0.1810913-0.4044189,0.40448v2.8313599  c0,0.2233887,0.1810303,0.40448,0.4044189,0.40448h6.0723877c0.2233887,0,0.404541-0.1810913,0.404541-0.40448v-2.8313599  C80.446167,40.2249756,80.2650146,40.0438843,80.041626,40.0438843z M79.696167,42.9342041h-5.3813477v-2.1403198h5.3813477  V42.9342041z"/><path d="M80.041626,31.8700562h-5.0584717c-0.2233887,0-0.404541,0.1810913-0.404541,0.40448v2.8313599  c0,0.2233887,0.1811523,0.40448,0.404541,0.40448h5.0584717c0.2233887,0,0.404541-0.1810913,0.404541-0.40448v-2.8313599  C80.446167,32.0511475,80.2650146,31.8700562,80.041626,31.8700562z M79.696167,34.760376h-4.3675537v-2.1403198h4.3675537  V34.760376z"/><path d="M66.8377686,52.7680664H33.7680664c-0.576416,0-1.0437012,0.4672852-1.0437012,1.0437012v19.9060059  c0,0.576416,0.4672852,1.0437012,1.0437012,1.0437012h33.0697021c0.5765381,0,1.0438232-0.4672852,1.0438232-1.0437012V53.8117676  C67.8815918,53.2353516,67.4143066,52.7680664,66.8377686,52.7680664z M67.1315918,73.7177734  c0,0.1619263-0.1318359,0.2937012-0.2938232,0.2937012H33.7680664c-0.1619873,0-0.2937012-0.1317749-0.2937012-0.2937012V53.8117676  c0-0.1619263,0.1317139-0.2937012,0.2937012-0.2937012h33.0697021c0.1619873,0,0.2938232,0.1317749,0.2938232,0.2937012V73.7177734z  "/></svg>