<?xml version="1.0" encoding="UTF-8"?>
<svg width="27px" height="40px" viewBox="0 0 27 40" version="1.1" xmlns="http://www.w3.org/2000/svg" xmlns:xlink="http://www.w3.org/1999/xlink">
    <!-- Generator: Sketch 47.1 (45422) - http://www.bohemiancoding.com/sketch -->
    <title>hand-showing-palm-outline</title>
    <desc>Created with Sketch.</desc>
    <defs></defs>
    <g id="Page-1" stroke="none" stroke-width="1" fill="none" fill-rule="evenodd">
        <g id="Artboard" transform="translate(-948.000000, -701.000000)" fill-rule="nonzero" fill="#121212">
            <g id="Group" transform="translate(839.500000, 687.123455)">
                <g id="Group-6" transform="translate(92.000000, 6.000000)">
                    <g id="hand-showing-palm-outline" transform="translate(16.545961, 8.500000)">
                        <path d="M26.3465872,19.5486644 L26.3465872,17.9207896 C26.3465872,16.0639305 24.8786666,14.5509342 23.0733225,14.5509342 C22.4474149,14.5509342 21.8686436,14.7399943 21.3684327,15.0537208 L21.3684327,8.32276757 C21.3684327,6.46590847 19.9208605,4.95626064 18.1358648,4.95626064 C17.5413814,4.95626064 16.9878525,5.13424505 16.50799,5.4299413 L16.50799,3.37294632 C16.50799,1.51273873 15.0400694,0 13.2347253,0 C11.5612597,0 10.192763,1.30410288 10.0013847,2.97756849 C9.50812832,2.67259954 8.93476608,2.48122122 8.3183888,2.48122122 C6.51304472,2.48122122 5.04512406,3.9924145 5.04512406,5.85416754 L5.04512406,7.77310225 C4.55727676,7.4743151 3.99499025,7.29323978 3.38814325,7.29323978 C1.58434462,7.29323978 0.116423958,8.80443307 0.116423958,10.6628376 L0.116423958,16.9922313 L0.116423958,25.7188766 L0.116423958,27.713796 C0.116423958,34.5676126 5.51107746,39.3543888 13.2378162,39.3543888 C20.9637822,39.3543888 26.3589508,34.5676126 26.3589508,27.713796 L26.3589508,19.6207855 L26.3465872,19.5486644 Z M13.2393616,37.7486655 C6.45818121,37.7486655 1.72395034,33.6205089 1.72395034,27.713796 L1.72395034,25.7188766 L1.72395034,16.9922313 L1.72395034,10.6628376 C1.72395034,9.69280969 2.47040306,8.89922071 3.3896887,8.89922071 C4.29223195,8.89922071 5.02091199,9.66524915 5.04666951,10.611065 L5.04666951,18.6476666 L5.05619979,20.5933892 C5.05619979,21.0325547 5.41603224,21.3962508 5.85931904,21.3962508 C6.30312099,21.3962508 6.66243829,21.0325547 6.66243829,20.5933892 L6.66243829,10.658974 L6.65290801,5.84798573 C6.65290801,4.87770022 7.40193649,4.08127792 8.32019182,4.08127792 C9.20006846,4.08127792 9.90659704,4.81536704 9.96455145,5.7302739 L9.96455145,18.9771052 L9.98721806,19.084514 L9.98721806,20.377026 C9.98721806,20.8161916 10.3470505,21.1798877 10.7903373,21.1798877 C11.2336241,21.1798877 11.5934566,20.8161916 11.5934566,20.377026 L11.5934566,5.84644028 L11.57079,5.61822872 L11.57079,3.36290089 C11.57079,2.39287295 12.3172427,1.5969658 13.2362707,1.5969658 C14.1545261,1.5969658 14.9035545,2.38978205 14.9035545,3.36290089 L14.9035545,8.31297972 L14.9035545,17.334291 L14.9035545,20.5119954 C14.9035545,20.9573428 15.2628719,21.3148571 15.7066738,21.3148571 C16.1489303,21.3148571 16.5095355,20.9570852 16.5095355,20.5119954 L16.5095355,17.3340335 L16.5095355,8.32276757 C16.5095355,7.35273964 17.2405337,6.56224157 18.1376679,6.56224157 C19.0378929,6.56224157 19.7655427,7.35273964 19.7655427,8.32276757 L19.7655427,23.3818975 C19.7655427,23.4584592 18.3601505,24.1013298 17.2283579,25.127631 C16.0965654,26.1539322 15.5576542,27.0928775 15.3414283,27.3523417 C15.1252024,27.6118059 15.323665,27.7843088 15.5438882,27.9848549 C15.7641113,28.1854011 15.9511769,28.4068133 16.2585855,27.9848549 C16.7408719,27.3228539 17.2749903,26.5040027 18.2573551,25.7188766 C19.8852299,24.4178457 20.3957942,24.2786562 21.3715236,23.8368623 L21.3715236,22.8142019 L21.4060387,22.6354448 L21.4060387,17.9238805 C21.4060387,16.9515344 22.1524914,16.1587182 23.071777,16.1587182 C23.9877142,16.1587182 24.7390609,16.9481859 24.7390609,17.9238805 L24.7390609,22.3969302 L24.7532275,27.7171445 C24.7545154,33.6205089 20.0226027,37.7486655 13.2393616,37.7486655 Z" id="Shape"></path>
                    </g>
                </g>
            </g>
        </g>
    </g>
</svg>