<?xml version="1.0" encoding="UTF-8"?>
<svg width="28px" height="33px" viewBox="0 0 28 33" version="1.1" xmlns="http://www.w3.org/2000/svg" xmlns:xlink="http://www.w3.org/1999/xlink">
    <defs></defs>
    <g id="Page-1" stroke="none" stroke-width="1" fill="none" fill-rule="evenodd">
        <g id="Artboard" transform="translate(-1034.000000, -699.000000)" fill-rule="nonzero" fill="#131313">
            <g id="Group" transform="translate(836.000000, 681.000000)">
                <g id="Group-5" transform="translate(180.000000, 6.000000)">
                    <g id="if_git-pull-request_298789" transform="translate(18.745098, 12.025178)">
                        <path d="M4.38928427,2.19464214 C1.96639935,2.19464214 0,4.16104149 0,6.58392641 C0,8.20312652 0.888349987,9.60368541 2.19464214,10.3656034 L2.19464214,24.7497338 C0.888349987,25.5105888 0,26.9100846 0,28.5303478 C0,30.9521697 1.96639935,32.9196321 4.38928427,32.9196321 C6.81216919,32.9196321 8.77856855,30.9521697 8.77856855,28.5303478 C8.77856855,26.9100846 7.89234462,25.5105888 6.58392641,24.7497338 L6.58392641,10.3656034 C7.89234462,9.60368541 8.77856855,8.20312652 8.77856855,6.58392641 C8.77856855,4.16104149 6.81216919,2.19464214 4.38928427,2.19464214 Z M4.38928427,30.7249899 C3.17839047,30.7249899 2.19464214,29.7434019 2.19464214,28.5303478 C2.19464214,27.319454 3.17839047,26.3357056 4.38928427,26.3357056 C5.60340145,26.3357056 6.58392641,27.319454 6.58392641,28.5303478 C6.58392641,29.7434019 5.60340145,30.7249899 4.38928427,30.7249899 Z M4.38928427,8.77856855 C3.17839047,8.77856855 2.19464214,7.79804359 2.19464214,6.58392641 C2.19464214,5.36980923 3.17839047,4.38928427 4.38928427,4.38928427 C5.60340145,4.38928427 6.58392641,5.36980923 6.58392641,6.58392641 C6.58392641,7.79804359 5.60340145,8.77856855 4.38928427,8.77856855 Z M24.1410635,24.7497338 L24.1410635,10.9732107 C24.1410635,4.37213863 17.5571371,4.38928427 17.5571371,4.38928427 L15.362495,4.38928427 L15.362495,0 L8.77856855,6.58392641 L15.362495,13.1678528 L15.362495,8.77856855 C15.362495,8.77856855 16.2776607,8.77856855 17.5571371,8.77856855 C19.4924685,8.77856855 19.7517792,10.9732107 19.7517792,10.9732107 L19.7517792,24.7497338 C18.4444241,25.5105888 17.5571371,26.9079586 17.5571371,28.5303478 C17.5571371,30.9521697 19.5245995,32.9196321 21.9464214,32.9196321 C24.3682433,32.9196321 26.3357056,30.9521697 26.3357056,28.5303478 C26.3357056,26.9100846 25.4484187,25.5105888 24.1410635,24.7497338 Z M21.9464214,30.7249899 C20.7355276,30.7249899 19.7517792,29.7434019 19.7517792,28.5303478 C19.7517792,27.319454 20.7355276,26.3357056 21.9464214,26.3357056 C23.1594755,26.3357056 24.1410635,27.319454 24.1410635,28.5303478 C24.1410635,29.7434019 23.1594755,30.7249899 21.9464214,30.7249899 Z" id="Shape"></path>
                    </g>
                </g>
            </g>
        </g>
    </g>
</svg>