<?xml version="1.0" encoding="UTF-8"?>
<svg width="28px" height="37px" viewBox="0 0 28 37" version="1.1" xmlns="http://www.w3.org/2000/svg" xmlns:xlink="http://www.w3.org/1999/xlink">
    <defs></defs>
    <g id="Page-1" stroke="none" stroke-width="1" fill="none" fill-rule="evenodd">
        <g id="Artboard" transform="translate(-945.000000, -699.000000)" fill-rule="nonzero" fill="#131313">
            <g id="Group" transform="translate(841.000000, 671.000000)">
                <g id="Group-6" transform="translate(72.000000, 0.000000)">
                    <g id="hand-copy" transform="translate(32.000000, 28.025178)">
                        <path d="M23.205713,0.440225918 C20.903426,0.440225918 19.030426,2.31329535 19.030426,4.61551291 L19.030426,7.26485498 C18.4157698,6.90835436 17.7030463,6.70312168 16.9427478,6.70312168 C15.6965583,6.70312168 14.5769116,7.25256186 13.8112652,8.12113712 C13.0455494,7.25263131 11.9259721,6.70312168 10.6797826,6.70312168 C9.91955351,6.70312168 9.20683007,6.90835436 8.59210437,7.26485498 L8.59210437,4.61551291 C8.59210437,2.31329535 6.71910439,0.440225918 4.41681738,0.440225918 C2.11453037,0.440225918 0.241460938,2.31329535 0.241460938,4.61551291 L0.241460938,18.2549088 L0.241460938,20.342587 L0.241460938,24.517874 C0.241460938,30.8491112 5.39234978,36 11.723587,36 L15.898874,36 C22.2301112,36 27.381,30.8491112 27.381,24.517874 L27.381,4.61551291 C27.3810695,2.31329535 25.508,0.440225918 23.205713,0.440225918 Z M14.8550696,10.8785476 C14.8550696,9.72743879 15.7915696,8.79086935 16.9427478,8.79086935 C18.0938566,8.79086935 19.030426,9.72736934 19.030426,10.8785476 L19.030426,15.6851595 C18.4157698,15.3286588 17.7030463,15.1234261 16.9427478,15.1234261 L14.8550696,15.1234261 L14.8550696,10.8785476 Z M8.59210437,10.8785476 C8.59210437,9.72743879 9.52860436,8.79086935 10.6797826,8.79086935 C11.8308914,8.79086935 12.7674608,9.72736934 12.7674608,10.8785476 L12.7674608,15.1234261 L8.59217382,15.1234261 L8.59217382,10.8785476 L8.59210437,10.8785476 Z M2.32913916,4.61551291 C2.32913916,3.46440413 3.26563915,2.52783469 4.41681738,2.52783469 C5.56792616,2.52783469 6.5044956,3.46433467 6.5044956,4.61551291 L6.5044956,15.1982961 C4.87971952,15.4317266 3.4261443,16.2015402 2.32920861,17.3221592 L2.32920861,4.61551291 L2.32913916,4.61551291 Z M25.2933912,24.517874 C25.2933912,29.6980024 21.0790024,33.9123218 15.8989434,33.9123218 L11.7236564,33.9123218 C6.54352801,33.9123218 2.32920861,29.6979329 2.32920861,24.517874 L2.32920861,22.4301957 C2.32920861,19.5523543 4.67052803,17.2110349 7.54836944,17.2110349 L16.9428173,17.2110349 C18.093926,17.2110349 19.0304955,18.1475349 19.0304955,19.2987131 C19.0304955,20.4498914 18.0939955,21.3863914 16.9428173,21.3863914 L7.54829999,21.3863914 C6.97184271,21.3863914 6.5044956,21.8537385 6.5044956,22.4301957 C6.5044956,23.006653 6.97184271,23.4740001 7.54829999,23.4740001 C11.5772502,23.4740001 14.8550696,26.7518195 14.8550696,30.7807697 C14.8550696,31.357227 15.3224167,31.8245741 15.898874,31.8245741 C16.4753312,31.8245741 16.9426783,31.357227 16.9426783,30.7807697 C16.9426783,27.8325033 15.5771691,25.1976074 13.4458052,23.4740001 L16.9426783,23.4740001 C19.2449654,23.4740001 21.1179653,21.6009307 21.1179653,19.2987131 L21.1179653,4.61551291 C21.1179653,3.46440413 22.0544653,2.52783469 23.2056436,2.52783469 C24.3567523,2.52783469 25.2933218,3.46433467 25.2933218,4.61551291 L25.2933218,24.517874 L25.2933912,24.517874 Z" id="Shape"></path>
                    </g>
                </g>
            </g>
        </g>
    </g>
</svg>