<?xml version="1.0" encoding="UTF-8" standalone="no"?>
<!-- Created with Inkscape (http://www.inkscape.org/) -->

<svg
   xmlns:osb="http://www.openswatchbook.org/uri/2009/osb"
   xmlns:dc="http://purl.org/dc/elements/1.1/"
   xmlns:cc="http://creativecommons.org/ns#"
   xmlns:rdf="http://www.w3.org/1999/02/22-rdf-syntax-ns#"
   xmlns:svg="http://www.w3.org/2000/svg"
   xmlns="http://www.w3.org/2000/svg"
   xmlns:xlink="http://www.w3.org/1999/xlink"
   xmlns:sodipodi="http://sodipodi.sourceforge.net/DTD/sodipodi-0.dtd"
   xmlns:inkscape="http://www.inkscape.org/namespaces/inkscape"
   width="202.86621mm"
   height="243.94554mm"
   viewBox="0 0 202.86621 243.94554"
   version="1.1"
   id="svg8"
   inkscape:version="0.92.2 (5c3e80d, 2017-08-06)"
   sodipodi:docname="san_fran.svg">
  <defs
     id="defs2">
    <linearGradient
       id="linearGradient847"
       osb:paint="solid">
      <stop
         style="stop-color:#001400;stop-opacity:1;"
         offset="0"
         id="stop845" />
    </linearGradient>
    <linearGradient
       inkscape:collect="always"
       id="linearGradient841">
      <stop
         style="stop-color:#03d6ff;stop-opacity:1"
         offset="0"
         id="stop837" />
      <stop
         style="stop-color:#61bcff;stop-opacity:1"
         offset="1"
         id="stop839" />
    </linearGradient>
    <linearGradient
       inkscape:collect="always"
       xlink:href="#linearGradient841"
       id="linearGradient843"
       x1="65.84259"
       y1="8.2713737"
       x2="195.0809"
       y2="227.15347"
       gradientUnits="userSpaceOnUse" />
  </defs>
  <sodipodi:namedview
     id="base"
     pagecolor="#ffffff"
     bordercolor="#666666"
     borderopacity="1.0"
     inkscape:pageopacity="0.0"
     inkscape:pageshadow="2"
     inkscape:zoom="1.1894531"
     inkscape:cx="271.72565"
     inkscape:cy="678.33821"
     inkscape:document-units="mm"
     inkscape:current-layer="layer2"
     showgrid="false"
     fit-margin-top="0"
     fit-margin-left="0"
     fit-margin-right="0"
     fit-margin-bottom="0"
     inkscape:window-width="1920"
     inkscape:window-height="1017"
     inkscape:window-x="1912"
     inkscape:window-y="-8"
     inkscape:window-maximized="1" />
  <metadata
     id="metadata5">
    <rdf:RDF>
      <cc:Work
         rdf:about="">
        <dc:format>image/svg+xml</dc:format>
        <dc:type
           rdf:resource="http://purl.org/dc/dcmitype/StillImage" />
        <dc:title></dc:title>
      </cc:Work>
    </rdf:RDF>
  </metadata>
  <g
     inkscape:label="Layer 1"
     inkscape:groupmode="layer"
     id="layer1"
     transform="translate(-3.4826733,-4.285966)">
    <path
       style="fill:url(#linearGradient843);fill-opacity:1;stroke-width:0.13569857"
       d="m 146.99084,248.06187 c -0.029,-0.0933 -0.0815,-0.536 -0.11685,-0.98381 -0.0353,-0.44781 -0.23242,-1.23251 -0.43796,-1.74378 -0.30954,-0.77 -0.34117,-0.9502 -0.1842,-1.04959 0.27636,-0.17498 0.33023,-0.1595 0.78974,0.22716 0.55021,0.46296 0.54056,0.14392 -0.0113,-0.37151 -0.69797,-0.652 -0.84972,-0.69154 -1.20458,-0.31379 -0.39005,0.41518 -0.86329,0.42863 -1.14082,0.0324 -0.26826,-0.38301 -0.26668,-0.69402 0.007,-1.2697 0.18371,-0.38715 0.19094,-0.52821 0.0463,-0.90255 -0.11172,-0.28904 -0.1795,-1.29504 -0.19444,-2.88625 -0.0132,-1.39327 -0.0912,-2.67576 -0.1818,-2.98537 -0.0874,-0.29854 -0.49526,-1.15344 -0.90642,-1.89978 -0.41116,-0.74634 -1.19824,-2.24242 -1.74906,-3.32462 -1.41525,-2.78051 -2.91965,-4.6939 -4.42431,-5.62705 -0.33585,-0.20828 -1.43501,-1.18196 -2.44257,-2.16373 -1.00756,-0.98176 -2.63694,-2.40846 -3.62084,-3.17044 -0.9839,-0.76198 -2.25038,-1.8133 -2.8144,-2.33627 -0.98836,-0.91643 -1.05031,-0.95085 -1.71074,-0.95085 -0.81554,0 -1.57404,0.35044 -2.09276,0.9669 l -0.36687,0.436 -1.1768,-0.60995 c -1.29222,-0.66978 -1.21091,-0.5158 -1.02859,-1.94763 0.0748,-0.58711 0.0108,-0.88076 -0.46941,-2.15509 -1.23292,-3.27178 -1.67697,-3.54339 -5.1126,-3.1272 -1.74714,0.21163 -1.94036,0.21288 -2.32317,0.0149 -0.22964,-0.11876 -0.86818,-0.31759 -1.41898,-0.44185 -0.5508,-0.12427 -1.21518,-0.32951 -1.47639,-0.45609 -0.26122,-0.1266 -0.96346,-0.34002 -1.56054,-0.4743 -2.2839,-0.51362 -3.31908,-1.34112 -3.87196,-3.09517 -0.57535,-1.82535 -0.97419,-2.36007 -2.00548,-2.68871 -0.32883,-0.1048 -0.87259,-0.53975 -1.58598,-1.26864 -1.01793,-1.04005 -1.14902,-1.12789 -2.10333,-1.40923 -1.176208,-0.34677 -2.248639,-0.38387 -2.925199,-0.10118 -0.26065,0.10891 -0.54875,0.17144 -0.64021,0.13898 -0.0915,-0.0325 -0.97127,-0.15095 -1.95513,-0.26329 -1.695581,-0.1936 -2.625851,-0.43652 -3.228291,-0.84299 -0.19253,-0.1299 -0.82494,-0.1806 -2.25305,-0.1806 -2.84022,0 -7.47898,-0.25962 -7.68437,-0.43008 -0.0958,-0.0795 -0.36894,-0.48848 -0.60705,-0.90888 -0.23811,-0.4204 -0.49802,-0.80877 -0.57758,-0.86303 -0.0796,-0.0543 -0.5828,-0.19678 -1.11831,-0.31668 -0.63578,-0.14237 -1.00355,-0.29591 -1.05979,-0.44246 -0.22113,-0.57626 -0.22216,-2.04455 -0.003,-3.9051 0.28749,-2.43782 0.22798,-3.95938 -0.18664,-4.77211 -0.27262,-0.53438 -0.28053,-0.64712 -0.1424,-2.02893 0.0804,-0.80471 0.17884,-2.0127 0.21865,-2.68441 0.0651,-1.09834 0.0453,-1.24578 -0.19675,-1.46455 -0.14802,-0.13381 -0.50569,-0.27364 -0.79483,-0.31075 -0.28913,-0.0371 -1.08857,-0.3551 -1.77652,-0.70662 -1.22458,-0.62574 -1.25852,-0.65623 -1.61748,-1.45334 -0.46789,-1.03898 -0.56028,-1.91575 -0.26254,-2.49153 0.17939,-0.34689 0.20584,-0.64184 0.13285,-1.48123 -0.0501,-0.57645 -0.1516,-1.12441 -0.2255,-1.21771 -0.0839,-0.10587 -0.48091,-0.16962 -1.05653,-0.16962 -0.5072,0 -1.018075,-0.0368 -1.135285,-0.0818 -0.117211,-0.045 -0.558656,-0.5793 -0.980989,-1.18736 -1.277463,-1.83929 -2.212493,-2.91226 -3.460773,-3.97132 -1.401711,-1.18923 -1.710766,-1.5879 -1.863097,-2.4033 -0.09689,-0.51863 -0.339207,-0.85376 -1.664635,-2.30223 -1.268652,-1.38644 -1.593128,-1.82766 -1.781206,-2.42209 -0.735025,-2.32309 -3.920228,-6.50369 -5.662801,-7.43248 -1.693265,-0.9025 -2.073945,-1.49131 -2.651035,-4.10043 -0.182877,-0.82683 -0.494376,-2.00065 -0.692219,-2.60849 -0.471437,-1.44844 -0.517253,-2.88124 -0.109598,-3.42749 0.45993,-0.61629 0.950099,-0.90075 1.67158,-0.97008 l 0.682442,-0.0656 0.143939,-0.69576 c 0.313412,-1.51489 0.409635,-2.38147 0.410388,-3.69592 l 8.14e-4,-1.37181 -0.539227,-0.61259 c -0.809793,-0.91998 -1.283239,-1.09341 -3.265019,-1.19606 -1.024473,-0.0531 -1.983122,-0.18184 -2.41052,-0.3238 -0.932275,-0.30965 -2.543001,-1.7553 -3.002392,-2.6947 -0.234785,-0.4801 -0.456456,-0.72585 -0.774664,-0.85881 -0.33906,-0.14166 -0.484533,-0.31565 -0.607733,-0.72686 -0.08908,-0.29733 -0.416672,-0.80643 -0.727972,-1.13132 -0.808875,-0.84419 -0.946876,-1.45388 -0.834757,-3.68797 0.08826,-1.7587 0.08139,-1.82659 -0.231594,-2.2878 -0.177405,-0.26142 -0.396464,-0.85098 -0.486795,-1.31013 -0.147529,-0.74987 -0.209077,-0.85355 -0.604933,-1.01894 -0.37468,-0.15656 -0.464812,-0.28863 -0.601718,-0.88174 -0.214452,-0.92906 -0.203573,-1.77706 0.02702,-2.10628 0.218191,-0.31152 0.192963,-2.35818 -0.04009,-3.25223 -0.225068,-0.86343 -0.186379,-0.98418 0.428756,-1.33823 0.674479,-0.3882 1.498955,-0.54296 2.05971,-0.38661 0.696173,0.1941 0.978375,1.5706 0.510242,2.48881 -0.217163,0.42596 -0.223072,0.51633 -0.05073,0.77589 0.107284,0.16158 0.202624,0.56243 0.211869,0.89079 l 0.01681,0.59701 1.809968,1.04634 c 0.995484,0.57548 2.174813,1.35981 2.620733,1.74294 1.255644,1.07883 1.615329,1.30724 2.058582,1.30724 0.403578,0 0.392828,-0.0182 -0.632064,-1.0714 -1.127597,-1.15871 -1.446543,-1.73307 -1.781573,-3.20825 -0.286142,-1.25993 -0.529186,-1.62698 -1.713036,-2.58709 -1.304865,-1.05825 -1.508003,-1.42509 -1.60584,-2.89988 l -0.07827,-1.17991 -0.746342,-0.60639 c -0.926812,-0.75301 -1.206138,-1.25172 -0.894164,-1.59645 0.11862,-0.13107 0.215671,-0.28514 0.215671,-0.34238 0,-0.0572 0.126287,-0.28142 0.280637,-0.49818 0.220076,-0.30907 0.38522,-0.39412 0.76526,-0.39412 0.301982,0 0.736314,-0.15487 1.152479,-0.41094 0.367321,-0.22601 0.893122,-0.45796 1.168446,-0.51543 l 0.500588,-0.10449 -0.742522,-0.40053 c -0.412391,-0.22246 -0.88404,-0.61171 -1.060819,-0.87549 -0.175062,-0.26122 -0.421037,-0.51542 -0.546613,-0.5649 -0.125575,-0.0495 -0.628483,-0.24288 -1.117574,-0.4298 l -0.889253,-0.33984 -0.595143,0.76905 c -0.878226,1.13485 -1.17345,2.67757 -0.602995,3.15101 0.121257,0.10063 0.194825,0.41518 0.194825,0.833 0,0.44548 0.144049,1.01733 0.428212,1.69992 0.402502,0.96685 0.41388,1.03909 0.189505,1.20316 -0.166959,0.12208 -0.338939,0.13643 -0.572193,0.0477 -0.330533,-0.12567 -0.332679,-0.1214 -0.242183,0.48208 0.07127,0.47523 0.04678,0.62596 -0.111574,0.68672 -0.362593,0.13914 -1.182299,-0.3215 -2.043228,-1.1482 -0.848627,-0.8149 -1.471379,-1.16988 -1.818596,-1.03664 -0.35956,0.13798 -1.237308,-0.46654 -2.14634,-1.4782 -0.683613,-0.7608 -1.072478,-1.07489 -1.539685,-1.24364 -0.343794,-0.12417 -0.75727,-0.36749 -0.918837,-0.5407 l -0.293758,-0.31493 -0.316886,0.63869 c -0.378082,0.76203 -0.902328,1.09776 -1.165002,0.74607 -0.250493,-0.33537 -0.207408,-1.817 0.101774,-3.49984 0.149268,-0.81245 0.271397,-1.67913 0.271397,-1.92596 0,-0.51108 0.284675,-0.60162 0.702565,-0.22343 0.469628,0.425 0.406193,0.0666 -0.179481,-1.01413 -0.58292,-1.07562 -1.351032,-1.789486 -1.925465,-1.789486 -0.263767,0 -0.65043,-0.726028 -0.96056,-1.803616 -0.300586,-1.044427 -0.868707,-1.64395 -2.327716,-2.456371 -1.555502,-0.866152 -2.180131,-1.532802 -3.09788,-3.306285 -0.903594,-1.746128 -1.066679,-1.955999 -1.8076,-2.326152 -0.3147,-0.157221 -0.644792,-0.42305 -0.733536,-0.590734 -0.08875,-0.167683 -0.975427,-1.088592 -1.970403,-2.046465 -1.530022,-1.472964 -1.883883,-1.893004 -2.294239,-2.723301 -0.405185,-0.819837 -0.484993,-1.125619 -0.483998,-1.854426 6.51e-4,-0.479991 0.09658,-1.14135 0.213157,-1.469686 L 17.055243,80.33172 16.321041,78.486124 C 14.346407,73.522398 14.218749,72.189507 15.345407,68.299415 15.637315,67.291524 15.616133,66.736772 15.213115,64.83475 15.023345,63.93914 14.806679,62.84226 14.731635,62.39724 14.614753,61.706903 14.500152,61.487996 13.949748,60.904686 13.299659,60.21573 12.276173,58.760225 11.560664,57.507158 11.347581,57.133987 10.882188,56.507873 10.526458,56.115794 9.9782779,55.5116 9.3177209,54.235548 9.3177209,53.780777 c 0,-0.0661 -0.41536,-0.396317 -0.9230219,-0.73381 -0.507662,-0.337493 -1.686958,-1.39714 -2.620658,-2.354772 l -1.6976347,-1.741147 0.0056,-1.353435 c 0.0047,-1.131408 -0.04401,-1.455074 -0.296862,-1.972998 -0.244752,-0.501335 -0.302471,-0.853374 -0.302471,-1.84483 0,-1.20236 0.01746,-1.268153 0.934013,-3.519243 C 5.840881,36.762658 7.378109,33.230629 8.129818,31.729022 8.7478619,30.494425 8.8000969,30.31713 8.7295179,29.693544 8.6869979,29.317847 8.4980719,28.644073 8.309686,28.196268 7.786466,26.952536 7.881965,25.414447 8.4824079,25.414447 c 0.220883,0 0.278659,-0.166874 0.411095,-1.187362 0.08475,-0.65305 0.313473,-1.859071 0.508272,-2.680047 0.7016071,-2.956912 0.6744061,-2.673598 0.33291,-3.467427 -0.228023,-0.530054 -0.286542,-0.855361 -0.224107,-1.245808 0.07162,-0.447906 0.01271,-0.646017 -0.386588,-1.300062 C 8.7822609,14.973652 8.5918899,14.429695 8.429794,13.549578 8.132202,11.933764 8.102757,11.870796 7.156501,10.82664 5.882678,9.4210265 5.823045,8.904483 6.678788,6.6886809 6.936164,6.0222508 7.146744,5.3596811 7.146744,5.2163038 c 0,-0.1535926 0.12543,-0.2971273 0.305322,-0.3493908 0.727832,-0.2114559 16.115392,-0.3293239 33.755022,-0.2585619 14.234156,0.057101 19.564275,0.035202 21.03328,-0.086417 4.187405,-0.346674 27.570472,-0.2979242 27.926772,0.058223 0.14434,0.1442764 0.1672,19.9048839 0.0473,40.9176779 -0.0782,13.702712 -0.0646,19.639778 0.05,21.915318 0.10245,2.034455 0.1248,5.010827 0.0642,8.54901 -0.0844,4.925602 -0.0717,5.478536 0.13681,5.974626 0.23101,0.549573 1.44334,1.737939 3.93549,3.857729 1.292801,1.09963 3.756871,3.334505 7.79467,7.069628 1.49708,1.384865 5.92785,5.439839 9.84615,9.011064 8.49492,7.74244 13.14724,12.05557 17.64341,16.35706 1.83328,1.75391 4.79626,4.53686 6.5844,6.18434 7.03426,6.48097 10.05101,9.42619 31.74982,30.99707 7.16984,7.12757 14.89353,14.88274 17.16375,17.23372 2.27023,2.35097 5.69791,5.86218 7.61706,7.80266 l 3.48938,3.52817 0.15155,1.27642 c 0.18203,1.53312 0.55586,2.4659 1.20157,2.99815 0.46971,0.38718 0.47598,0.40544 0.31214,0.90994 l -0.16721,0.51483 0.73093,0.76805 c 1.21564,1.27737 1.83594,2.68382 2.68363,6.08472 0.60452,2.42535 0.93792,2.91565 2.87256,4.22434 0.46897,0.31725 1.17328,0.90377 1.5651,1.30337 0.63383,0.6464 0.71204,0.78952 0.70895,1.29721 -0.003,0.55907 -0.0232,0.58306 -0.97284,1.1813 -1.17402,0.73956 -4.56573,3.94051 -4.88334,4.60869 -0.1255,0.264 -0.41706,0.90226 -0.64791,1.41835 -0.23086,0.51609 -0.6645,1.20386 -0.96364,1.52838 -0.59701,0.64769 -0.60115,0.69269 -0.25284,2.74867 0.17414,1.02781 0.14536,2.44278 -0.0594,2.92302 -0.12158,0.28512 -0.13848,0.61805 -0.0575,1.13413 0.21137,1.34782 -0.22762,2.81314 -1.0623,3.546 -0.25293,0.22207 -0.45987,0.50027 -0.45987,0.61821 0,0.43277 -0.42248,1.00829 -1.33644,1.82057 -0.93362,0.82975 -0.9359,0.83353 -0.86824,1.43387 0.0373,0.33106 -0.002,0.87957 -0.0875,1.21893 -0.1395,0.554 -0.12642,0.65613 0.12811,1.00039 0.47326,0.64013 0.55243,1.33469 0.33767,2.96289 -0.18306,1.38792 -0.14426,2.17614 0.12885,2.61803 0.19572,0.31669 1.01622,0.54495 1.95889,0.54495 0.91077,0 0.96977,0.0203 1.48203,0.50887 0.67212,0.6411 0.83453,1.21917 0.82928,2.95144 -0.004,1.23809 -0.0334,1.39267 -0.33832,1.76409 -0.18381,0.2239 -0.52665,0.9437 -0.76185,1.59956 -0.63216,1.76264 -0.64573,1.77025 -3.52034,1.97639 -3.19343,0.22899 -6.82575,0.57079 -14.64306,1.37791 -3.61976,0.37373 -8.19958,0.82991 -10.17739,1.01374 -1.97781,0.18383 -5.42794,0.5487 -7.66697,0.8108 -4.72874,0.55354 -14.44073,1.56706 -15.01634,1.56706 -0.21668,0 -0.41765,-0.0763 -0.44659,-0.16963 z m 0.0584,-3.02257 c -0.0944,-0.11376 -0.20696,-0.1715 -0.25014,-0.12832 -0.0432,0.0432 0.0113,0.13532 0.12111,0.20476 0.28726,0.18167 0.32479,0.15944 0.12903,-0.0764 z m -1.50317,-2.83698 c -0.0357,-0.0357 -0.14575,0.0697 -0.24456,0.23424 -0.17164,0.28582 -0.16875,0.28871 0.0649,0.0649 0.1345,-0.12883 0.21535,-0.26344 0.17965,-0.29914 z m -6.09322,-15.99431 c 0,-0.0222 -0.25952,-0.28168 -0.57672,-0.57671 l -0.57672,-0.53641 0.53641,0.57672 c 0.49885,0.53635 0.61703,0.63907 0.61703,0.5364 z m -2.71397,-2.1821 c 0,-0.0282 -0.10686,-0.13503 -0.23747,-0.23747 -0.21523,-0.16878 -0.22003,-0.16399 -0.0512,0.0512 0.17727,0.22603 0.28871,0.29793 0.28871,0.18623 z m 2.86698,-0.45763 c 0.16879,-0.21523 0.164,-0.22002 -0.0512,-0.0512 -0.22603,0.17728 -0.29792,0.28872 -0.18623,0.28872 0.0282,0 0.13504,-0.10687 0.23747,-0.23748 z m -3.95257,-0.61428 c 0,-0.0207 -0.44272,-0.46338 -0.98381,-0.98381 l -0.98382,-0.94625 0.94625,0.98381 c 0.87888,0.91377 1.02138,1.04579 1.02138,0.94625 z m 61.76017,-1.0141 c 0.16878,-0.21523 0.16399,-0.22002 -0.0512,-0.0512 -0.22603,0.17728 -0.29793,0.28871 -0.18623,0.28871 0.0282,0 0.13503,-0.10686 0.23747,-0.23747 z m -56.73932,-2.93041 c 0,-0.0258 -0.1374,-0.16315 -0.30532,-0.30532 l -0.30533,-0.25851 0.25851,0.30532 c 0.24293,0.28693 0.35214,0.3671 0.35214,0.25851 z m -11.39868,-1.48489 c 0,-0.0215 -0.32059,-0.34206 -0.71242,-0.71242 l -0.71242,-0.67339 0.67339,0.71241 c 0.62573,0.662 0.75145,0.77465 0.75145,0.6734 z m -0.46641,-2.57318 0.39856,-0.44102 -0.44102,0.39856 c -0.4111,0.37152 -0.5034,0.48349 -0.39856,0.48349 0.0233,0 0.22181,-0.19846 0.44102,-0.44103 z m -0.21209,-0.30532 c 0.25319,-0.26122 0.42981,-0.47494 0.39249,-0.47494 -0.0373,0 -0.275,0.21372 -0.52818,0.47494 -0.25319,0.26122 -0.42981,0.47495 -0.39249,0.47495 0.0373,0 0.275,-0.21373 0.52818,-0.47495 z m -7.73481,-4.3187 c 0,-0.0243 -0.16793,-0.19223 -0.37318,-0.37317 l -0.37317,-0.32897 0.32898,0.37317 c 0.30748,0.34878 0.41737,0.4354 0.41737,0.32897 z m 13.18007,-0.19327 c 0.16879,-0.21524 0.16399,-0.22003 -0.0512,-0.0512 -0.22604,0.17727 -0.29792,0.28871 -0.18624,0.28871 0.0282,0 0.13505,-0.10686 0.23748,-0.23747 z m -26.61423,-2.9278 c 0,-0.0243 -0.16793,-0.19223 -0.37318,-0.37317 l -0.37317,-0.32897 0.32898,0.37317 c 0.30748,0.34879 0.41737,0.4354 0.41737,0.32897 z m 95.60818,-1.34671 0.39856,-0.44102 -0.44102,0.39856 c -0.24256,0.21921 -0.44102,0.41767 -0.44102,0.44102 0,0.10484 0.11197,0.0125 0.48348,-0.39856 z m -97.64366,-2.59116 c 0,-0.0258 -0.1374,-0.16315 -0.30533,-0.30532 l -0.30532,-0.25851 0.25851,0.30532 c 0.24293,0.28692 0.35214,0.36709 0.35214,0.25851 z m 100.14555,-0.81862 c 0,-0.0282 -0.10686,-0.13503 -0.23747,-0.23747 -0.21523,-0.16878 -0.22002,-0.16399 -0.0512,0.0512 0.17728,0.22603 0.28871,0.29793 0.28871,0.18623 z m -102.04533,-0.26697 c 0,-0.0258 -0.1374,-0.16315 -0.30533,-0.30532 l -0.30532,-0.25851 0.25851,0.30532 c 0.24293,0.28692 0.35214,0.36709 0.35214,0.25851 z m 99.05996,-2.03286 c 0,-0.0243 -0.16793,-0.19223 -0.37317,-0.37317 l -0.37317,-0.32898 0.32897,0.37317 c 0.30748,0.34879 0.41737,0.43541 0.41737,0.32898 z m -4.07096,-9.23012 c 0,-0.0258 -0.13739,-0.16315 -0.30532,-0.30532 l -0.30532,-0.25851 0.25851,0.30532 c 0.24292,0.28692 0.35213,0.36709 0.35213,0.25851 z m -1.08558,-2.30688 c 0,-0.0258 -0.1374,-0.16315 -0.30533,-0.30532 l -0.30532,-0.25851 0.25851,0.30533 c 0.24293,0.28692 0.35214,0.36709 0.35214,0.2585 z M 95.203821,185.63606 c -0.0311,-0.0211 -0.17867,-0.12798 -0.32794,-0.23748 -0.25105,-0.18414 -0.25743,-0.18126 -0.0852,0.0384 0.10243,0.13061 0.25,0.23747 0.32794,0.23747 0.0779,0 0.11625,-0.0173 0.0852,-0.0384 z m -7.782831,-2.5738 0.39856,-0.44102 -0.44102,0.39856 c -0.24256,0.21921 -0.44102,0.41767 -0.44102,0.44102 0,0.10484 0.11197,0.0125 0.48348,-0.39856 z m 0.34802,0.20355 c 0.16879,-0.21523 0.16399,-0.22002 -0.0512,-0.0512 -0.13061,0.10244 -0.23747,0.2093 -0.23747,0.23747 0,0.1117 0.11143,0.0398 0.28871,-0.18623 z m 105.28479,-1.97006 c 0,-0.02 -0.65644,-0.67643 -1.45876,-1.45876 l -1.45876,-1.4224 1.42241,1.45876 c 1.32117,1.35492 1.49511,1.5204 1.49511,1.4224 z m -4.74945,-4.88664 c 0,-0.0208 -0.41218,-0.433 -0.91596,-0.91596 l -0.91597,-0.87812 0.87812,0.91596 c 0.81564,0.85079 0.95381,0.97799 0.95381,0.87812 z m -4.47805,-4.64375 c -0.55603,-0.55976 -1.04148,-1.01774 -1.07879,-1.01774 -0.0373,0 0.38706,0.45798 0.94309,1.01774 0.55602,0.55975 1.04147,1.01774 1.07879,1.01774 0.0373,0 -0.38707,-0.45799 -0.94309,-1.01774 z M 68.618202,169.21591 c 0,-0.0215 -0.320588,-0.34206 -0.712418,-0.71242 l -0.712417,-0.67339 0.673392,0.71242 c 0.625727,0.66199 0.751443,0.77464 0.751443,0.67339 z m 110.865738,-1.89832 c 0,-0.0207 -0.44271,-0.46338 -0.98381,-0.98381 l -0.98382,-0.94626 0.94626,0.98382 c 0.87888,0.91377 1.02137,1.04579 1.02137,0.94625 z m -114.5296,-2.72765 c 0,-0.0282 -0.106863,-0.13503 -0.237473,-0.23747 -0.215226,-0.16878 -0.220025,-0.16399 -0.05123,0.0512 0.177273,0.22603 0.288707,0.29793 0.288707,0.18623 z m -1.356986,-1.48267 c 0,-0.0227 -0.228991,-0.25166 -0.50887,-0.50887 l -0.508869,-0.46764 0.46764,0.50887 c 0.435268,0.47364 0.550099,0.57126 0.550099,0.46764 z m 21.440376,-0.54838 c 0,-0.0258 -0.13739,-0.16315 -0.30532,-0.30532 l -0.30532,-0.25851 0.2585,0.30532 c 0.24293,0.28692 0.35214,0.36709 0.35214,0.25851 z m 86.5757,-3.0064 c -1.45393,-1.45537 -2.67405,-2.64613 -2.71137,-2.64613 -0.0373,0 1.12174,1.19076 2.57567,2.64613 1.45393,1.45536 2.67405,2.64612 2.71136,2.64612 0.0373,0 -1.12174,-1.19076 -2.57566,-2.64612 z m -86.70692,1.89978 c 0.18414,-0.25105 0.18126,-0.25744 -0.0384,-0.0852 -0.13061,0.10244 -0.23748,0.25001 -0.23748,0.32794 0,0.0779 0.0173,0.11626 0.0384,0.0852 0.0211,-0.0311 0.12798,-0.17868 0.23748,-0.32794 z m -0.25857,-0.30533 c 0.1688,-0.21523 0.164,-0.22002 -0.0512,-0.0512 -0.22604,0.17728 -0.29792,0.28872 -0.18623,0.28872 0.0282,0 0.13504,-0.10687 0.23747,-0.23748 z m 1.54323,-1.11951 c 0.29151,-0.29854 0.49949,-0.54279 0.46217,-0.54279 -0.0373,0 -0.30636,0.24425 -0.59787,0.54279 -0.29151,0.29854 -0.49949,0.54279 -0.46218,0.54279 0.0373,0 0.30637,-0.24425 0.59788,-0.54279 z m -0.2714,-0.2714 c 0.29151,-0.29853 0.49949,-0.54279 0.46218,-0.54279 -0.0373,0 -0.30636,0.24426 -0.59788,0.54279 -0.29151,0.29854 -0.49949,0.5428 -0.46217,0.5428 0.0373,0 0.30636,-0.24426 0.59787,-0.5428 z m -5.0887,-0.17244 c 0,-0.0202 -0.56484,-0.58507 -1.25521,-1.25521 l -1.25521,-1.21847 1.21846,1.25521 c 1.13167,1.16582 1.29196,1.31698 1.29196,1.21847 z m 0.5428,-0.01 c 0,-0.0258 -0.1374,-0.16315 -0.30532,-0.30533 l -0.30532,-0.2585 0.2585,0.30532 c 0.24293,0.28692 0.35214,0.36709 0.35214,0.25851 z m -2.17118,-2.16221 c 0,-0.0208 -0.41218,-0.433 -0.91596,-0.91597 l -0.91597,-0.87812 0.87812,0.91597 c 0.81564,0.85079 0.95381,0.97799 0.95381,0.87812 z m 10.99159,-1.52272 c 0.40539,-0.41048 0.70654,-0.74634 0.66922,-0.74634 -0.0373,0 -0.39953,0.33586 -0.80492,0.74634 -0.40539,0.41049 -0.70654,0.74635 -0.66922,0.74635 0.0373,0 0.39953,-0.33586 0.80492,-0.74635 z m -12.75567,0.29243 c 0,-0.0258 -0.13739,-0.16315 -0.30532,-0.30532 l -0.30532,-0.2585 0.2585,0.30532 c 0.24293,0.28692 0.35214,0.36709 0.35214,0.2585 z m 12.61997,-0.69952 c 0.40539,-0.41049 0.70654,-0.74634 0.66922,-0.74634 -0.0373,0 -0.39953,0.33585 -0.80492,0.74634 -0.40539,0.41049 -0.70654,0.74634 -0.66922,0.74634 0.0373,0 0.39953,-0.33585 0.80492,-0.74634 z m -31.210676,0.28801 c 0,-0.0282 -0.106863,-0.13504 -0.237473,-0.23748 -0.215226,-0.16878 -0.220026,-0.16399 -0.05123,0.0512 0.177272,0.22604 0.288707,0.29793 0.288707,0.18624 z m -0.678493,-0.80981 c 0,-0.0258 -0.137395,-0.16315 -0.305322,-0.30532 l -0.305322,-0.25851 0.258505,0.30532 c 0.24293,0.28692 0.352139,0.36709 0.352139,0.25851 z m 17.369419,-0.94554 c 0,-0.0233 -0.19846,-0.22181 -0.44102,-0.44102 l -0.44102,-0.39856 0.39856,0.44102 c 0.37151,0.4111 0.48348,0.5034 0.48348,0.39856 z m -0.81419,-0.27016 c 0,-0.0227 -0.22899,-0.25167 -0.50887,-0.50887 l -0.50887,-0.46764 0.46764,0.50887 c 0.43527,0.47364 0.5501,0.57126 0.5501,0.46764 z m -3.917951,-1.68893 c 0.168791,-0.21523 0.163991,-0.22002 -0.05124,-0.0512 -0.13061,0.10244 -0.237472,0.2093 -0.237472,0.23747 0,0.1117 0.111434,0.0398 0.288707,-0.18623 z m 6.242131,-0.4071 c 0.1688,-0.21523 0.164,-0.22002 -0.0512,-0.0512 -0.22604,0.17728 -0.29792,0.28872 -0.18623,0.28872 0.0282,0 0.13504,-0.10687 0.23747,-0.23748 z m -7.480728,-0.48783 c 0,-0.0258 -0.137395,-0.16315 -0.305322,-0.30532 l -0.305322,-0.25851 0.258505,0.30532 c 0.24293,0.28692 0.352139,0.36709 0.352139,0.25851 z m -0.135699,-0.68292 c 0,-0.0282 -0.106862,-0.13503 -0.237472,-0.23747 -0.215226,-0.16878 -0.220026,-0.16399 -0.05124,0.0512 0.177273,0.22603 0.288707,0.29792 0.288707,0.18623 z m 58.621787,-0.12477 c 0,-0.0222 -0.25952,-0.28169 -0.57672,-0.57672 l -0.57672,-0.53641 0.53641,0.57672 c 0.49886,0.53635 0.61703,0.63908 0.61703,0.53641 z m -2.03548,-1.91071 c 0,-0.0282 -0.10686,-0.13503 -0.23747,-0.23747 -0.21523,-0.16878 -0.22003,-0.16399 -0.0512,0.0512 0.17728,0.22603 0.28871,0.29793 0.28871,0.18623 z M 67.125517,147.5007 c 0,-0.0233 -0.198459,-0.22181 -0.44102,-0.44102 l -0.441021,-0.39856 0.398559,0.44102 c 0.371513,0.4111 0.483482,0.5034 0.483482,0.39856 z m 31.685625,-0.77173 c 0.13508,-0.14927 0.21508,-0.2714 0.17776,-0.2714 -0.0373,0 -0.17838,0.12213 -0.31346,0.2714 -0.13509,0.14927 -0.21508,0.2714 -0.17776,0.2714 0.0373,0 0.17837,-0.12213 0.31346,-0.2714 z M 78.5242,146.68647 c 0,-0.0233 -0.19846,-0.22181 -0.44102,-0.44102 l -0.44102,-0.39856 0.39856,0.44102 c 0.37151,0.4111 0.48348,0.5034 0.48348,0.39856 z m 22.05102,-1.31452 c 0.44313,-0.44781 0.77516,-0.8142 0.73784,-0.8142 -0.0373,0 -0.43041,0.36639 -0.87354,0.8142 -0.443128,0.4478 -0.775158,0.81419 -0.737848,0.81419 0.0373,0 0.430418,-0.36639 0.873548,-0.81419 z m -0.2714,-0.2714 c 0.44313,-0.44781 0.77516,-0.81419 0.73785,-0.81419 -0.0373,0 -0.43041,0.36638 -0.87355,0.81419 -0.443128,0.4478 -0.775158,0.81419 -0.737838,0.81419 0.0373,0 0.43041,-0.36639 0.873538,-0.81419 z m -23.13661,0.63603 c 0,-0.0233 -0.19846,-0.22181 -0.44102,-0.44102 l -0.44102,-0.39856 0.39856,0.44102 c 0.37151,0.4111 0.48348,0.5034 0.48348,0.39856 z m -0.40709,-0.95163 c 0,-0.0243 -0.16793,-0.19223 -0.37317,-0.37317 l -0.37318,-0.32897 0.32898,0.37317 c 0.30748,0.34879 0.41737,0.4354 0.41737,0.32897 z m -1.08559,-0.67849 c 0,-0.0243 -0.16793,-0.19223 -0.37317,-0.37317 l -0.37317,-0.32897 0.32897,0.37317 c 0.30748,0.34878 0.41737,0.4354 0.41737,0.32897 z m -22.915753,-0.87173 c 0.168792,-0.21523 0.163992,-0.22002 -0.05123,-0.0512 -0.13061,0.10244 -0.237473,0.2093 -0.237473,0.23748 0,0.11169 0.111435,0.0398 0.288707,-0.18624 z m 22.644353,0.055 c 0,-0.0257 -0.13739,-0.16315 -0.30532,-0.30532 l -0.30532,-0.25851 0.2585,0.30533 c 0.24293,0.28692 0.35214,0.36709 0.35214,0.2585 z m -0.94989,-0.54722 c 0,-0.0282 -0.10686,-0.13503 -0.23747,-0.23747 -0.21523,-0.16878 -0.22003,-0.16399 -0.0512,0.0512 0.17727,0.22603 0.28871,0.29793 0.28871,0.18623 z m 0,-0.54279 c 0,-0.0282 -0.10686,-0.13503 -0.23747,-0.23747 -0.21523,-0.16879 -0.22003,-0.164 -0.0512,0.0512 0.17727,0.22603 0.28871,0.29792 0.28871,0.18623 z m -0.67849,-0.81419 c 0,-0.0282 -0.10686,-0.13504 -0.23747,-0.23748 -0.21523,-0.16878 -0.22003,-0.16399 -0.0512,0.0512 0.17727,0.22604 0.2887,0.29793 0.2887,0.18624 z m -12.348573,-0.94285 c 0,-0.0243 -0.167927,-0.19223 -0.373171,-0.37317 l -0.373171,-0.32897 0.328975,0.37317 c 0.307478,0.34878 0.417367,0.4354 0.417367,0.32897 z m 11.805773,-0.70214 c 0.17529,-0.18659 0.28818,-0.33925 0.25086,-0.33925 -0.0373,0 -0.21127,0.15266 -0.38655,0.33925 -0.17529,0.18658 -0.28818,0.33924 -0.25086,0.33924 0.0373,0 0.21127,-0.15266 0.38655,-0.33924 z m -0.27139,-0.2714 c 0.17529,-0.18659 0.28817,-0.33925 0.25085,-0.33925 -0.0373,0 -0.21126,0.15266 -0.38655,0.33925 -0.17529,0.18658 -0.28818,0.33924 -0.25086,0.33924 0.0373,0 0.21127,-0.15266 0.38656,-0.33924 z m -13.705561,-0.37956 c 0,-0.0222 -0.259523,-0.28169 -0.576719,-0.57672 l -0.576718,-0.53641 0.536409,0.57672 c 0.498855,0.53635 0.617028,0.63908 0.617028,0.53641 z m 89.628911,-2.13087 c -0.89327,-0.89561 -1.65467,-1.62838 -1.69198,-1.62838 -0.0373,0 0.66301,0.73277 1.55628,1.62838 0.89328,0.89562 1.65467,1.62839 1.69199,1.62839 0.0373,0 -0.66301,-0.73277 -1.55629,-1.62839 z m -73.95572,0.94989 c 0.29151,-0.29853 0.49949,-0.54279 0.46217,-0.54279 -0.0373,0 -0.30636,0.24426 -0.59787,0.54279 -0.29152,0.29854 -0.4995,0.5428 -0.46218,0.5428 0.0373,0 0.30636,-0.24426 0.59788,-0.5428 z m 0.33924,-0.91029 c 0,-0.10189 -0.12183,0.006 -0.68416,0.60497 l -0.60497,0.64457 0.64456,-0.60497 c 0.35452,-0.33274 0.64457,-0.62279 0.64457,-0.64457 z m -7.599118,0.99476 c 0,-0.0282 -0.106863,-0.13504 -0.237473,-0.23747 -0.215226,-0.1688 -0.220026,-0.164 -0.05123,0.0512 0.177272,0.22604 0.288707,0.29792 0.288707,0.18624 z m 54.839538,-0.32194 c 0.16879,-0.21522 0.16399,-0.22002 -0.0512,-0.0512 -0.13061,0.10243 -0.23747,0.20929 -0.23747,0.23747 0,0.11169 0.11144,0.0398 0.28871,-0.18624 z m -55.789428,-0.62795 c 0,-0.0282 -0.106863,-0.13504 -0.237473,-0.23747 -0.215226,-0.1688 -0.220026,-0.164 -0.05123,0.0512 0.177272,0.22604 0.288707,0.29792 0.288707,0.18624 z m 27.971219,-0.18624 c 0.16879,-0.21523 0.16399,-0.22003 -0.0512,-0.0512 -0.13061,0.10243 -0.237471,0.20929 -0.237471,0.23747 0,0.11168 0.111431,0.0398 0.288701,-0.18624 z m -36.73985,-0.38026 c 0.04634,-0.12076 0.02359,-0.17523 -0.05333,-0.12769 -0.07378,0.0456 -0.134145,0.14037 -0.134145,0.2106 0,0.19519 0.09727,0.15218 0.187476,-0.0829 z m -2.205645,-0.43397 c 0.172271,-0.21966 0.165885,-0.22254 -0.08516,-0.0384 -0.149268,0.10949 -0.296841,0.21635 -0.327939,0.23747 -0.0311,0.0211 0.0072,0.0384 0.08516,0.0384 0.07794,0 0.225507,-0.10686 0.327939,-0.23747 z m 41.981405,-3.01929 c 0.13508,-0.14927 0.21508,-0.2714 0.17776,-0.2714 -0.0373,0 -0.17837,0.12213 -0.31346,0.2714 -0.13509,0.14926 -0.21508,0.27139 -0.17776,0.27139 0.0373,0 0.17837,-0.12213 0.31346,-0.27139 z m 47.155249,0.0978 c 0,-0.0208 -0.41218,-0.433 -0.91596,-0.91597 l -0.91597,-0.87812 0.87812,0.91597 c 0.81565,0.85079 0.95381,0.978 0.95381,0.87812 z m -89.696758,-0.55618 c 0,-0.0282 -0.106863,-0.13504 -0.237473,-0.23748 -0.215226,-0.16879 -0.220025,-0.16399 -0.05123,0.0512 0.177273,0.22604 0.288707,0.29792 0.288707,0.18624 z m -8.141915,-0.1357 c 0,-0.0282 -0.106863,-0.13504 -0.237473,-0.23747 -0.215226,-0.1688 -0.220025,-0.164 -0.05123,0.0512 0.177273,0.22604 0.288707,0.29792 0.288707,0.18624 z m 7.056326,-1.22129 c 0,-0.0282 -0.106862,-0.13504 -0.237472,-0.23747 -0.215226,-0.16879 -0.220026,-0.16399 -0.05123,0.0512 0.177273,0.22604 0.288707,0.29793 0.288707,0.18624 z m -8.141915,-0.4071 c 0,-0.0282 -0.106862,-0.13504 -0.237472,-0.23747 -0.215226,-0.16879 -0.220026,-0.16399 -0.05123,0.0512 0.177273,0.22604 0.288707,0.29792 0.288707,0.18623 z m 54.415132,-0.26698 c 0,-0.0258 -0.13739,-0.16314 -0.30532,-0.30532 l -0.305318,-0.2585 0.258498,0.30532 c 0.24293,0.28693 0.35214,0.3671 0.35214,0.2585 z m 0.2714,-0.26877 c 0,-0.0243 -0.16793,-0.19223 -0.37317,-0.37317 l -0.373168,-0.32898 0.328968,0.37317 c 0.30748,0.34879 0.41737,0.4354 0.41737,0.32898 z m 1.91709,-0.60037 c 0.16879,-0.21523 0.16399,-0.22003 -0.0512,-0.0512 -0.13061,0.10243 -0.23747,0.2093 -0.23747,0.23747 0,0.11169 0.11143,0.0398 0.28871,-0.18623 z m 38.38539,-0.37317 c -0.32962,-0.33586 -0.62984,-0.61065 -0.66715,-0.61065 -0.0373,0 0.20183,0.27479 0.53145,0.61065 0.32961,0.33585 0.62983,0.61064 0.66715,0.61064 0.0373,0 -0.20184,-0.27479 -0.53145,-0.61064 z m -75.04132,0.28801 c 0,-0.0282 -0.106863,-0.13504 -0.237472,-0.23747 -0.215227,-0.1688 -0.220026,-0.164 -0.05123,0.0512 0.177273,0.22604 0.288707,0.29792 0.288707,0.18624 z m 36.38453,-0.18624 c 0.16879,-0.21523 0.16399,-0.22003 -0.0512,-0.0512 -0.1306,0.10243 -0.23747,0.20929 -0.23747,0.23747 0,0.11168 0.11144,0.0398 0.28871,-0.18624 z m -34.756147,-0.78027 c 0.253184,-0.26122 0.429802,-0.47494 0.392485,-0.47494 -0.03732,0 -0.275,0.21372 -0.528184,0.47494 -0.253183,0.26122 -0.429802,0.47495 -0.392485,0.47495 0.03732,0 0.275,-0.21373 0.528184,-0.47495 z m -0.339246,-0.20355 c 0.291513,-0.29853 0.499492,-0.54279 0.462175,-0.54279 -0.03732,0 -0.306361,0.24426 -0.597874,0.54279 -0.291513,0.29854 -0.499493,0.5428 -0.462176,0.5428 0.03732,0 0.306361,-0.24426 0.597875,-0.5428 z M 49.077606,127.6843 c 0,-0.0258 -0.137395,-0.16314 -0.305322,-0.30532 l -0.305322,-0.2585 0.258505,0.30532 c 0.24293,0.28693 0.352139,0.3671 0.352139,0.2585 z m 41.676774,-0.19065 c 0.16879,-0.21523 0.16399,-0.22003 -0.0512,-0.0512 -0.13061,0.10243 -0.23747,0.20929 -0.23747,0.23747 0,0.11168 0.11143,0.0398 0.2887,-0.18624 z m 48.29139,0.0605 c 0,-0.0227 -0.229,-0.25166 -0.50887,-0.50887 l -0.50887,-0.46764 0.46764,0.50887 c 0.43526,0.47365 0.5501,0.57127 0.5501,0.46764 z m -48.56279,-0.33194 c 0.1688,-0.21522 0.164,-0.22002 -0.0512,-0.0512 -0.13061,0.10243 -0.23747,0.20929 -0.23747,0.23747 0,0.11169 0.11144,0.0398 0.28871,-0.18624 z m -3.54547,0.0505 c 0,-0.0282 -0.10686,-0.13504 -0.23747,-0.23747 -0.21523,-0.16879 -0.22003,-0.16399 -0.0512,0.0512 0.17727,0.22604 0.28871,0.29793 0.28871,0.18624 z m -16.758775,-1.44145 c 0.443134,-0.4478 0.775164,-0.81419 0.737847,-0.81419 -0.03732,0 -0.430412,0.36639 -0.873545,0.81419 -0.443133,0.44781 -0.775163,0.81419 -0.737846,0.81419 0.03732,0 0.430411,-0.36638 0.873544,-0.81419 z m -0.271397,-0.27139 c 0.443133,-0.44781 0.775163,-0.8142 0.737846,-0.8142 -0.03732,0 -0.430411,0.36639 -0.873544,0.8142 -0.443134,0.4478 -0.775164,0.81419 -0.737846,0.81419 0.03732,0 0.430411,-0.36639 0.873544,-0.81419 z m 46.341062,0.22457 c 0,-0.0258 -0.13739,-0.16314 -0.30532,-0.30532 l -0.30532,-0.2585 0.2585,0.30532 c 0.24293,0.28693 0.35214,0.3671 0.35214,0.2585 z m 20.76189,-0.13134 c 0,-0.0234 -0.19846,-0.22181 -0.44102,-0.44102 l -0.44102,-0.39856 0.39855,0.44102 c 0.37152,0.4111 0.48349,0.5034 0.48349,0.39856 z m -50.47987,-0.54453 c 0,-0.0243 -0.16793,-0.19223 -0.37318,-0.37317 l -0.37317,-0.32897 0.32898,0.37317 c 0.30748,0.34878 0.41737,0.4354 0.41737,0.32897 z m 7.19202,-0.56644 c 0.25318,-0.26122 0.4298,-0.47495 0.39249,-0.47495 -0.0373,0 -0.275,0.21373 -0.52819,0.47495 -0.25318,0.26122 -0.4298,0.47494 -0.39248,0.47494 0.0373,0 0.275,-0.21372 0.52818,-0.47494 z m -0.4071,-0.1357 c 0.25319,-0.26122 0.42981,-0.47495 0.39249,-0.47495 -0.0373,0 -0.275,0.21373 -0.52818,0.47495 -0.25319,0.26122 -0.42981,0.47494 -0.39249,0.47494 0.0373,0 0.275,-0.21372 0.52818,-0.47494 z m -7.87051,0.0166 c 0,-0.0282 -0.10687,-0.13504 -0.23748,-0.23747 -0.21522,-0.16879 -0.22002,-0.16399 -0.0512,0.0512 0.17728,0.22604 0.28871,0.29793 0.28871,0.18624 z m 49.80137,-0.40005 c 0,-0.0243 -0.16792,-0.19224 -0.37317,-0.37318 l -0.37317,-0.32897 0.32898,0.37317 c 0.30748,0.34878 0.41736,0.4354 0.41736,0.32898 z m -73.684325,-0.13833 c 0,-0.0258 -0.137394,-0.16314 -0.305321,-0.30532 l -0.305322,-0.2585 0.258504,0.30532 c 0.242931,0.28693 0.352139,0.3671 0.352139,0.2585 z m 44.373435,-0.83522 c 0.17529,-0.18658 0.28817,-0.33924 0.25086,-0.33924 -0.0373,0 -0.21127,0.15266 -0.38656,0.33924 -0.17529,0.18659 -0.28817,0.33925 -0.25085,0.33925 0.0373,0 0.21126,-0.15266 0.38655,-0.33925 z m -0.2714,-0.2714 c 0.17529,-0.18658 0.28818,-0.33924 0.25086,-0.33924 -0.0373,0 -0.21127,0.15266 -0.38655,0.33924 -0.17529,0.18659 -0.28818,0.33925 -0.25086,0.33925 0.0373,0 0.21127,-0.15266 0.38655,-0.33925 z m 28.08961,-0.11204 c 0,-0.0243 -0.16793,-0.19223 -0.37317,-0.37317 l -0.37317,-0.32898 0.32897,0.37317 c 0.30748,0.34879 0.41737,0.43541 0.41737,0.32898 z m -26.85101,-0.73607 c 0.16879,-0.21523 0.16399,-0.22003 -0.0512,-0.0512 -0.13061,0.10244 -0.23748,0.2093 -0.23748,0.23748 0,0.11168 0.11144,0.0398 0.28871,-0.18624 z m -0.2714,-0.2714 c 0.1688,-0.21522 0.164,-0.22002 -0.0512,-0.0512 -0.13061,0.10243 -0.23747,0.20929 -0.23747,0.23747 0,0.11168 0.11143,0.0398 0.2887,-0.18624 z m 8.26031,-0.22086 c 0,-0.0282 -0.10687,-0.13504 -0.23748,-0.23747 -0.21522,-0.16879 -0.22002,-0.16399 -0.0512,0.0512 0.17727,0.22604 0.28871,0.29792 0.28871,0.18623 z m -53.193846,-0.55941 c 0.175289,-0.18658 0.288174,-0.33924 0.250856,-0.33924 -0.03732,0 -0.211266,0.15266 -0.386555,0.33924 -0.175288,0.18659 -0.288173,0.33925 -0.250856,0.33925 0.03732,0 0.211266,-0.15266 0.386555,-0.33925 z m 46.154826,-0.0339 c 0.16879,-0.21523 0.16399,-0.22003 -0.0512,-0.0512 -0.13061,0.10243 -0.23748,0.20929 -0.23748,0.23747 0,0.11168 0.11144,0.0398 0.28871,-0.18624 z m -46.426223,-0.23747 c 0.175288,-0.18659 0.288173,-0.33925 0.250856,-0.33925 -0.03732,0 -0.211266,0.15266 -0.386555,0.33925 -0.175288,0.18658 -0.288173,0.33924 -0.250856,0.33924 0.03732,0 0.211266,-0.15266 0.386555,-0.33924 z m 70.427563,0.3014 c 0,-0.0208 -0.41218,-0.433 -0.91597,-0.91597 l -0.91596,-0.87812 0.87812,0.91597 c 0.81564,0.85079 0.95381,0.978 0.95381,0.87812 z M 107.581,120.57295 c 0.1688,-0.21522 0.164,-0.22002 -0.0512,-0.0512 -0.13061,0.10243 -0.23747,0.20929 -0.23747,0.23747 0,0.11169 0.11143,0.0398 0.2887,-0.18624 z m 4.86784,0.19328 c 0,-0.0243 -0.16792,-0.19223 -0.37317,-0.37317 l -0.37317,-0.32898 0.32898,0.37317 c 0.30747,0.34879 0.41736,0.43541 0.41736,0.32898 z m -70.020465,-0.14274 c 0,-0.0282 -0.106862,-0.13504 -0.237472,-0.23747 -0.215226,-0.16879 -0.220026,-0.16399 -0.05124,0.0512 0.177273,0.22604 0.288707,0.29793 0.288707,0.18624 z m 8.006217,-0.26698 c 0,-0.0258 -0.137395,-0.16314 -0.305322,-0.30532 l -0.305322,-0.2585 0.258504,0.30532 c 0.242931,0.28692 0.35214,0.3671 0.35214,0.2585 z m 10.44879,-0.004 c 0,-0.0282 -0.106862,-0.13504 -0.237472,-0.23747 -0.215226,-0.1688 -0.220026,-0.164 -0.05123,0.0512 0.177272,0.22604 0.288706,0.29792 0.288706,0.18624 z m 48.113688,-0.79688 0.39855,-0.44102 -0.44102,0.39856 c -0.41109,0.37151 -0.50339,0.48348 -0.39855,0.48348 0.0234,0 0.22181,-0.19846 0.44102,-0.44102 z m -46.060899,-0.0679 c 0.168791,-0.21522 0.163992,-0.22002 -0.05123,-0.0512 -0.13061,0.10243 -0.237473,0.20929 -0.237473,0.23747 0,0.11169 0.111434,0.0398 0.288707,-0.18624 z m 45.848809,-0.23747 c 0.25318,-0.26122 0.4298,-0.47494 0.39249,-0.47494 -0.0373,0 -0.275,0.21372 -0.52819,0.47494 -0.25318,0.26122 -0.4298,0.47495 -0.39248,0.47495 0.0373,0 0.275,-0.21373 0.52818,-0.47495 z m -46.205365,0.0679 c 0.135086,-0.14927 0.215079,-0.2714 0.177762,-0.2714 -0.03732,0 -0.178374,0.12213 -0.313461,0.2714 -0.135086,0.14927 -0.215079,0.2714 -0.177762,0.2714 0.03732,0 0.178374,-0.12213 0.313461,-0.2714 z m 1.221287,-0.81419 c 0.135087,-0.14927 0.21508,-0.2714 0.177762,-0.2714 -0.03732,0 -0.178374,0.12213 -0.313461,0.2714 -0.135086,0.14927 -0.215079,0.2714 -0.177762,0.2714 0.03732,0 0.178374,-0.12213 0.313461,-0.2714 z m -0.321937,-0.23747 c 0.168792,-0.21523 0.163992,-0.22003 -0.05123,-0.0512 -0.13061,0.10243 -0.237473,0.2093 -0.237473,0.23748 0,0.11168 0.111435,0.0398 0.288707,-0.18624 z m 37.435495,-1.05167 c 0.25319,-0.26122 0.42981,-0.47494 0.39249,-0.47494 -0.0373,0 -0.275,0.21372 -0.52818,0.47494 -0.25319,0.26122 -0.42981,0.47495 -0.39249,0.47495 0.0373,0 0.275,-0.21373 0.52818,-0.47495 z m -35.145929,-0.84274 c 0,-0.1019 -0.121834,0.006 -0.684163,0.60497 l -0.604973,0.64457 0.644568,-0.60497 c 0.354513,-0.33274 0.644568,-0.62279 0.644568,-0.64457 z m 62.557049,1.14266 c 0,-0.0215 -0.32059,-0.34205 -0.71242,-0.71241 l -0.71242,-0.6734 0.67339,0.71242 c 0.62573,0.66199 0.75145,0.77465 0.75145,0.67339 z m -27.61466,-0.63946 c 0.29151,-0.29854 0.49949,-0.5428 0.46217,-0.5428 -0.0373,0 -0.30636,0.24426 -0.59787,0.5428 -0.29151,0.29853 -0.49949,0.54279 -0.46218,0.54279 0.0373,0 0.30636,-0.24426 0.59788,-0.54279 z m -35.213786,-0.7746 c 0,-0.10189 -0.121834,0.006 -0.684163,0.60497 l -0.604973,0.64457 0.644568,-0.60497 c 0.354513,-0.33274 0.644568,-0.62279 0.644568,-0.64457 z M 81.10247,115.7455 c 0,-0.0243 -0.16793,-0.19223 -0.37317,-0.37317 l -0.37317,-0.32897 0.32898,0.37317 c 0.30747,0.34878 0.41736,0.4354 0.41736,0.32897 z m 27.00402,0.002 c 0,-0.0233 -0.19846,-0.22181 -0.44102,-0.44102 l -0.44102,-0.39856 0.39856,0.44102 c 0.37151,0.41109 0.48348,0.50339 0.48348,0.39856 z m -64.710915,-0.46667 c 0.168791,-0.21523 0.163992,-0.22003 -0.05123,-0.0512 -0.13061,0.10244 -0.237473,0.2093 -0.237473,0.23748 0,0.11168 0.111434,0.0398 0.288707,-0.18624 z m 64.846615,0.0505 c 0,-0.0282 -0.10687,-0.13504 -0.23748,-0.23747 -0.21522,-0.1688 -0.22002,-0.164 -0.0512,0.0512 0.17727,0.22604 0.28871,0.29792 0.28871,0.18624 z m -60.385871,-0.1357 c 0,-0.0282 -0.106863,-0.13504 -0.237473,-0.23747 -0.215226,-0.16879 -0.220026,-0.16399 -0.05123,0.0512 0.177272,0.22604 0.288707,0.29793 0.288707,0.18624 z m 77.890981,-0.12477 c 0,-0.0222 -0.25952,-0.2817 -0.57671,-0.57672 l -0.57672,-0.53641 0.53641,0.57672 c 0.49885,0.53634 0.61702,0.63907 0.61702,0.53641 z m -22.37295,-0.33287 c 0.16879,-0.21522 0.16399,-0.22002 -0.0512,-0.0512 -0.13061,0.10243 -0.23747,0.20929 -0.23747,0.23747 0,0.11169 0.11144,0.0398 0.28871,-0.18624 z m -23.35747,-0.0752 c 0,-0.0227 -0.22899,-0.25167 -0.50887,-0.50887 l -0.50887,-0.46764 0.46764,0.50887 c 0.43527,0.47365 0.5501,0.57126 0.5501,0.46764 z m 23.13661,-0.23017 c 0.13509,-0.14927 0.21508,-0.27139 0.17776,-0.27139 -0.0373,0 -0.17837,0.12212 -0.31346,0.27139 -0.13509,0.14927 -0.21508,0.2714 -0.17776,0.2714 0.0373,0 0.17837,-0.12213 0.31346,-0.2714 z m -52.447501,-0.0512 c 0,-0.0282 -0.106863,-0.13504 -0.237473,-0.23747 -0.215226,-0.1688 -0.220026,-0.164 -0.05123,0.0512 0.177272,0.22604 0.288707,0.29792 0.288707,0.18624 z m 28.496701,-0.12866 c 0,-0.0243 -0.16793,-0.19223 -0.37317,-0.37317 l -0.37317,-0.32898 0.32897,0.37317 c 0.30748,0.34879 0.41737,0.4354 0.41737,0.32898 z m -28.225304,-0.14274 c 0,-0.0282 -0.106863,-0.13504 -0.237473,-0.23747 -0.215226,-0.16879 -0.220025,-0.16399 -0.05123,0.0512 0.177273,0.22604 0.288707,0.29793 0.288707,0.18624 z m 53.058144,-0.53838 c 0,-0.0258 -0.13739,-0.16314 -0.30532,-0.30532 l -0.30532,-0.2585 0.2585,0.30532 c 0.24293,0.28693 0.35214,0.3671 0.35214,0.2585 z m -0.67849,-0.14011 c 0,-0.0282 -0.10686,-0.13504 -0.23747,-0.23747 -0.21523,-0.1688 -0.22003,-0.164 -0.0512,0.0512 0.17727,0.22604 0.28871,0.29792 0.28871,0.18624 z M 78.5242,113.02885 c 0,-0.0258 -0.1374,-0.16315 -0.30532,-0.30532 l -0.30532,-0.25851 0.2585,0.30533 c 0.24293,0.28692 0.35214,0.36709 0.35214,0.2585 z m 45.05193,0.006 c 0,-0.0227 -0.22899,-0.25167 -0.50887,-0.50887 l -0.50887,-0.46764 0.46764,0.50887 c 0.43527,0.47364 0.5501,0.57126 0.5501,0.46764 z M 77.9814,112.89356 c 0,-0.0258 -0.13739,-0.16314 -0.30532,-0.30532 l -0.30532,-0.25851 0.25851,0.30533 c 0.24293,0.28692 0.35213,0.36709 0.35213,0.2585 z m -0.67849,-0.67448 c 0,-0.0234 -0.19846,-0.22182 -0.44102,-0.44102 l -0.44102,-0.39856 0.39856,0.44102 c 0.37151,0.41109 0.48348,0.50339 0.48348,0.39855 z m -0.2714,-0.81419 c 0,-0.0234 -0.19845,-0.22182 -0.44102,-0.44102 l -0.44102,-0.39857 0.39856,0.44102 c 0.37152,0.4111 0.48348,0.5034 0.48348,0.39856 z M 39.714404,110.701 c -0.329616,-0.33585 -0.629835,-0.61064 -0.667152,-0.61064 -0.03732,0 0.201837,0.27479 0.531453,0.61064 0.329616,0.33586 0.629834,0.61065 0.667151,0.61065 0.03732,0 -0.201837,-0.27479 -0.531452,-0.61065 z m 81.961946,0.56942 c 0,-0.0227 -0.22899,-0.25167 -0.50887,-0.50887 l -0.50887,-0.46764 0.46764,0.50887 c 0.43527,0.47364 0.5501,0.57126 0.5501,0.46764 z m -21.30468,-0.14571 c 0,-0.0282 -0.10686,-0.13504 -0.23747,-0.23747 -0.215228,-0.16879 -0.220028,-0.16399 -0.0512,0.0512 0.17727,0.22604 0.28871,0.29793 0.28871,0.18624 z m 5.29224,-0.1357 c 0,-0.0282 -0.10686,-0.13504 -0.23747,-0.23747 -0.21522,-0.16879 -0.22002,-0.16399 -0.0512,0.0512 0.17727,0.22604 0.2887,0.29792 0.2887,0.18623 z m -29.85368,-0.40709 c 0,-0.0282 -0.10687,-0.13504 -0.23748,-0.23747 -0.21522,-0.1688 -0.22002,-0.164 -0.0512,0.0512 0.17728,0.22604 0.28871,0.29792 0.28871,0.18624 z m -30.532185,-0.1357 c 0,-0.0282 -0.106862,-0.13504 -0.237472,-0.23747 -0.215226,-0.16879 -0.220026,-0.16399 -0.05123,0.0512 0.177272,0.22604 0.288706,0.29793 0.288706,0.18624 z m 54.822225,0 c 0,-0.0282 -0.106858,-0.13504 -0.237468,-0.23747 -0.21523,-0.16879 -0.22002,-0.16399 -0.0512,0.0512 0.17727,0.22604 0.288708,0.29793 0.288708,0.18624 z m 5.15655,-0.26436 c 0,-0.0243 -0.16793,-0.19223 -0.37317,-0.37317 l -0.37317,-0.32897 0.32897,0.37317 c 0.30748,0.34878 0.41737,0.4354 0.41737,0.32897 z m 14.65545,-0.54106 c 0,-0.0234 -0.19846,-0.22181 -0.44103,-0.44102 l -0.44102,-0.39856 0.39856,0.44102 c 0.37152,0.4111 0.48349,0.5034 0.48349,0.39856 z m -75.99121,-0.28017 c 0,-0.0282 -0.106863,-0.13504 -0.237473,-0.23747 -0.215226,-0.16879 -0.220026,-0.16399 -0.05123,0.0512 0.177272,0.22604 0.288707,0.29793 0.288707,0.18624 z m -7.73482,-0.67849 c 0,-0.0282 -0.106862,-0.13504 -0.237472,-0.23747 -0.215226,-0.1688 -0.220026,-0.164 -0.05123,0.0512 0.177273,0.22604 0.288707,0.29792 0.288707,0.18624 z m 81.96194,-0.67146 c 0,-0.0243 -0.16792,-0.19223 -0.37317,-0.37317 l -0.37317,-0.32897 0.32898,0.37317 c 0.30747,0.34878 0.41736,0.4354 0.41736,0.32897 z m -82.640433,-0.13569 c 0,-0.0243 -0.167927,-0.19224 -0.373171,-0.37318 l -0.373171,-0.32897 0.328976,0.37317 c 0.307478,0.34879 0.417366,0.4354 0.417366,0.32898 z m 23.585346,-0.84144 c -0.04178,-0.0418 -0.117657,0.0335 -0.168616,0.16736 -0.07364,0.1934 -0.05805,0.20899 0.07596,0.076 0.09274,-0.0921 0.134433,-0.20155 0.09265,-0.24333 z m 13.731767,-0.11549 c 0,-0.0282 -0.10686,-0.13504 -0.23747,-0.23748 -0.21523,-0.16879 -0.22003,-0.16399 -0.0512,0.0512 0.17727,0.22604 0.2887,0.29792 0.2887,0.18624 z M 116.5198,106.518 c 0,-0.0243 -0.16793,-0.19223 -0.37317,-0.37317 l -0.37317,-0.32898 0.32897,0.37317 c 0.30748,0.34879 0.41737,0.43541 0.41737,0.32898 z m -43.69494,-0.14274 c 0,-0.0282 -0.10686,-0.13504 -0.23747,-0.23747 -0.21523,-0.16879 -0.22003,-0.16399 -0.0512,0.0512 0.17727,0.22604 0.2887,0.29793 0.2887,0.18624 z m 42.20226,-1.21425 c 0,-0.0243 -0.16793,-0.19223 -0.37318,-0.37317 l -0.37317,-0.32897 0.32898,0.37317 c 0.30748,0.34878 0.41737,0.4354 0.41737,0.32897 z m -58.197385,-0.73607 c 0.168791,-0.21522 0.163991,-0.22002 -0.05124,-0.0512 -0.13061,0.10243 -0.237472,0.20929 -0.237472,0.23747 0,0.11169 0.111434,0.0398 0.288707,-0.18624 z m -16.436839,-0.0807 c 0,-0.0257 -0.137394,-0.16314 -0.305321,-0.30532 l -0.305322,-0.2585 0.258504,0.30532 c 0.242931,0.28692 0.352139,0.36709 0.352139,0.2585 z m 16.165442,-0.19065 c 0.168791,-0.21523 0.163991,-0.22003 -0.05124,-0.0512 -0.13061,0.10243 -0.237472,0.2093 -0.237472,0.23747 0,0.11169 0.111434,0.0398 0.288707,-0.18623 z m 1.280363,-0.61065 0.398559,-0.44102 -0.44102,0.39856 c -0.411094,0.37151 -0.503395,0.48348 -0.398559,0.48348 0.02335,0 0.221813,-0.19846 0.44102,-0.44102 z m 55.695729,0.26113 c 0,-0.0243 -0.16793,-0.19223 -0.37317,-0.37317 l -0.37317,-0.32898 0.32897,0.37317 c 0.30748,0.34879 0.41737,0.4354 0.41737,0.32898 z m -55.975663,-0.4986 c 0.135087,-0.14927 0.21508,-0.2714 0.177763,-0.2714 -0.03732,0 -0.178375,0.12213 -0.313461,0.2714 -0.135087,0.14927 -0.21508,0.2714 -0.177763,0.2714 0.03732,0 0.178375,-0.12213 0.313461,-0.2714 z m 54.482983,-0.85665 c 0,-0.0234 -0.19846,-0.22182 -0.44102,-0.44102 l -0.44102,-0.39856 0.39856,0.44102 c 0.37151,0.41109 0.48348,0.50339 0.48348,0.39856 z m -76.941098,-0.95868 c 0,-0.0282 -0.106863,-0.13504 -0.237473,-0.23747 -0.215226,-0.16879 -0.220026,-0.16399 -0.05123,0.0512 0.177272,0.22604 0.288707,0.29793 0.288707,0.18623 z m 39.691838,-0.76295 c 0.13508,-0.14927 0.21508,-0.27139 0.17776,-0.27139 -0.0373,0 -0.17837,0.12212 -0.31346,0.27139 -0.13509,0.14927 -0.21508,0.27139 -0.17776,0.27139 0.0373,0 0.17837,-0.12212 0.31346,-0.27139 z m 35.62087,0.2272 c 0,-0.0243 -0.16792,-0.19223 -0.37317,-0.37317 l -0.37317,-0.32897 0.32898,0.37317 c 0.30748,0.34878 0.41736,0.43539 0.41736,0.32897 z m -35.89227,-0.49863 c 0.13509,-0.14927 0.21508,-0.2714 0.17776,-0.2714 -0.0373,0 -0.17837,0.12213 -0.31346,0.2714 -0.13508,0.14926 -0.21508,0.27139 -0.17776,0.27139 0.0373,0 0.17837,-0.12213 0.31346,-0.27139 z m 11.61954,-0.780273 c 0.16879,-0.215226 0.16399,-0.220026 -0.0512,-0.05123 -0.13061,0.102432 -0.23747,0.209292 -0.23747,0.237472 0,0.11169 0.11143,0.0398 0.2887,-0.186237 z M 32.593819,99.532071 c -0.04178,-0.04178 -0.151276,-8.7e-5 -0.243326,0.09265 -0.13302,0.134019 -0.117433,0.149605 0.07596,0.07596 0.133829,-0.05096 0.209142,-0.126836 0.167362,-0.168616 z M 85.86923,99.40409 c 0.16879,-0.215226 0.16399,-0.220026 -0.0512,-0.05124 -0.13061,0.102432 -0.23747,0.209295 -0.23747,0.237473 0,0.111685 0.11143,0.0398 0.28871,-0.186238 z m 23.05145,0.193276 c 0,-0.02431 -0.16793,-0.192233 -0.37317,-0.373171 l -0.37317,-0.328975 0.32897,0.373171 c 0.30748,0.348785 0.41737,0.435401 0.41737,0.328975 z M 49.077606,99.183232 c 0,-0.02818 -0.106863,-0.13504 -0.237473,-0.237472 -0.215226,-0.168792 -0.220026,-0.163992 -0.05123,0.05123 0.177272,0.22604 0.288707,0.297923 0.288707,0.186238 z m 0.407095,-0.131281 c 0,-0.02575 -0.137394,-0.163145 -0.305321,-0.305322 l -0.305322,-0.258505 0.258504,0.305322 c 0.242931,0.286927 0.352139,0.367097 0.352139,0.258505 z m 38.334849,-1.17447 c 0.51844,-0.52244 0.91208,-0.94989 0.87476,-0.94989 -0.0373,0 -0.49202,0.42745 -1.01046,0.94989 -0.51843,0.522439 -0.91208,0.94989 -0.87476,0.94989 0.0373,0 0.49203,-0.427451 1.01046,-0.94989 z m -0.2714,-0.271397 c 0.51844,-0.52244 0.91208,-0.94989 0.87477,-0.94989 -0.0373,0 -0.49203,0.42745 -1.01046,0.94989 -0.51844,0.522439 -0.91208,0.94989 -0.87477,0.94989 0.0373,0 0.49203,-0.427451 1.01046,-0.94989 z m 19.87985,0.636031 c 0,-0.02335 -0.19846,-0.221813 -0.44103,-0.44102 l -0.44102,-0.398559 0.39856,0.44102 c 0.37152,0.411094 0.48349,0.503394 0.48349,0.398559 z M 93.38319,97.877481 c 0.13509,-0.149269 0.21508,-0.271397 0.17777,-0.271397 -0.0373,0 -0.17838,0.122128 -0.31347,0.271397 -0.13508,0.149268 -0.21507,0.271397 -0.17776,0.271397 0.0373,0 0.17838,-0.122129 0.31346,-0.271397 z m 12.41642,-1.129784 c 0,-0.02431 -0.16792,-0.192234 -0.37317,-0.373171 l -0.37317,-0.328976 0.32898,0.373171 c 0.30747,0.348785 0.41736,0.435401 0.41736,0.328976 z M 40.799992,96.074839 c 0,-0.02121 -0.35112,-0.372328 -0.780267,-0.780266 l -0.780267,-0.741707 0.741707,0.780267 c 0.689069,0.724892 0.818827,0.842429 0.818827,0.741706 z m -0.678493,-0.1396 c 0,-0.02335 -0.198459,-0.221812 -0.44102,-0.44102 l -0.441021,-0.398559 0.398559,0.441021 c 0.371513,0.411093 0.483482,0.503394 0.483482,0.398558 z m 64.049731,-0.678492 c 0,-0.02335 -0.19846,-0.221813 -0.44102,-0.441021 l -0.44102,-0.398559 0.39856,0.441021 c 0.37151,0.411093 0.48348,0.503394 0.48348,0.398559 z m -1.76408,-1.628383 c 0,-0.02335 -0.19846,-0.221813 -0.44102,-0.44102 l -0.44102,-0.398559 0.39856,0.44102 c 0.37151,0.411093 0.48348,0.503394 0.48348,0.398559 z M 59.933492,92.682763 c 0,-0.02099 -0.381652,-0.402647 -0.848116,-0.848116 l -0.848116,-0.809944 0.809944,0.848116 c 0.752369,0.787828 0.886288,0.910212 0.886288,0.809944 z m 0,-0.555856 c 0,-0.02818 -0.106862,-0.135041 -0.237472,-0.237473 -0.215226,-0.168791 -0.220026,-0.163991 -0.05123,0.05124 0.177272,0.226039 0.288706,0.297923 0.288706,0.186238 z m 40.709578,-0.125694 c 0,-0.02268 -0.22899,-0.251668 -0.50887,-0.508869 l -0.508868,-0.467641 0.467638,0.50887 c 0.43527,0.473645 0.5501,0.571262 0.5501,0.46764 z M 86.54772,91.397874 c 0.1688,-0.215226 0.164,-0.220025 -0.0512,-0.05123 -0.13061,0.102432 -0.23747,0.209295 -0.23747,0.237472 0,0.111686 0.11144,0.0398 0.28871,-0.186238 z m -0.27139,-0.271397 c 0.16879,-0.215226 0.16399,-0.220026 -0.0512,-0.05123 -0.13061,0.102432 -0.23748,0.209295 -0.23748,0.237472 0,0.111686 0.11144,0.0398 0.28871,-0.186238 z m 1.08559,-0.542794 c 0.16879,-0.215226 0.16399,-0.220026 -0.0512,-0.05123 -0.13061,0.102432 -0.23748,0.209294 -0.23748,0.237472 0,0.111685 0.11144,0.0398 0.28871,-0.186238 z m -0.2714,-0.271397 c 0.16879,-0.215226 0.16399,-0.220026 -0.0512,-0.05124 -0.13061,0.102433 -0.23747,0.209295 -0.23747,0.237473 0,0.111685 0.11143,0.0398 0.2887,-0.186238 z m 11.109971,-0.48133 c 0,-0.02217 -0.25952,-0.281694 -0.57672,-0.576719 l -0.57671,-0.536409 0.53641,0.576719 c 0.49885,0.536343 0.61702,0.639076 0.61702,0.536409 z M 21.395095,88.198687 c 0,-0.02431 -0.167927,-0.192233 -0.373171,-0.373171 l -0.373171,-0.328975 0.328975,0.373171 c 0.307478,0.348784 0.417367,0.435401 0.417367,0.328975 z m 36.027974,-0.227201 c 0.135086,-0.149269 0.215079,-0.271398 0.177762,-0.271398 -0.03732,0 -0.178374,0.122129 -0.313461,0.271398 -0.135087,0.149268 -0.21508,0.271397 -0.177762,0.271397 0.03732,0 0.178374,-0.122129 0.313461,-0.271397 z m 38.877642,0.0915 c 0,-0.02431 -0.16792,-0.192233 -0.37317,-0.373171 l -0.37317,-0.328975 0.32898,0.373171 c 0.30747,0.348785 0.41736,0.435401 0.41736,0.328975 z M 90.75438,86.91982 c 0.16879,-0.215226 0.16399,-0.220026 -0.0512,-0.05124 -0.13061,0.102432 -0.23747,0.209295 -0.23747,0.237473 0,0.111685 0.11143,0.0398 0.2887,-0.186238 z m -70.716271,0.0636 c 0,-0.021 -0.381652,-0.402648 -0.848116,-0.848116 l -0.848116,-0.809944 0.809944,0.848116 c 0.752368,0.787827 0.886288,0.910211 0.886288,0.809944 z m 75.041322,-0.01307 c 0,-0.02818 -0.10687,-0.135041 -0.23748,-0.237473 -0.21522,-0.168791 -0.22002,-0.163991 -0.0512,0.05123 0.17728,0.22604 0.28871,0.297923 0.28871,0.186238 z M 35.100652,86.160581 c 0,-0.02575 -0.137395,-0.163145 -0.305322,-0.305321 l -0.305322,-0.258499 0.258505,0.305321 c 0.24293,0.286927 0.352139,0.367098 0.352139,0.258505 z m 59.028888,-0.0044 c 0,-0.02818 -0.10687,-0.135041 -0.23748,-0.237473 -0.21522,-0.168791 -0.22002,-0.163992 -0.0512,0.05124 0.17728,0.226039 0.28871,0.297923 0.28871,0.186238 z m -0.94989,-0.814192 c 0,-0.02818 -0.10687,-0.13504 -0.23748,-0.237472 -0.21522,-0.168792 -0.22002,-0.163992 -0.0512,0.05123 0.17728,0.22604 0.28871,0.297924 0.28871,0.186238 z m -2.17118,-2.052081 c -0.32962,-0.335854 -0.62984,-0.610643 -0.66715,-0.610643 -0.0373,0 0.20183,0.274789 0.53145,0.610643 0.32962,0.335854 0.62983,0.610644 0.66715,0.610644 0.0373,0 -0.20184,-0.27479 -0.53145,-0.610644 z m -11.10998,0.101774 c 0.1688,-0.215226 0.164,-0.220026 -0.0512,-0.05123 -0.1306,0.102432 -0.23747,0.209294 -0.23747,0.237472 0,0.111685 0.11144,0.0398 0.28871,-0.186238 z m -37.741512,0.05054 c 0,-0.02818 -0.106863,-0.135041 -0.237472,-0.237473 -0.215227,-0.168791 -0.220026,-0.163992 -0.05124,0.05123 0.177273,0.22604 0.288707,0.297924 0.288707,0.186239 z M 73.38496,83.120285 c 0.16879,-0.215226 0.16399,-0.220026 -0.0512,-0.05124 -0.13061,0.102433 -0.23747,0.209295 -0.23747,0.237473 0,0.111685 0.11143,0.0398 0.28871,-0.186238 z m 6.24214,0 c 0.16879,-0.215226 0.16399,-0.220026 -0.0512,-0.05124 -0.13061,0.102433 -0.23747,0.209295 -0.23747,0.237473 0,0.111685 0.11143,0.0398 0.2887,-0.186238 z m -6.51353,-0.271397 c 0.16879,-0.215226 0.16399,-0.220026 -0.0512,-0.05123 -0.13061,0.102432 -0.23748,0.209295 -0.23748,0.237473 0,0.111685 0.11144,0.0398 0.28871,-0.186238 z M 54.234152,80.999624 c 0,-0.02818 -0.106863,-0.13504 -0.237473,-0.237472 -0.215226,-0.168791 -0.220025,-0.163992 -0.05123,0.05123 0.177273,0.22604 0.288707,0.297924 0.288707,0.186238 z m -0.678493,-0.26698 c 0,-0.02575 -0.137395,-0.163145 -0.305322,-0.305322 l -0.305322,-0.258504 0.258505,0.305322 c 0.24293,0.286926 0.352139,0.367097 0.352139,0.258504 z m -0.135699,-0.68291 c 0,-0.02818 -0.106862,-0.13504 -0.237472,-0.237472 -0.215226,-0.168791 -0.220026,-0.163992 -0.05123,0.05123 0.177272,0.22604 0.288706,0.297924 0.288706,0.186238 z m 19.28651,-2.493113 c 0.16879,-0.215226 0.16399,-0.220026 -0.0512,-0.05123 -0.13061,0.102432 -0.23747,0.209295 -0.23747,0.237473 0,0.111685 0.11143,0.0398 0.2887,-0.186238 z M 29.740558,77.386997 c 0.135086,-0.149268 0.215079,-0.271397 0.177762,-0.271397 -0.03732,0 -0.178374,0.122129 -0.313461,0.271397 -0.135086,0.149269 -0.215079,0.271398 -0.177762,0.271398 0.03732,0 0.178374,-0.122129 0.313461,-0.271398 z M 72.43507,77.285224 c 0.16879,-0.215227 0.16399,-0.220026 -0.0512,-0.05124 -0.13061,0.102432 -0.23747,0.209295 -0.23747,0.237473 0,0.111685 0.11143,0.0398 0.28871,-0.186238 z M 29.53701,77.047751 c 0.175288,-0.186585 0.288173,-0.339246 0.250856,-0.339246 -0.03732,0 -0.211266,0.152661 -0.386555,0.339246 -0.175288,0.186586 -0.288173,0.339246 -0.250856,0.339246 0.03732,0 0.211266,-0.15266 0.386555,-0.339246 z m 11.534379,0.295051 c 0,-0.02431 -0.167927,-0.192233 -0.373171,-0.373171 l -0.373171,-0.328976 0.328976,0.373171 c 0.307478,0.348785 0.417366,0.435401 0.417366,0.328976 z m 0,-0.549833 c 0,-0.02818 -0.106862,-0.135041 -0.237472,-0.237473 -0.215226,-0.168791 -0.220026,-0.163991 -0.05124,0.05124 0.177273,0.22604 0.288707,0.297923 0.288707,0.186238 z M 37.000432,76.52861 c 0,-0.02431 -0.167927,-0.192233 -0.373171,-0.373171 l -0.373171,-0.328975 0.328975,0.373171 c 0.307478,0.348785 0.417367,0.435401 0.417367,0.328975 z m 0.542794,-0.0026 c 0,-0.02575 -0.137395,-0.163145 -0.305322,-0.305321 l -0.305321,-0.258507 0.258504,0.305321 c 0.24293,0.286927 0.352139,0.367097 0.352139,0.258505 z M 74.99604,75.690784 c 0.17528,-0.186585 0.28817,-0.339246 0.25085,-0.339246 -0.0373,0 -0.21126,0.152661 -0.38655,0.339246 -0.17529,0.186586 -0.28818,0.339247 -0.25086,0.339247 0.0373,0 0.21127,-0.152661 0.38656,-0.339247 z m -38.131307,0.156731 c 0,-0.02575 -0.137395,-0.163145 -0.305322,-0.305322 l -0.305321,-0.258504 0.258504,0.305321 c 0.24293,0.286927 0.352139,0.367098 0.352139,0.258505 z M 74.72464,75.419387 c 0.17529,-0.186585 0.28817,-0.339246 0.25085,-0.339246 -0.0373,0 -0.21126,0.152661 -0.38655,0.339246 -0.17529,0.186586 -0.28817,0.339247 -0.25086,0.339247 0.0373,0 0.21127,-0.152661 0.38656,-0.339247 z m 4.61375,-5.275629 c 0,-0.02818 -0.10686,-0.13504 -0.23747,-0.237472 -0.21523,-0.168792 -0.22003,-0.163992 -0.0512,0.05123 0.17727,0.22604 0.2887,0.297924 0.2887,0.186238 z m -3.39246,-0.42371 c 0.17528,-0.186586 0.28817,-0.339247 0.25085,-0.339247 -0.0373,0 -0.21126,0.152661 -0.38655,0.339247 -0.17529,0.186585 -0.28818,0.339246 -0.25086,0.339246 0.0373,0 0.21127,-0.152661 0.38656,-0.339246 z m 3.66386,0.152313 c 0,-0.02818 -0.10687,-0.13504 -0.23748,-0.237472 -0.21522,-0.168792 -0.22002,-0.163992 -0.0512,0.05123 0.17728,0.22604 0.28871,0.297923 0.28871,0.186238 z M 75.67453,69.44865 c 0.17529,-0.186585 0.28817,-0.339246 0.25085,-0.339246 -0.0373,0 -0.21126,0.152661 -0.38655,0.339246 -0.17529,0.186586 -0.28817,0.339247 -0.25086,0.339247 0.0373,0 0.21127,-0.152661 0.38656,-0.339247 z m 2.98537,-0.119083 c 0,-0.02818 -0.10687,-0.135041 -0.23748,-0.237473 -0.21522,-0.168791 -0.22002,-0.163991 -0.0512,0.05124 0.17728,0.22604 0.28871,0.297923 0.28871,0.186238 z m 0.27139,-0.271397 c 0,-0.02818 -0.10686,-0.135041 -0.23747,-0.237473 -0.21522,-0.168791 -0.22002,-0.163992 -0.0512,0.05123 0.17727,0.226039 0.28871,0.297923 0.28871,0.186238 z m -9.634595,-2.836627 c 0,-0.02099 -0.381653,-0.402647 -0.848117,-0.848116 l -0.848116,-0.809944 0.809944,0.848116 c 0.752369,0.787828 0.886289,0.910212 0.886289,0.809944 z m 1.560533,-0.368924 c 0.135087,-0.149268 0.21508,-0.271397 0.177763,-0.271397 -0.03732,0 -0.178375,0.122129 -0.313461,0.271397 -0.135087,0.149269 -0.21508,0.271398 -0.177763,0.271398 0.03732,0 0.178375,-0.122129 0.313461,-0.271398 z M 70.67099,65.479448 c 0.168792,-0.215226 0.163992,-0.220025 -0.05123,-0.05123 -0.22604,0.177273 -0.297924,0.288707 -0.186238,0.288707 0.02818,0 0.13504,-0.106863 0.237472,-0.237473 z m -2.595583,0.06421 c 0,-0.02066 -0.442716,-0.463376 -0.983814,-0.983814 l -0.983815,-0.946251 0.946251,0.983815 c 0.878877,0.913767 1.021378,1.045786 1.021378,0.94625 z M 51.113084,62.9351 c -0.329615,-0.335854 -0.629834,-0.610643 -0.667151,-0.610643 -0.03732,0 0.201837,0.274789 0.531453,0.610643 0.329616,0.335854 0.629834,0.610644 0.667151,0.610644 0.03732,0 -0.201837,-0.27479 -0.531453,-0.610644 z m 23.068756,0.295051 c 0,-0.02431 -0.16792,-0.192233 -0.37317,-0.373171 l -0.37317,-0.328975 0.32898,0.373171 c 0.30748,0.348784 0.41736,0.435401 0.41736,0.328975 z M 32.38668,63.087414 c 0,-0.02818 -0.106863,-0.135041 -0.237472,-0.237473 -0.215227,-0.168791 -0.220026,-0.163991 -0.05124,0.05124 0.177273,0.22604 0.288707,0.297923 0.288707,0.186238 z m 33.110454,-0.559409 c -0.329616,-0.335854 -0.629834,-0.610644 -0.667151,-0.610644 -0.03732,0 0.201837,0.27479 0.531453,0.610644 0.329616,0.335854 0.629834,0.610643 0.667151,0.610643 0.03732,0 -0.201837,-0.274789 -0.531453,-0.610643 z m -32.703358,0.428127 c 0,-0.02575 -0.137395,-0.163145 -0.305322,-0.305322 l -0.305322,-0.258504 0.258505,0.305322 c 0.24293,0.286926 0.352139,0.367097 0.352139,0.258504 z m 41.659464,0.0026 c 0,-0.02431 -0.16793,-0.192233 -0.37317,-0.373171 l -0.37317,-0.328973 0.32897,0.373172 c 0.30748,0.348784 0.41737,0.435401 0.41737,0.328975 z m -9.634599,-0.537624 c 0,-0.02146 -0.320588,-0.342053 -0.712417,-0.712417 l -0.712418,-0.67339 0.673392,0.712418 c 0.625728,0.66199 0.751443,0.774649 0.751443,0.673392 z M 15.15296,61.469956 c 0,-0.02217 -0.259524,-0.281694 -0.576719,-0.576719 l -0.576719,-0.536409 0.53641,0.576718 c 0.498855,0.536344 0.617028,0.639077 0.617028,0.53641 z M 62.647464,59.814033 C 62.317848,59.478179 62.01763,59.20339 61.980313,59.20339 c -0.03732,0 0.201837,0.274789 0.531452,0.610643 0.329616,0.335854 0.629835,0.610644 0.667152,0.610644 0.03732,0 -0.201837,-0.27479 -0.531453,-0.610644 z M 87.07321,57.937907 c 0,-0.02431 -0.16793,-0.192233 -0.37317,-0.373171 l -0.37317,-0.328975 0.32897,0.373171 c 0.30748,0.348784 0.41737,0.435401 0.41737,0.328975 z M 62.647464,53.859911 c 0,-0.02818 -0.106863,-0.13504 -0.237472,-0.237472 -0.215227,-0.168791 -0.220026,-0.163992 -0.05123,0.05123 0.177273,0.22604 0.288707,0.297924 0.288707,0.186238 z M 82.86655,53.195089 c 0,-0.02066 -0.44271,-0.463377 -0.98381,-0.983815 l -0.98382,-0.94625 0.94625,0.983814 c 0.87888,0.913767 1.02138,1.045787 1.02138,0.946251 z m 0.5428,-0.01367 c 0,-0.02818 -0.10686,-0.135041 -0.23747,-0.237473 -0.21523,-0.168791 -0.22003,-0.163992 -0.0512,0.05123 0.17727,0.22604 0.2887,0.297924 0.2887,0.186239 z M 7.011045,51.424376 c 0,-0.02431 -0.167927,-0.192233 -0.373171,-0.373171 L 6.264703,50.722229 6.593679,51.0954 c 0.307478,0.348785 0.417366,0.435402 0.417366,0.328976 z m 73.548635,-0.94989 c 0,-0.02431 -0.16793,-0.192233 -0.37317,-0.373171 l -0.37317,-0.328976 0.32897,0.373172 c 0.30748,0.348784 0.41737,0.435401 0.41737,0.328975 z M 79.74549,50.19605 c 0,-0.02818 -0.10687,-0.13504 -0.23748,-0.237472 -0.21522,-0.168792 -0.22002,-0.163992 -0.0512,0.05123 0.17728,0.22604 0.28871,0.297923 0.28871,0.186238 z M 5.382662,49.663261 c 0,-0.02268 -0.228991,-0.251668 -0.508869,-0.50887 l -0.5088697,-0.46764 0.4676397,0.50887 c 0.435269,0.473645 0.550099,0.571262 0.550099,0.46764 z M 73.52066,49.467018 c 0.16879,-0.215226 0.16399,-0.220026 -0.0512,-0.05123 -0.13061,0.102432 -0.23747,0.209295 -0.23747,0.237473 0,0.111685 0.11143,0.0398 0.2887,-0.186238 z m 1.08559,-1.356986 c 0.16879,-0.215226 0.16399,-0.220026 -0.0512,-0.05123 -0.13061,0.102432 -0.23747,0.209294 -0.23747,0.237472 0,0.111686 0.11143,0.0398 0.2887,-0.186238 z M 36.729035,47.34638 c 0,-0.02818 -0.106863,-0.13504 -0.237473,-0.237472 -0.215226,-0.168792 -0.220026,-0.163992 -0.05123,0.05123 0.177272,0.22604 0.288707,0.297924 0.288707,0.186238 z m -6.631921,-0.457635 c 0.168791,-0.215226 0.163992,-0.220026 -0.05123,-0.05123 -0.13061,0.102432 -0.237473,0.209294 -0.237473,0.237472 0,0.111685 0.111434,0.0398 0.288707,-0.186238 z m -0.271397,-0.271397 c 0.168791,-0.215226 0.163991,-0.220026 -0.05124,-0.05123 -0.22604,0.177273 -0.297923,0.288707 -0.186238,0.288707 0.02818,0 0.135041,-0.106862 0.237473,-0.237472 z m 1.221287,-0.542794 c 0.168791,-0.215226 0.163992,-0.220026 -0.05123,-0.05124 -0.13061,0.102432 -0.237473,0.209295 -0.237473,0.237473 0,0.111685 0.111434,0.0398 0.288707,-0.186238 z m -0.271397,-0.271398 c 0.168791,-0.215226 0.163992,-0.220025 -0.05124,-0.05123 -0.130609,0.102432 -0.237472,0.209295 -0.237472,0.237473 0,0.111685 0.111434,0.0398 0.288707,-0.186239 z m 1.221287,-0.542794 c 0.168791,-0.215226 0.163992,-0.220026 -0.05123,-0.05123 -0.13061,0.102432 -0.237473,0.209295 -0.237473,0.237472 0,0.111686 0.111434,0.0398 0.288707,-0.186238 z m -0.271397,-0.271397 c 0.168791,-0.215226 0.163992,-0.220026 -0.05124,-0.05123 -0.130609,0.102432 -0.237472,0.209294 -0.237472,0.237472 0,0.111686 0.111434,0.0398 0.288707,-0.186238 z m 1.085589,-0.407096 c 0.168791,-0.215226 0.163991,-0.220025 -0.05123,-0.05123 -0.13061,0.102432 -0.237472,0.209295 -0.237472,0.237473 0,0.111685 0.111434,0.0398 0.288707,-0.186239 z m -0.271398,-0.271397 c 0.168792,-0.215226 0.163992,-0.220025 -0.05123,-0.05123 -0.13061,0.102432 -0.237473,0.209295 -0.237473,0.237472 0,0.111686 0.111435,0.0398 0.288707,-0.186238 z M 21.802191,29.438587 c 0,-0.02575 -0.137395,-0.163145 -0.305322,-0.305322 l -0.305322,-0.258505 0.258504,0.305322 c 0.242931,0.286927 0.35214,0.367097 0.35214,0.258505 z m 0.271397,-0.271397 c 0,-0.02575 -0.137395,-0.163145 -0.305322,-0.305322 l -0.305322,-0.258505 0.258505,0.305322 c 0.24293,0.286927 0.352139,0.367097 0.352139,0.258505 z m 3.256766,-1.628383 c 0,-0.02575 -0.137395,-0.163145 -0.305322,-0.305322 l -0.305322,-0.258504 0.258505,0.305321 c 0.24293,0.286927 0.352139,0.367098 0.352139,0.258505 z m 9.227503,-1.218666 c 0,-0.02431 -0.167927,-0.192233 -0.373171,-0.373171 l -0.373171,-0.328975 0.328976,0.373171 c 0.307478,0.348785 0.417366,0.435401 0.417366,0.328975 z m 5.835039,-0.549833 c 0,-0.02818 -0.106862,-0.13504 -0.237472,-0.237472 -0.215226,-0.168791 -0.220026,-0.163992 -0.05123,0.05123 0.177272,0.22604 0.288706,0.297924 0.288706,0.186238 z m -1.89978,-3.544777 c 0.175289,-0.186586 0.288174,-0.339247 0.250857,-0.339247 -0.03732,0 -0.211267,0.152661 -0.386555,0.339247 -0.175289,0.186585 -0.288174,0.339246 -0.250857,0.339246 0.03732,0 0.211267,-0.152661 0.386555,-0.339246 z M 16.781343,11.657658 c 0,-0.02818 -0.106863,-0.13504 -0.237472,-0.237471 -0.215226,-0.168792 -0.220026,-0.163992 -0.05123,0.05123 0.177272,0.226039 0.288706,0.297923 0.288706,0.186238 z m 3.002679,-5.3427836 c 0.168791,-0.2152255 0.163991,-0.2200252 -0.05124,-0.051234 -0.13061,0.1024313 -0.237472,0.2092939 -0.237472,0.2374725 0,0.1116846 0.111434,0.039801 0.288707,-0.1862388 z M 19.512624,6.0434773 c 0.168792,-0.2152255 0.163992,-0.2200252 -0.05123,-0.051234 -0.22604,0.1772724 -0.297923,0.2887062 -0.186238,0.2887062 0.02818,0 0.13504,-0.1068626 0.237472,-0.2374725 z"
       id="path826"
       inkscape:connector-curvature="0" />
    <ellipse
       style="opacity:1;fill:none;fill-opacity:0.35111114;fill-rule:nonzero;stroke:#1f0000;stroke-width:0.1;stroke-linecap:butt;stroke-linejoin:miter;stroke-miterlimit:4;stroke-dasharray:none;stroke-opacity:0;paint-order:markers fill stroke"
       id="path828"
       cx="41.919628"
       cy="114.04672"
       rx="2.2052221"
       ry="3.3457198" />
  </g>
  <g
     inkscape:groupmode="layer"
     id="layer2"
     inkscape:label="Layer 2"
     transform="translate(-3.4826733,-4.285966)">
    <ellipse
       style="opacity:1;fill:#ffffff;fill-opacity:1;fill-rule:nonzero;stroke:#00aaff;stroke-width:0.61841944;stroke-linecap:butt;stroke-linejoin:round;stroke-miterlimit:4;stroke-dasharray:none;stroke-opacity:1;paint-order:normal"
       id="path835"
       cx="44.101849"
       cy="119.02834"
       rx="5.0547719"
       ry="4.545845" />
  </g>
</svg>
