<?xml version="1.0" encoding="UTF-8" standalone="no"?>
<!-- Created with Inkscape (http://www.inkscape.org/) -->

<svg
   xmlns:dc="http://purl.org/dc/elements/1.1/"
   xmlns:cc="http://creativecommons.org/ns#"
   xmlns:rdf="http://www.w3.org/1999/02/22-rdf-syntax-ns#"
   xmlns:svg="http://www.w3.org/2000/svg"
   xmlns="http://www.w3.org/2000/svg"
   xmlns:xlink="http://www.w3.org/1999/xlink"
   xmlns:sodipodi="http://sodipodi.sourceforge.net/DTD/sodipodi-0.dtd"
   xmlns:inkscape="http://www.inkscape.org/namespaces/inkscape"
   width="238.743mm"
   height="156.32773mm"
   viewBox="0 0 238.743 156.32773"
   version="1.1"
   id="svg857"
   inkscape:version="0.92.2 (5c3e80d, 2017-08-06)"
   sodipodi:docname="seatle.svg">
  <defs
     id="defs851">
    <linearGradient
       inkscape:collect="always"
       id="linearGradient1419">
      <stop
         style="stop-color:#00ff03;stop-opacity:1"
         offset="0"
         id="stop1415" />
      <stop
         style="stop-color:#02b400;stop-opacity:1"
         offset="1"
         id="stop1417" />
    </linearGradient>
    <linearGradient
       inkscape:collect="always"
       xlink:href="#linearGradient1419"
       id="linearGradient1421"
       x1="63.115292"
       y1="38.217251"
       x2="221.49339"
       y2="174.57368"
       gradientUnits="userSpaceOnUse" />
  </defs>
  <sodipodi:namedview
     id="base"
     pagecolor="#ffffff"
     bordercolor="#666666"
     borderopacity="1.0"
     inkscape:pageopacity="0.0"
     inkscape:pageshadow="2"
     inkscape:zoom="1.1894531"
     inkscape:cx="557.15036"
     inkscape:cy="241.89064"
     inkscape:document-units="mm"
     inkscape:current-layer="layer1"
     showgrid="false"
     fit-margin-top="0"
     fit-margin-left="0"
     fit-margin-right="0"
     fit-margin-bottom="0"
     inkscape:window-width="1920"
     inkscape:window-height="1017"
     inkscape:window-x="1912"
     inkscape:window-y="-8"
     inkscape:window-maximized="1" />
  <metadata
     id="metadata854">
    <rdf:RDF>
      <cc:Work
         rdf:about="">
        <dc:format>image/svg+xml</dc:format>
        <dc:type
           rdf:resource="http://purl.org/dc/dcmitype/StillImage" />
        <dc:title></dc:title>
      </cc:Work>
    </rdf:RDF>
  </metadata>
  <g
     inkscape:label="Layer 1"
     inkscape:groupmode="layer"
     id="layer1"
     transform="translate(9.4005283,-34.039274)">
    <path
       style="fill:url(#linearGradient1421);stroke-width:0.48949561;fill-opacity:1"
       d="m 60.775935,190.29112 c -0.673056,-0.10212 -1.432998,-0.38726 -1.688759,-0.63368 -0.255763,-0.24644 -0.900942,-0.44805 -1.433733,-0.44805 -1.043727,0 -3.935015,-0.83157 -5.314664,-1.52858 -0.467487,-0.23617 -1.219087,-0.4294 -1.670227,-0.4294 -2.357043,0 -6.437582,-3.80315 -5.02033,-4.67904 0.513407,-0.31731 0.01771,-7.0602 -0.574839,-7.81951 -0.217141,-0.27827 -0.221286,-0.78666 -0.0091,-1.12981 0.227267,-0.36773 -0.317982,-2.27029 -1.327983,-4.63378 -1.609124,-3.7655 -1.905546,-4.13671 -4.863436,-6.09027 -3.431035,-2.26604 -4.249819,-2.41947 -7.278932,-1.36388 -2.502262,0.87199 -4.814776,0.38689 -4.888899,-1.02557 -0.02809,-0.53534 -0.360519,-1.62096 -0.738717,-2.41248 -0.642783,-1.34525 -0.894304,-1.44883 -3.855396,-1.5878 -1.959577,-0.0919 -3.480196,-0.43142 -3.98697,-0.89005 -0.590287,-0.5342 -1.071712,-0.60858 -1.722732,-0.26618 -0.496925,0.26138 -1.87156,0.76275 -3.05474,1.11417 -2.136672,0.63463 -2.160105,0.62832 -3.4621126,-0.93128 -1.505038,-1.80279 -1.870785,-1.89828 -2.736467,-0.71437 -1.0400703,1.42237 -1.367635,0.30806 -0.7757716,-2.63907 0.3076616,-1.53203 0.5594006,-5.25496 0.5594006,-8.27315 0,-4.02866 0.176922,-5.63445 0.665465,-6.0399 0.543143,-0.45078 0.716929,-0.0538 0.94541,2.16008 0.153962,1.49182 0.18292,3.53063 0.06433,4.53069 -0.118589,1.00006 -0.07593,1.51544 0.09476,1.14526 0.447982,-0.97145 2.0629056,-2.50866 2.6354816,-2.50866 0.660082,0 0.627745,-0.17557 -0.378022,-2.05239 -1.0591256,-1.97639 -1.1115996,-4.06396 -0.102184,-4.06534 1.067639,-0.001 2.73291,-1.09316 2.31102,-1.51504 -0.200072,-0.20008 -1.402704,-0.12604 -2.672519,0.16451 -2.1259516,0.48649 -2.3681246,0.44455 -3.0586266,-0.52956 -0.480783,-0.67828 -0.837698,-2.63879 -0.99462,-5.46335 -0.1757141,-3.1629 -0.417326,-4.37095 -0.8566177,-4.28309 -0.4319906,0.0864 -0.6143621,-0.70506 -0.6203528,-2.69222 C 4.9492482,117.5497 4.0176032,110.75206 3.1405452,109.44915 1.4476529,106.93429 1.2055885,106.09572 0.86328193,101.56021 0.13589003,91.922349 -2.0341462,85.326006 -5.2302131,83.037557 c -1.5705492,-1.124531 -2.4726374,-3.83903 -2.9983711,-9.022491 -0.2138771,-2.1087 -0.6334596,-4.078612 -0.9324028,-4.377548 -0.3983856,-0.398388 -0.3087295,-0.81243 0.3357215,-1.550432 0.4835914,-0.553792 1.1442397,-2.06147 1.4681066,-3.350412 0.4919083,-1.957707 0.4674714,-2.578248 -0.1484396,-3.769279 -0.9066568,-1.753282 -0.9069438,-1.794028 -0.015092,-2.136296 1.0791311,-0.414091 4.059614,0.995379 7.27381313,3.439798 3.01427497,2.292363 4.64329707,3.096069 6.27548057,3.096069 0.5452822,0 2.1279242,0.967685 3.5169752,2.150408 2.9932256,2.548646 5.1378336,3.227628 10.2062126,3.23131 2.070586,0.0015 3.900838,0.222999 4.067228,0.492216 0.16639,0.269234 0.913634,0.489498 1.66054,0.489498 0.746908,0 1.523144,0.165172 1.724963,0.367127 0.421041,0.421239 1.217889,0.547656 5.781387,0.917237 2.800543,0.226797 3.503213,0.116914 4.699158,-0.734636 l 1.406213,-1.001315 1.297164,1.353949 c 0.713438,0.744668 1.297162,1.709351 1.297162,2.143741 0,0.434389 0.155056,1.193287 0.344587,1.68645 0.300702,0.782462 0.38118,0.740805 0.631934,-0.327095 0.438782,-1.868637 1.991884,-1.763663 3.42894,0.231789 1.385272,1.923545 2.495121,2.374137 1.280035,0.519679 -0.434799,-0.663575 -0.790539,-1.529669 -0.790539,-1.924639 0,-0.751568 2.453577,-2.74279 3.379658,-2.74279 0.724968,0 0.686998,2.805161 -0.04126,3.047911 -0.658612,0.219533 -0.193234,1.847045 0.528151,1.847045 0.258947,0 0.541205,-0.495617 0.627234,-1.101365 0.08604,-0.605748 0.486827,-1.101365 0.890662,-1.101365 1.104052,0 1.286678,3.214626 0.226661,3.989726 -0.773766,0.565782 -0.763476,0.714967 0.153415,2.224338 1.254234,2.064687 1.87157,4.799586 1.083394,4.799586 -0.802391,0 -2.331593,1.853125 -3.415552,4.139057 -1.196249,2.522732 -0.695011,3.339402 0.556491,0.906708 0.527428,-1.025211 1.838102,-2.649576 2.912613,-3.609645 1.784245,-1.594267 1.909287,-1.862305 1.442054,-3.091229 -0.820199,-2.157291 -0.600895,-2.514567 0.764079,-1.244813 1.426236,1.326752 2.167421,2.917046 2.378173,5.102652 0.07788,0.807663 0.223784,1.798895 0.324233,2.202742 0.12421,0.499335 -0.261679,0.785099 -1.206195,0.893239 -1.25544,0.143785 -1.319769,0.237757 -0.669845,0.978999 0.984698,1.123041 1.380554,6.369115 0.517058,6.852365 -0.490081,0.27425 -0.542851,0.8913 -0.217992,2.549194 0.235732,1.20303 0.452734,1.80186 0.482232,1.33072 0.0971,-1.5509 0.984898,-0.89372 1.530647,1.13302 1.081737,4.01727 2.093265,1.23161 1.433469,-3.94763 -0.18152,-1.424884 -0.07408,-1.689034 0.63836,-1.569394 1.185595,0.19907 1.092967,-1.20666 -0.12237,-1.85708 -1.169983,-0.62616 -1.290879,-2.55827 -0.215892,-3.450409 0.565103,-0.469 0.681427,-1.11671 0.448328,-2.496406 -0.242015,-1.432477 -0.08868,-2.180609 0.663351,-3.236756 0.537969,-0.755495 1.134672,-2.208133 1.326013,-3.228072 0.248937,-1.326934 0.681098,-1.981106 1.519311,-2.299793 0.64427,-0.244956 1.387726,-1.014334 1.652121,-1.709749 0.619718,-1.629966 0.611957,-1.690148 -0.217882,-1.690148 -0.921768,0 -3.706852,-3.40557 -3.706852,-4.532705 0,-0.485766 -0.327118,-1.666102 -0.726923,-2.62299 -0.649354,-1.554096 -0.806086,-1.660629 -1.468495,-0.998232 -1.044624,1.044633 -0.959417,1.430898 0.986719,4.473203 1.963904,3.070067 1.804844,3.456995 -0.438519,1.066738 -0.843977,-0.899244 -1.931056,-1.777676 -2.415724,-1.952069 -0.735242,-0.26454 -0.856876,-0.784303 -0.734244,-3.137578 0.09426,-1.808903 0.366432,-2.842473 0.758846,-2.88171 0.336529,-0.03367 0.777074,-0.114095 0.978991,-0.178738 0.201916,-0.06468 0.752599,-0.07828 1.223738,-0.03052 2.046419,0.208174 0.190033,-3.202338 -2.202729,-4.046806 -0.471139,-0.166268 -0.856618,-0.639629 -0.856618,-1.051912 0,-0.412285 -0.220273,-0.749611 -0.489496,-0.749611 -0.847952,0 -0.531987,1.604908 0.540781,2.74682 1.282386,1.365043 0.798837,2.305132 -0.984234,1.913511 -1.08057,-0.237344 -1.453806,-0.05921 -1.995046,0.952096 -0.596063,1.113753 -0.557055,1.359804 0.372384,2.349147 0.571471,0.608301 1.17755,2.092846 1.348208,3.302319 0.479313,3.396946 0.686483,3.839014 1.292835,2.758726 0.466628,-0.831334 0.688457,-0.730953 2.659306,1.203288 1.744857,1.712436 2.148812,2.437122 2.142727,3.843973 -0.0097,2.171419 -0.580364,3.104543 -1.760625,2.877233 -0.573053,-0.110282 -1.012272,-0.724636 -1.171931,-1.639022 -0.192724,-1.103769 -0.522947,-1.465905 -1.346278,-1.476386 -0.600005,-0.0083 -1.466764,-0.389714 -1.926133,-0.849095 -1.023788,-1.023786 -2.088461,-4.986365 -1.566615,-5.830733 0.463352,-0.749726 -0.391337,-1.897692 -1.190007,-1.598375 -0.596965,0.223745 -2.778813,-2.596506 -2.778813,-3.591868 0,-0.752762 1.515679,-4.074584 2.29543,-5.030776 0.708605,-0.868946 1.197973,-5.747667 0.612804,-6.109321 -0.212665,-0.131508 -0.487918,0.149252 -0.611678,0.623625 -0.164591,0.631022 -0.240254,0.554621 -0.281793,-0.284574 -0.03785,-0.764353 0.269923,-1.232624 0.922211,-1.403202 1.325934,-0.346747 1.242506,-1.50481 -0.12237,-1.698655 -0.661195,-0.09387 -1.157656,-0.549099 -1.242212,-1.13896 -0.183012,-1.276686 1.035974,-2.949537 1.803591,-2.475131 0.449797,0.27799 0.453155,0.525019 0.01427,1.053786 -0.448577,0.540475 -0.419078,0.690656 0.135637,0.690656 0.389867,0 1.22619,0.550691 1.858495,1.223735 0.632308,0.673061 0.890976,1.223751 0.57482,1.223751 -0.926189,0 -0.662742,0.993456 0.526547,1.985601 1.675871,1.398062 1.996476,1.1542 1.664716,-1.266255 -0.279722,-2.040807 -0.20696,-2.25452 0.912457,-2.680121 1.465447,-0.557157 1.52339,-1.036158 0.263295,-2.176527 -0.710219,-0.642746 -0.931455,-1.430001 -0.868099,-3.089113 0.109252,-2.861351 -0.869687,-3.64755 -2.891926,-2.322528 -0.809615,0.530481 -1.13537,0.99124 -0.783677,1.108471 1.076224,0.358743 0.634166,1.014173 -0.499497,0.740588 l -1.101364,-0.265792 1.101364,1.064929 c 1.197242,1.157641 1.468531,2.119157 0.489495,1.734931 -0.723076,-0.283777 -2.814598,-3.390005 -2.814598,-4.180112 0,-0.301803 0.338744,-0.418742 0.752769,-0.259867 1.094729,0.420087 1.467793,-1.04063 0.530335,-2.076506 -0.436483,-0.482312 -0.793609,-1.04806 -0.793609,-1.257221 0,-0.20916 -0.575765,-1.064547 -1.279473,-1.90086 -0.74766,-0.888541 -1.052851,-1.596112 -0.734243,-1.702313 0.93335,-0.311118 0.597864,-1.440703 -0.51426,-1.731531 -0.876069,-0.229097 -0.954613,-0.403429 -0.453708,-1.006984 0.333181,-0.401458 0.92009,-0.609313 1.304237,-0.461903 0.441045,0.169246 0.698456,-0.04782 0.698456,-0.588998 0,-0.800767 0.714884,-0.834934 10.891274,-0.52054 5.990204,0.185062 15.406871,0.555394 20.925937,0.822956 12.28952,0.59579 93.310001,0.692301 105.486301,0.125654 13.70649,-0.637857 30.78712,-0.53094 31.66554,0.198212 0.60418,0.501532 0.79252,3.077917 1.07347,14.684871 0.1874,7.74214 0.43923,16.389494 0.55964,19.216329 0.1204,2.826836 0.45076,12.739118 0.73414,22.027301 0.28336,9.288187 0.7227,21.403207 0.9763,26.922277 0.25359,5.51906 0.59701,15.76175 0.76316,22.76155 0.26565,11.19153 0.40918,12.87986 1.18985,13.99497 0.48827,0.69746 1.16595,2.23937 1.50599,3.42648 0.34001,1.1871 0.83109,2.43876 1.09128,2.78147 0.31839,0.4194 0.17718,1.27928 -0.43194,2.63003 -0.89969,1.9952 -0.89877,2.01192 0.15688,2.86672 1.01426,0.8213 1.02278,0.89517 0.19029,1.64856 -0.68563,0.62049 -2.32627,0.83475 -7.69092,1.0044 -9.20506,0.2911 -29.12347,0.74299 -43.95978,0.9973 -11.18081,0.19165 -12.26116,0.28601 -13.21637,1.15445 -1.75419,1.59481 -3.16908,2.09943 -5.58064,1.99036 -1.27191,-0.0575 -3.7355,0.17006 -5.47466,0.50573 -1.73915,0.33567 -4.1073,0.46857 -5.26256,0.29532 -1.83043,-0.27449 -2.36785,-0.12355 -4.18034,1.17413 -1.26356,0.90469 -3.80889,1.95071 -6.48532,2.66522 -5.63573,1.50451 -8.02649,2.422 -10.25899,3.93702 -0.98755,0.67017 -2.82792,1.35206 -4.08971,1.51531 -1.26178,0.16335 -2.75358,0.39006 -3.31512,0.504 -0.58673,0.11907 -1.7202,-0.3087 -2.66496,-1.00571 -0.90419,-0.66708 -1.92076,-1.21289 -2.25908,-1.21289 -0.33831,0 -2.74441,1.01525 -5.34688,2.25608 -4.06281,1.93715 -5.01066,2.21151 -6.70436,1.94068 -1.62898,-0.2605 -2.308609,-0.0931 -3.901889,0.96133 -2.109014,1.39568 -3.310882,1.30313 -3.310882,-0.25497 0,-1.45658 -2.722565,-2.9411 -5.397929,-2.9433 -1.218884,-9.8e-4 -2.702904,-0.34275 -3.297802,-0.75944 -1.111486,-0.7785 -3.00232,-0.67717 -6.332285,0.33938 -1.089568,0.33261 -1.885965,0.30755 -2.614275,-0.0822 -1.233374,-0.6601 -3.895527,0.19972 -3.895527,1.25817 0,0.71087 -4.380308,2.86612 -6.925711,3.40766 -0.902247,0.19195 -1.970864,0.62142 -2.374701,0.95437 -1.008764,0.8317 -1.984333,1.07567 -3.426468,0.85691 z M 10.820193,125.82568 c 2.201628,-0.48356 2.279507,-1.15669 0.232768,-2.01187 -1.00258,-0.4189 -2.1800056,-1.20269 -2.6165036,-1.74174 l -0.793638,-0.98011 -0.894339,0.98824 c -0.8542579,0.94394 -0.8569162,1.10089 -0.05935,3.50215 0.823772,2.48014 0.84716,2.50085 1.740797,1.54164 0.498199,-0.53475 1.5738176,-1.119 2.3902676,-1.29831 z m 41.43103,-7.71553 c 1.443366,-1.60908 3.337792,-5.22772 2.943322,-5.62219 -0.117876,-0.11791 -0.58548,0.35212 -1.039102,1.04444 l -0.82477,1.25875 -1.172321,-1.72753 c -1.388322,-2.04581 -1.434252,-2.56075 -0.364602,-4.08787 0.615762,-0.87914 0.645909,-1.09927 0.126864,-0.92624 -0.374477,0.12486 -1.091158,0.92947 -1.592633,1.7881 -1.137884,1.94833 -0.749034,3.85093 0.916464,4.48415 1.186636,0.45115 1.68504,1.46328 0.720572,1.46328 -0.269223,0 -0.489496,0.39649 -0.489496,0.8811 0,1.83536 -1.038734,2.07144 -2.534191,0.57598 -2.081908,-2.08189 -2.668558,-4.09614 -1.647076,-5.65511 0.852008,-1.30032 0.865424,-3.28611 0.02056,-3.04142 -0.269221,0.0779 -0.432209,0.31362 -0.362192,0.52367 0.07001,0.21004 -0.184124,0.98413 -0.564754,1.72018 -0.873854,1.68984 -0.503461,5.9746 0.516472,5.9746 0.377268,0 0.823361,0.38549 0.991315,0.85662 0.90916,2.55034 2.360647,2.71345 4.355571,0.48949 z m -7.46112,-1.47107 c -0.129352,-0.20929 -0.443812,-0.25155 -0.698824,-0.0939 -0.255013,0.15755 -0.33693,0.49161 -0.182034,0.74224 0.15489,0.25061 0.03534,0.45566 -0.265654,0.45566 -0.301001,0 -0.402991,0.23345 -0.226647,0.51878 0.202368,0.32746 0.558109,0.19402 0.964477,-0.36172 0.354111,-0.48428 0.538019,-1.05174 0.408682,-1.26101 z m 14.395945,-6.01727 c 0.02814,-1.86255 -0.07914,-2.13265 -0.656716,-1.6533 -0.379703,0.31514 -0.69037,0.40889 -0.69037,0.20834 0,-0.20054 -0.327805,-0.0926 -0.728452,0.23995 -0.589799,0.48948 -0.7859,0.45484 -1.030281,-0.182 -0.166008,-0.43263 -0.499027,-0.66469 -0.740034,-0.51574 -0.676341,0.41799 -0.518004,1.68153 0.210713,1.68153 0.356901,0 1.166252,0.55069 1.798558,1.22374 0.632307,0.67305 1.296629,1.22375 1.476284,1.22375 0.179655,0 0.341786,-1.00182 0.360298,-2.22627 z m 2.324133,-1.2002 c 0.166391,-0.26924 -0.04085,-0.4895 -0.460607,-0.4895 -0.419724,0 -0.763134,0.22026 -0.763134,0.4895 0,0.26921 0.207272,0.48949 0.460605,0.48949 0.253334,0 0.596744,-0.22028 0.763136,-0.48949 z M 38.25914,106.67618 c 0,-0.40132 0.336068,-1.37953 0.746813,-2.17384 0.46298,-0.89532 0.546502,-1.44417 0.219769,-1.44417 -0.578308,0 -1.945573,2.93321 -1.945573,4.17388 0,0.42835 0.220273,0.64271 0.489496,0.47631 0.269222,-0.16638 0.489495,-0.63088 0.489495,-1.03218 z m 18.111334,0.78744 c 0,-0.26921 -0.233272,-0.48949 -0.518384,-0.48949 -0.285113,0 -0.382247,0.22028 -0.215858,0.48949 0.166389,0.26922 0.399664,0.4895 0.518385,0.4895 0.118723,0 0.215857,-0.22028 0.215857,-0.4895 z m 5.384451,-0.27364 c 0,-0.41972 -0.223869,-0.62477 -0.497478,-0.45567 -0.273614,0.1691 -0.370754,0.51251 -0.215858,0.76315 0.419606,0.67894 0.713336,0.55234 0.713336,-0.30748 z m -16.153352,-0.21585 c 0,-0.26922 -0.220273,-0.4895 -0.489495,-0.4895 -0.269223,0 -0.489496,0.22028 -0.489496,0.4895 0,0.26921 0.220273,0.48949 0.489496,0.48949 0.269222,0 0.489495,-0.22028 0.489495,-0.48949 z m -1.468487,-1.19485 c 0,-0.11874 -0.220272,-0.352 -0.489495,-0.51839 -0.269223,-0.16639 -0.489497,-0.0693 -0.489497,0.21586 0,0.28512 0.220274,0.51838 0.489497,0.51838 0.269223,0 0.489495,-0.0972 0.489495,-0.21585 z m 12.726885,-0.76315 c 0,-0.26921 -0.09713,-0.48948 -0.215858,-0.48948 -0.118721,0 -0.351996,0.22027 -0.518385,0.48948 -0.16639,0.26924 -0.06925,0.4895 0.215858,0.4895 0.285111,0 0.518385,-0.22026 0.518385,-0.4895 z m -15.433438,-4.84979 c 0.512542,-1.614904 4.453891,-4.856224 6.333828,-5.208904 1.749637,-0.32825 2.531842,-1.6419 0.900559,-1.512433 -0.920623,0.0731 -0.998017,-0.67324 -0.360968,-3.480855 0.387014,-1.705653 -0.52431,-2.341152 -1.052916,-0.734254 -0.15499,0.471139 -0.588617,1.550731 -0.963625,2.399102 -0.375013,0.848349 -0.681838,1.715263 -0.681838,1.92648 0,0.21121 -0.843498,1.38941 -1.874445,2.61824 -2.517676,3.00094 -3.733152,4.926454 -3.109794,4.926454 0.282042,0 0.646182,-0.42022 0.809199,-0.93383 z m 10.538482,-5.021704 c 0,-2.41557 -0.241966,-2.337765 -0.634185,0.20397 -0.156913,1.01681 -0.07864,1.83559 0.175464,1.83559 0.252296,0 0.458721,-0.9178 0.458721,-2.03956 z m 2.936974,-0.8974 c 0,-0.26923 -0.220275,-0.4895 -0.489496,-0.4895 -0.269222,0 -0.489495,0.22027 -0.489495,0.4895 0,0.26922 0.220273,0.4895 0.489495,0.4895 0.269221,0 0.489496,-0.22028 0.489496,-0.4895 z m 1.957982,-33.285695 c 0,-0.269235 -0.220274,-0.489497 -0.489497,-0.489497 -0.26922,0 -0.489496,0.220262 -0.489496,0.489497 0,0.269217 0.220276,0.48948 0.489496,0.48948 0.269223,0 0.489497,-0.220263 0.489497,-0.48948 z m -10.21126,-1.47758 c -0.63558,-0.533443 -1.851962,-0.969907 -2.703073,-0.969907 -1.00534,0 -2.186757,-0.526943 -3.372242,-1.504129 -1.605408,-1.323304 -1.82476,-1.764625 -1.82476,-3.671205 0,-2.894845 1.05961,-2.877416 3.936419,0.06468 1.914668,1.958139 2.079721,2.289876 1.345986,2.705162 -0.463048,0.262087 -0.712754,0.795248 -0.559498,1.19463 0.465157,1.212177 1.515342,0.805713 2.076367,-0.803656 0.478222,-1.371826 0.406311,-1.623515 -0.716113,-2.506408 -0.686243,-0.539795 -1.141406,-1.25851 -1.011463,-1.597113 0.129932,-0.338621 0.0085,-0.843507 -0.270051,-1.121962 -0.348731,-0.348735 -0.07025,-1.052808 0.894871,-2.262364 1.709509,-2.142511 3.128621,-2.257248 5.764569,-0.466076 l 1.898436,1.290014 -1.172935,0.897752 c -0.645116,0.493759 -1.558416,0.779494 -2.029555,0.634968 -0.471139,-0.144443 -0.856618,-0.04345 -0.856618,0.224758 0,0.268139 -0.357279,0.844799 -0.793957,1.281478 -0.732275,0.732264 -0.726098,0.843573 0.07953,1.432655 0.553835,0.40497 0.754239,0.949492 0.547622,1.487911 -0.179228,0.46706 -0.191881,1.066008 -0.02809,1.330981 0.461615,0.746908 1.61581,-1.87013 1.321368,-2.996071 -0.180838,-0.691452 -0.02613,-1.00052 0.500784,-1.00052 1.102749,0 1.436013,0.807371 0.813444,1.970642 -0.297849,0.556545 -0.699284,1.935899 -0.892076,3.065241 -0.402983,2.360588 -1.25402,2.741082 -2.948962,1.318477 z m -1.047138,-7.05971 c 0,-0.118737 -0.220273,-0.352002 -0.489495,-0.518385 -0.269223,-0.1664 -0.489496,-0.06932 -0.489496,0.215852 0,0.285121 0.220273,0.518385 0.489496,0.518385 0.269222,0 0.489495,-0.09718 0.489495,-0.215852 z m -8.096805,-3.732675 c -0.177457,-0.287135 -0.205113,-0.639601 -0.06146,-0.783259 0.350637,-0.350634 1.305324,0.267178 1.305324,0.844713 0,0.625567 -0.84507,0.583809 -1.243867,-0.06145 z M 42.4936,48.005575 c -0.309583,-0.806758 0.411748,-1.450925 1.128614,-1.007881 0.519502,0.321071 0.138439,1.726448 -0.46812,1.726448 -0.211612,0 -0.508835,-0.323355 -0.660494,-0.718567 z M 42.011941,35.18143 c -0.665523,-0.665521 -0.291025,-1.142156 0.897407,-1.142156 0.76144,0 1.223738,0.277382 1.223738,0.734242 0,0.734194 -1.505376,1.023689 -2.121145,0.407914 z"
       id="path1413"
       inkscape:connector-curvature="0" />
  </g>
  <g
     inkscape:groupmode="layer"
     id="layer3"
     inkscape:label="Layer 2">
    <circle
       style="opacity:1;fill:#ffffff;fill-opacity:1;fill-rule:nonzero;stroke:#32be00;stroke-width:0.61841947;stroke-linecap:butt;stroke-linejoin:round;stroke-miterlimit:4;stroke-dasharray:none;stroke-opacity:1;paint-order:normal"
       id="path1424"
       cx="67.844551"
       cy="43.772503"
       r="4.0039411" />
  </g>
</svg>
